%TF.GenerationSoftware,KiCad,Pcbnew,10.0.4*%
%TF.CreationDate,2026-08-17T17:13:02+05:30*%
%TF.ProjectId,USB to UART converter,55534220-746f-4205-9541-525420636f6e,rev?*%
%TF.SameCoordinates,Original*%
%TF.FileFunction,Legend,Top*%
%TF.FilePolarity,Positive*%
%FSLAX46Y46*%
G04 Gerber Fmt 4.6, Leading zero omitted, Abs format (unit mm)*
G04 Created by KiCad (PCBNEW 10.0.4) date 2026-08-17 17:13:02*
%MOMM*%
%LPD*%
G01*
G04 APERTURE LIST*
%ADD10C,0.100000*%
%ADD11C,0.250000*%
%ADD12C,0.080000*%
%ADD13C,0.150000*%
%ADD14C,0.120000*%
%ADD15C,0.127000*%
%ADD16C,0.200000*%
G04 APERTURE END LIST*
D10*
X144053884Y-130122419D02*
X144053884Y-130931942D01*
X144053884Y-130931942D02*
X144101503Y-131027180D01*
X144101503Y-131027180D02*
X144149122Y-131074800D01*
X144149122Y-131074800D02*
X144244360Y-131122419D01*
X144244360Y-131122419D02*
X144434836Y-131122419D01*
X144434836Y-131122419D02*
X144530074Y-131074800D01*
X144530074Y-131074800D02*
X144577693Y-131027180D01*
X144577693Y-131027180D02*
X144625312Y-130931942D01*
X144625312Y-130931942D02*
X144625312Y-130122419D01*
X145053884Y-131074800D02*
X145196741Y-131122419D01*
X145196741Y-131122419D02*
X145434836Y-131122419D01*
X145434836Y-131122419D02*
X145530074Y-131074800D01*
X145530074Y-131074800D02*
X145577693Y-131027180D01*
X145577693Y-131027180D02*
X145625312Y-130931942D01*
X145625312Y-130931942D02*
X145625312Y-130836704D01*
X145625312Y-130836704D02*
X145577693Y-130741466D01*
X145577693Y-130741466D02*
X145530074Y-130693847D01*
X145530074Y-130693847D02*
X145434836Y-130646228D01*
X145434836Y-130646228D02*
X145244360Y-130598609D01*
X145244360Y-130598609D02*
X145149122Y-130550990D01*
X145149122Y-130550990D02*
X145101503Y-130503371D01*
X145101503Y-130503371D02*
X145053884Y-130408133D01*
X145053884Y-130408133D02*
X145053884Y-130312895D01*
X145053884Y-130312895D02*
X145101503Y-130217657D01*
X145101503Y-130217657D02*
X145149122Y-130170038D01*
X145149122Y-130170038D02*
X145244360Y-130122419D01*
X145244360Y-130122419D02*
X145482455Y-130122419D01*
X145482455Y-130122419D02*
X145625312Y-130170038D01*
X146387217Y-130598609D02*
X146530074Y-130646228D01*
X146530074Y-130646228D02*
X146577693Y-130693847D01*
X146577693Y-130693847D02*
X146625312Y-130789085D01*
X146625312Y-130789085D02*
X146625312Y-130931942D01*
X146625312Y-130931942D02*
X146577693Y-131027180D01*
X146577693Y-131027180D02*
X146530074Y-131074800D01*
X146530074Y-131074800D02*
X146434836Y-131122419D01*
X146434836Y-131122419D02*
X146053884Y-131122419D01*
X146053884Y-131122419D02*
X146053884Y-130122419D01*
X146053884Y-130122419D02*
X146387217Y-130122419D01*
X146387217Y-130122419D02*
X146482455Y-130170038D01*
X146482455Y-130170038D02*
X146530074Y-130217657D01*
X146530074Y-130217657D02*
X146577693Y-130312895D01*
X146577693Y-130312895D02*
X146577693Y-130408133D01*
X146577693Y-130408133D02*
X146530074Y-130503371D01*
X146530074Y-130503371D02*
X146482455Y-130550990D01*
X146482455Y-130550990D02*
X146387217Y-130598609D01*
X146387217Y-130598609D02*
X146053884Y-130598609D01*
X147672932Y-130455752D02*
X148053884Y-130455752D01*
X147815789Y-130122419D02*
X147815789Y-130979561D01*
X147815789Y-130979561D02*
X147863408Y-131074800D01*
X147863408Y-131074800D02*
X147958646Y-131122419D01*
X147958646Y-131122419D02*
X148053884Y-131122419D01*
X148530075Y-131122419D02*
X148434837Y-131074800D01*
X148434837Y-131074800D02*
X148387218Y-131027180D01*
X148387218Y-131027180D02*
X148339599Y-130931942D01*
X148339599Y-130931942D02*
X148339599Y-130646228D01*
X148339599Y-130646228D02*
X148387218Y-130550990D01*
X148387218Y-130550990D02*
X148434837Y-130503371D01*
X148434837Y-130503371D02*
X148530075Y-130455752D01*
X148530075Y-130455752D02*
X148672932Y-130455752D01*
X148672932Y-130455752D02*
X148768170Y-130503371D01*
X148768170Y-130503371D02*
X148815789Y-130550990D01*
X148815789Y-130550990D02*
X148863408Y-130646228D01*
X148863408Y-130646228D02*
X148863408Y-130931942D01*
X148863408Y-130931942D02*
X148815789Y-131027180D01*
X148815789Y-131027180D02*
X148768170Y-131074800D01*
X148768170Y-131074800D02*
X148672932Y-131122419D01*
X148672932Y-131122419D02*
X148530075Y-131122419D01*
X150053885Y-130122419D02*
X150053885Y-130931942D01*
X150053885Y-130931942D02*
X150101504Y-131027180D01*
X150101504Y-131027180D02*
X150149123Y-131074800D01*
X150149123Y-131074800D02*
X150244361Y-131122419D01*
X150244361Y-131122419D02*
X150434837Y-131122419D01*
X150434837Y-131122419D02*
X150530075Y-131074800D01*
X150530075Y-131074800D02*
X150577694Y-131027180D01*
X150577694Y-131027180D02*
X150625313Y-130931942D01*
X150625313Y-130931942D02*
X150625313Y-130122419D01*
X151053885Y-130836704D02*
X151530075Y-130836704D01*
X150958647Y-131122419D02*
X151291980Y-130122419D01*
X151291980Y-130122419D02*
X151625313Y-131122419D01*
X152530075Y-131122419D02*
X152196742Y-130646228D01*
X151958647Y-131122419D02*
X151958647Y-130122419D01*
X151958647Y-130122419D02*
X152339599Y-130122419D01*
X152339599Y-130122419D02*
X152434837Y-130170038D01*
X152434837Y-130170038D02*
X152482456Y-130217657D01*
X152482456Y-130217657D02*
X152530075Y-130312895D01*
X152530075Y-130312895D02*
X152530075Y-130455752D01*
X152530075Y-130455752D02*
X152482456Y-130550990D01*
X152482456Y-130550990D02*
X152434837Y-130598609D01*
X152434837Y-130598609D02*
X152339599Y-130646228D01*
X152339599Y-130646228D02*
X151958647Y-130646228D01*
X152815790Y-130122419D02*
X153387218Y-130122419D01*
X153101504Y-131122419D02*
X153101504Y-130122419D01*
X159387217Y-131420038D02*
X159291979Y-131372419D01*
X159291979Y-131372419D02*
X159149122Y-131372419D01*
X159149122Y-131372419D02*
X159006265Y-131420038D01*
X159006265Y-131420038D02*
X158911027Y-131515276D01*
X158911027Y-131515276D02*
X158863408Y-131610514D01*
X158863408Y-131610514D02*
X158815789Y-131800990D01*
X158815789Y-131800990D02*
X158815789Y-131943847D01*
X158815789Y-131943847D02*
X158863408Y-132134323D01*
X158863408Y-132134323D02*
X158911027Y-132229561D01*
X158911027Y-132229561D02*
X159006265Y-132324800D01*
X159006265Y-132324800D02*
X159149122Y-132372419D01*
X159149122Y-132372419D02*
X159244360Y-132372419D01*
X159244360Y-132372419D02*
X159387217Y-132324800D01*
X159387217Y-132324800D02*
X159434836Y-132277180D01*
X159434836Y-132277180D02*
X159434836Y-131943847D01*
X159434836Y-131943847D02*
X159244360Y-131943847D01*
X159863408Y-132372419D02*
X159863408Y-131372419D01*
X159863408Y-131372419D02*
X160434836Y-132372419D01*
X160434836Y-132372419D02*
X160434836Y-131372419D01*
X160911027Y-132372419D02*
X160911027Y-131372419D01*
X160911027Y-131372419D02*
X161149122Y-131372419D01*
X161149122Y-131372419D02*
X161291979Y-131420038D01*
X161291979Y-131420038D02*
X161387217Y-131515276D01*
X161387217Y-131515276D02*
X161434836Y-131610514D01*
X161434836Y-131610514D02*
X161482455Y-131800990D01*
X161482455Y-131800990D02*
X161482455Y-131943847D01*
X161482455Y-131943847D02*
X161434836Y-132134323D01*
X161434836Y-132134323D02*
X161387217Y-132229561D01*
X161387217Y-132229561D02*
X161291979Y-132324800D01*
X161291979Y-132324800D02*
X161149122Y-132372419D01*
X161149122Y-132372419D02*
X160911027Y-132372419D01*
X158911027Y-133934919D02*
X159244360Y-134934919D01*
X159244360Y-134934919D02*
X159577693Y-133934919D01*
X160482455Y-134839680D02*
X160434836Y-134887300D01*
X160434836Y-134887300D02*
X160291979Y-134934919D01*
X160291979Y-134934919D02*
X160196741Y-134934919D01*
X160196741Y-134934919D02*
X160053884Y-134887300D01*
X160053884Y-134887300D02*
X159958646Y-134792061D01*
X159958646Y-134792061D02*
X159911027Y-134696823D01*
X159911027Y-134696823D02*
X159863408Y-134506347D01*
X159863408Y-134506347D02*
X159863408Y-134363490D01*
X159863408Y-134363490D02*
X159911027Y-134173014D01*
X159911027Y-134173014D02*
X159958646Y-134077776D01*
X159958646Y-134077776D02*
X160053884Y-133982538D01*
X160053884Y-133982538D02*
X160196741Y-133934919D01*
X160196741Y-133934919D02*
X160291979Y-133934919D01*
X160291979Y-133934919D02*
X160434836Y-133982538D01*
X160434836Y-133982538D02*
X160482455Y-134030157D01*
X161482455Y-134839680D02*
X161434836Y-134887300D01*
X161434836Y-134887300D02*
X161291979Y-134934919D01*
X161291979Y-134934919D02*
X161196741Y-134934919D01*
X161196741Y-134934919D02*
X161053884Y-134887300D01*
X161053884Y-134887300D02*
X160958646Y-134792061D01*
X160958646Y-134792061D02*
X160911027Y-134696823D01*
X160911027Y-134696823D02*
X160863408Y-134506347D01*
X160863408Y-134506347D02*
X160863408Y-134363490D01*
X160863408Y-134363490D02*
X160911027Y-134173014D01*
X160911027Y-134173014D02*
X160958646Y-134077776D01*
X160958646Y-134077776D02*
X161053884Y-133982538D01*
X161053884Y-133982538D02*
X161196741Y-133934919D01*
X161196741Y-133934919D02*
X161291979Y-133934919D01*
X161291979Y-133934919D02*
X161434836Y-133982538D01*
X161434836Y-133982538D02*
X161482455Y-134030157D01*
X159768169Y-142622419D02*
X159434836Y-142146228D01*
X159196741Y-142622419D02*
X159196741Y-141622419D01*
X159196741Y-141622419D02*
X159577693Y-141622419D01*
X159577693Y-141622419D02*
X159672931Y-141670038D01*
X159672931Y-141670038D02*
X159720550Y-141717657D01*
X159720550Y-141717657D02*
X159768169Y-141812895D01*
X159768169Y-141812895D02*
X159768169Y-141955752D01*
X159768169Y-141955752D02*
X159720550Y-142050990D01*
X159720550Y-142050990D02*
X159672931Y-142098609D01*
X159672931Y-142098609D02*
X159577693Y-142146228D01*
X159577693Y-142146228D02*
X159196741Y-142146228D01*
X160149122Y-142574800D02*
X160291979Y-142622419D01*
X160291979Y-142622419D02*
X160530074Y-142622419D01*
X160530074Y-142622419D02*
X160625312Y-142574800D01*
X160625312Y-142574800D02*
X160672931Y-142527180D01*
X160672931Y-142527180D02*
X160720550Y-142431942D01*
X160720550Y-142431942D02*
X160720550Y-142336704D01*
X160720550Y-142336704D02*
X160672931Y-142241466D01*
X160672931Y-142241466D02*
X160625312Y-142193847D01*
X160625312Y-142193847D02*
X160530074Y-142146228D01*
X160530074Y-142146228D02*
X160339598Y-142098609D01*
X160339598Y-142098609D02*
X160244360Y-142050990D01*
X160244360Y-142050990D02*
X160196741Y-142003371D01*
X160196741Y-142003371D02*
X160149122Y-141908133D01*
X160149122Y-141908133D02*
X160149122Y-141812895D01*
X160149122Y-141812895D02*
X160196741Y-141717657D01*
X160196741Y-141717657D02*
X160244360Y-141670038D01*
X160244360Y-141670038D02*
X160339598Y-141622419D01*
X160339598Y-141622419D02*
X160577693Y-141622419D01*
X160577693Y-141622419D02*
X160720550Y-141670038D01*
X161006265Y-141622419D02*
X161577693Y-141622419D01*
X161291979Y-142622419D02*
X161291979Y-141622419D01*
X160530074Y-137497419D02*
X160196741Y-137021228D01*
X159958646Y-137497419D02*
X159958646Y-136497419D01*
X159958646Y-136497419D02*
X160339598Y-136497419D01*
X160339598Y-136497419D02*
X160434836Y-136545038D01*
X160434836Y-136545038D02*
X160482455Y-136592657D01*
X160482455Y-136592657D02*
X160530074Y-136687895D01*
X160530074Y-136687895D02*
X160530074Y-136830752D01*
X160530074Y-136830752D02*
X160482455Y-136925990D01*
X160482455Y-136925990D02*
X160434836Y-136973609D01*
X160434836Y-136973609D02*
X160339598Y-137021228D01*
X160339598Y-137021228D02*
X159958646Y-137021228D01*
X160863408Y-136497419D02*
X161530074Y-137497419D01*
X161530074Y-136497419D02*
X160863408Y-137497419D01*
X160053884Y-139059919D02*
X160625312Y-139059919D01*
X160339598Y-140059919D02*
X160339598Y-139059919D01*
X160863408Y-139059919D02*
X161530074Y-140059919D01*
X161530074Y-139059919D02*
X160863408Y-140059919D01*
D11*
G36*
X137715997Y-142771491D02*
G01*
X137776025Y-142831519D01*
X137808436Y-142896342D01*
X137848996Y-143058579D01*
X137848996Y-143170658D01*
X137808436Y-143332894D01*
X137776026Y-143397715D01*
X137715996Y-143457746D01*
X137620380Y-143489619D01*
X137527568Y-143489619D01*
X137527568Y-142739619D01*
X137620380Y-142739619D01*
X137715997Y-142771491D01*
G37*
G36*
X140477902Y-143247681D02*
G01*
X140490312Y-143260092D01*
X140515663Y-143310793D01*
X140515663Y-143394633D01*
X140490311Y-143445336D01*
X140471380Y-143464268D01*
X140420679Y-143489619D01*
X140194235Y-143489619D01*
X140194235Y-143215809D01*
X140382285Y-143215809D01*
X140477902Y-143247681D01*
G37*
G36*
X140423761Y-142764969D02*
G01*
X140442693Y-142783902D01*
X140468044Y-142834603D01*
X140468044Y-142870824D01*
X140442693Y-142921525D01*
X140423761Y-142940458D01*
X140373060Y-142965809D01*
X140194235Y-142965809D01*
X140194235Y-142739619D01*
X140373060Y-142739619D01*
X140423761Y-142764969D01*
G37*
G36*
X145858855Y-142771491D02*
G01*
X145918883Y-142831519D01*
X145951294Y-142896342D01*
X145991854Y-143058579D01*
X145991854Y-143170658D01*
X145951294Y-143332894D01*
X145918884Y-143397715D01*
X145858854Y-143457746D01*
X145763238Y-143489619D01*
X145670426Y-143489619D01*
X145670426Y-142739619D01*
X145763238Y-142739619D01*
X145858855Y-142771491D01*
G37*
G36*
X151423763Y-142764970D02*
G01*
X151480174Y-142821381D01*
X151515664Y-142963341D01*
X151515664Y-143265896D01*
X151480174Y-143407855D01*
X151423760Y-143464269D01*
X151373061Y-143489619D01*
X151241602Y-143489619D01*
X151190901Y-143464268D01*
X151134487Y-143407855D01*
X151098998Y-143265896D01*
X151098998Y-142963341D01*
X151134488Y-142821381D01*
X151190898Y-142764970D01*
X151241602Y-142739619D01*
X151373061Y-142739619D01*
X151423763Y-142764970D01*
G37*
G36*
X136800568Y-143203904D02*
G01*
X136671234Y-143203904D01*
X136735900Y-143009903D01*
X136800568Y-143203904D01*
G37*
G36*
X144943426Y-143203904D02*
G01*
X144814092Y-143203904D01*
X144878758Y-143009903D01*
X144943426Y-143203904D01*
G37*
G36*
X148895807Y-143203904D02*
G01*
X148766473Y-143203904D01*
X148831139Y-143009903D01*
X148895807Y-143203904D01*
G37*
G36*
X154319236Y-143864619D02*
G01*
X135152568Y-143864619D01*
X135152568Y-142614619D01*
X135277568Y-142614619D01*
X135277568Y-143614619D01*
X135279970Y-143639005D01*
X135298634Y-143684065D01*
X135333122Y-143718553D01*
X135378182Y-143737217D01*
X135426954Y-143737217D01*
X135472014Y-143718553D01*
X135506502Y-143684065D01*
X135525166Y-143639005D01*
X135527568Y-143614619D01*
X135527568Y-143178065D01*
X135622628Y-143381765D01*
X135627917Y-143390694D01*
X135629018Y-143393720D01*
X135630977Y-143395860D01*
X135635117Y-143402847D01*
X135649125Y-143415675D01*
X135661958Y-143429688D01*
X135666990Y-143432036D01*
X135671086Y-143435787D01*
X135688936Y-143442278D01*
X135706154Y-143450313D01*
X135711703Y-143450556D01*
X135716923Y-143452455D01*
X135735901Y-143451620D01*
X135754880Y-143452455D01*
X135760099Y-143450556D01*
X135765648Y-143450313D01*
X135782861Y-143442279D01*
X135800717Y-143435787D01*
X135804813Y-143432035D01*
X135809844Y-143429688D01*
X135822674Y-143415677D01*
X135836685Y-143402847D01*
X135840824Y-143395860D01*
X135842784Y-143393720D01*
X135843884Y-143390694D01*
X135849174Y-143381765D01*
X135944234Y-143178064D01*
X135944234Y-143614619D01*
X135946636Y-143639005D01*
X135965300Y-143684065D01*
X135999788Y-143718553D01*
X136044848Y-143737217D01*
X136093620Y-143737217D01*
X136138680Y-143718553D01*
X136173168Y-143684065D01*
X136191832Y-143639005D01*
X136194234Y-143614619D01*
X136194234Y-143598985D01*
X136278550Y-143598985D01*
X136282007Y-143647634D01*
X136303819Y-143691259D01*
X136340665Y-143723214D01*
X136386934Y-143738637D01*
X136435583Y-143735180D01*
X136479208Y-143713368D01*
X136511163Y-143676522D01*
X136521153Y-143654147D01*
X136587901Y-143453904D01*
X136883901Y-143453904D01*
X136950648Y-143654147D01*
X136960639Y-143676522D01*
X136992594Y-143713368D01*
X137036218Y-143735180D01*
X137084868Y-143738637D01*
X137131137Y-143723214D01*
X137167983Y-143691258D01*
X137189795Y-143647634D01*
X137193252Y-143598984D01*
X137187819Y-143575090D01*
X136867662Y-142614619D01*
X137277568Y-142614619D01*
X137277568Y-143614619D01*
X137279970Y-143639005D01*
X137298634Y-143684065D01*
X137333122Y-143718553D01*
X137378182Y-143737217D01*
X137402568Y-143739619D01*
X137640663Y-143739619D01*
X137653006Y-143738403D01*
X137656297Y-143738637D01*
X137660626Y-143737652D01*
X137665049Y-143737217D01*
X137668100Y-143735953D01*
X137680191Y-143733204D01*
X137823048Y-143685586D01*
X137845423Y-143675595D01*
X137848815Y-143672652D01*
X137852967Y-143670933D01*
X137871909Y-143655388D01*
X137967147Y-143560149D01*
X137975015Y-143550560D01*
X137977507Y-143548400D01*
X137979871Y-143544643D01*
X137982692Y-143541207D01*
X137983956Y-143538155D01*
X137990561Y-143527663D01*
X138038180Y-143432425D01*
X138038863Y-143430639D01*
X138039400Y-143429915D01*
X138043055Y-143419685D01*
X138046938Y-143409539D01*
X138047001Y-143408639D01*
X138047645Y-143406840D01*
X138095264Y-143216364D01*
X138095889Y-143212134D01*
X138096594Y-143210433D01*
X138097498Y-143201253D01*
X138098848Y-143192124D01*
X138098576Y-143190301D01*
X138098996Y-143186047D01*
X138098996Y-143043190D01*
X138098576Y-143038935D01*
X138098848Y-143037113D01*
X138097498Y-143027983D01*
X138096594Y-143018804D01*
X138095889Y-143017102D01*
X138095264Y-143012873D01*
X138047645Y-142822397D01*
X138047001Y-142820597D01*
X138046938Y-142819698D01*
X138043055Y-142809551D01*
X138039400Y-142799322D01*
X138038863Y-142798597D01*
X138038180Y-142796812D01*
X137990561Y-142701574D01*
X137983953Y-142691077D01*
X137982691Y-142688030D01*
X137979874Y-142684598D01*
X137977507Y-142680837D01*
X137975012Y-142678673D01*
X137967146Y-142669088D01*
X137912677Y-142614619D01*
X138277568Y-142614619D01*
X138277568Y-143614619D01*
X138279970Y-143639005D01*
X138298634Y-143684065D01*
X138333122Y-143718553D01*
X138378182Y-143737217D01*
X138402568Y-143739619D01*
X138878758Y-143739619D01*
X138903144Y-143737217D01*
X138948204Y-143718553D01*
X138982692Y-143684065D01*
X139001356Y-143639005D01*
X139001356Y-143590233D01*
X138982692Y-143545173D01*
X138948204Y-143510685D01*
X138903144Y-143492021D01*
X138878758Y-143489619D01*
X138527568Y-143489619D01*
X138527568Y-143215809D01*
X138735901Y-143215809D01*
X138760287Y-143213407D01*
X138805347Y-143194743D01*
X138839835Y-143160255D01*
X138858499Y-143115195D01*
X138858499Y-143066423D01*
X138839835Y-143021363D01*
X138805347Y-142986875D01*
X138760287Y-142968211D01*
X138735901Y-142965809D01*
X138527568Y-142965809D01*
X138527568Y-142739619D01*
X138878758Y-142739619D01*
X138903144Y-142737217D01*
X138948204Y-142718553D01*
X138982692Y-142684065D01*
X139001356Y-142639005D01*
X139001356Y-142614619D01*
X139944235Y-142614619D01*
X139944235Y-143614619D01*
X139946637Y-143639005D01*
X139965301Y-143684065D01*
X139999789Y-143718553D01*
X140044849Y-143737217D01*
X140069235Y-143739619D01*
X140450187Y-143739619D01*
X140474573Y-143737217D01*
X140478721Y-143735498D01*
X140483203Y-143735180D01*
X140506089Y-143726422D01*
X140601326Y-143678804D01*
X140611822Y-143672196D01*
X140614872Y-143670933D01*
X140618305Y-143668114D01*
X140622064Y-143665749D01*
X140624226Y-143663255D01*
X140633814Y-143655387D01*
X140681433Y-143607768D01*
X140689300Y-143598180D01*
X140691793Y-143596019D01*
X140694159Y-143592259D01*
X140696978Y-143588825D01*
X140698240Y-143585776D01*
X140704847Y-143575282D01*
X140752466Y-143480044D01*
X140761224Y-143457158D01*
X140761542Y-143452677D01*
X140763261Y-143448528D01*
X140765663Y-143424142D01*
X140765663Y-143281285D01*
X140763261Y-143256899D01*
X140761542Y-143252749D01*
X140761224Y-143248269D01*
X140752466Y-143225383D01*
X140704847Y-143130145D01*
X140698240Y-143119650D01*
X140696977Y-143116600D01*
X140694158Y-143113165D01*
X140691793Y-143109408D01*
X140689301Y-143107246D01*
X140681432Y-143097658D01*
X140649102Y-143065329D01*
X140649358Y-143065018D01*
X140650621Y-143061967D01*
X140657228Y-143051473D01*
X140704847Y-142956235D01*
X140713605Y-142933349D01*
X140713923Y-142928868D01*
X140715642Y-142924719D01*
X140718044Y-142900333D01*
X140718044Y-142805095D01*
X140715642Y-142780709D01*
X140713923Y-142776559D01*
X140713605Y-142772079D01*
X140704847Y-142749193D01*
X140657228Y-142653955D01*
X140650621Y-142643460D01*
X140649358Y-142640410D01*
X140646539Y-142636975D01*
X140644174Y-142633218D01*
X140641682Y-142631056D01*
X140633813Y-142621468D01*
X140624175Y-142611830D01*
X140801409Y-142611830D01*
X140809855Y-142659865D01*
X140820920Y-142681728D01*
X141134711Y-143174829D01*
X141134711Y-143614619D01*
X141137113Y-143639005D01*
X141155777Y-143684065D01*
X141190265Y-143718553D01*
X141235325Y-143737217D01*
X141284097Y-143737217D01*
X141329157Y-143718553D01*
X141363645Y-143684065D01*
X141382309Y-143639005D01*
X141384711Y-143614619D01*
X141384711Y-143598985D01*
X144421408Y-143598985D01*
X144424865Y-143647634D01*
X144446677Y-143691259D01*
X144483523Y-143723214D01*
X144529792Y-143738637D01*
X144578441Y-143735180D01*
X144622066Y-143713368D01*
X144654021Y-143676522D01*
X144664011Y-143654147D01*
X144730759Y-143453904D01*
X145026759Y-143453904D01*
X145093506Y-143654147D01*
X145103497Y-143676522D01*
X145135452Y-143713368D01*
X145179076Y-143735180D01*
X145227726Y-143738637D01*
X145273995Y-143723214D01*
X145310841Y-143691258D01*
X145332653Y-143647634D01*
X145336110Y-143598984D01*
X145330677Y-143575090D01*
X145010520Y-142614619D01*
X145420426Y-142614619D01*
X145420426Y-143614619D01*
X145422828Y-143639005D01*
X145441492Y-143684065D01*
X145475980Y-143718553D01*
X145521040Y-143737217D01*
X145545426Y-143739619D01*
X145783521Y-143739619D01*
X145795864Y-143738403D01*
X145799155Y-143738637D01*
X145803484Y-143737652D01*
X145807907Y-143737217D01*
X145810958Y-143735953D01*
X145823049Y-143733204D01*
X145965906Y-143685586D01*
X145988281Y-143675595D01*
X145991673Y-143672652D01*
X145995825Y-143670933D01*
X146014767Y-143655388D01*
X146110005Y-143560149D01*
X146117873Y-143550560D01*
X146120365Y-143548400D01*
X146122729Y-143544643D01*
X146125550Y-143541207D01*
X146126814Y-143538155D01*
X146133419Y-143527663D01*
X146181038Y-143432425D01*
X146181721Y-143430639D01*
X146182258Y-143429915D01*
X146185913Y-143419685D01*
X146189796Y-143409539D01*
X146189859Y-143408639D01*
X146190503Y-143406840D01*
X146238122Y-143216364D01*
X146238747Y-143212134D01*
X146239452Y-143210433D01*
X146240356Y-143201253D01*
X146241706Y-143192124D01*
X146241434Y-143190301D01*
X146241854Y-143186047D01*
X146241854Y-143043190D01*
X146241434Y-143038935D01*
X146241706Y-143037113D01*
X146240356Y-143027983D01*
X146239452Y-143018804D01*
X146238747Y-143017102D01*
X146238122Y-143012873D01*
X146190503Y-142822397D01*
X146189859Y-142820597D01*
X146189796Y-142819698D01*
X146185913Y-142809551D01*
X146182258Y-142799322D01*
X146181721Y-142798597D01*
X146181038Y-142796812D01*
X146133419Y-142701574D01*
X146126811Y-142691077D01*
X146125549Y-142688030D01*
X146122732Y-142684598D01*
X146120365Y-142680837D01*
X146117870Y-142678673D01*
X146110004Y-142669088D01*
X146055535Y-142614619D01*
X146420426Y-142614619D01*
X146420426Y-143614619D01*
X146422828Y-143639005D01*
X146441492Y-143684065D01*
X146475980Y-143718553D01*
X146521040Y-143737217D01*
X146569812Y-143737217D01*
X146614872Y-143718553D01*
X146649360Y-143684065D01*
X146668024Y-143639005D01*
X146670426Y-143614619D01*
X146670426Y-142614619D01*
X146668024Y-142590233D01*
X146756161Y-142590233D01*
X146756161Y-142639005D01*
X146774825Y-142684065D01*
X146809313Y-142718553D01*
X146854373Y-142737217D01*
X146878759Y-142739619D01*
X147039473Y-142739619D01*
X147039473Y-143614619D01*
X147041875Y-143639005D01*
X147060539Y-143684065D01*
X147095027Y-143718553D01*
X147140087Y-143737217D01*
X147188859Y-143737217D01*
X147233919Y-143718553D01*
X147268407Y-143684065D01*
X147287071Y-143639005D01*
X147289473Y-143614619D01*
X147289473Y-142739619D01*
X147450187Y-142739619D01*
X147474573Y-142737217D01*
X147519633Y-142718553D01*
X147543470Y-142694715D01*
X147848997Y-143174829D01*
X147848997Y-143614619D01*
X147851399Y-143639005D01*
X147870063Y-143684065D01*
X147904551Y-143718553D01*
X147949611Y-143737217D01*
X147998383Y-143737217D01*
X148043443Y-143718553D01*
X148077931Y-143684065D01*
X148096595Y-143639005D01*
X148098997Y-143614619D01*
X148098997Y-143598985D01*
X148373789Y-143598985D01*
X148377246Y-143647634D01*
X148399058Y-143691259D01*
X148435904Y-143723214D01*
X148482173Y-143738637D01*
X148530822Y-143735180D01*
X148574447Y-143713368D01*
X148606402Y-143676522D01*
X148616392Y-143654147D01*
X148683140Y-143453904D01*
X148979140Y-143453904D01*
X149045887Y-143654147D01*
X149055878Y-143676522D01*
X149087833Y-143713368D01*
X149131457Y-143735180D01*
X149180107Y-143738637D01*
X149226376Y-143723214D01*
X149263222Y-143691258D01*
X149285034Y-143647634D01*
X149288491Y-143598984D01*
X149286501Y-143590233D01*
X150041876Y-143590233D01*
X150041876Y-143639005D01*
X150060540Y-143684065D01*
X150095028Y-143718553D01*
X150140088Y-143737217D01*
X150164474Y-143739619D01*
X150259712Y-143739619D01*
X150272055Y-143738403D01*
X150275346Y-143738637D01*
X150279675Y-143737652D01*
X150284098Y-143737217D01*
X150287149Y-143735953D01*
X150299240Y-143733204D01*
X150442097Y-143685586D01*
X150464472Y-143675595D01*
X150467864Y-143672652D01*
X150472016Y-143670933D01*
X150490958Y-143655388D01*
X150586196Y-143560149D01*
X150601741Y-143541207D01*
X150603460Y-143537055D01*
X150606402Y-143533664D01*
X150616392Y-143511289D01*
X150664011Y-143368433D01*
X150666760Y-143356339D01*
X150668024Y-143353290D01*
X150668459Y-143348868D01*
X150669444Y-143344539D01*
X150669210Y-143341247D01*
X150670426Y-143328904D01*
X150670426Y-142947952D01*
X150848998Y-142947952D01*
X150848998Y-143281285D01*
X150849417Y-143285539D01*
X150849146Y-143287361D01*
X150850495Y-143296489D01*
X150851400Y-143305671D01*
X150852104Y-143307372D01*
X150852730Y-143311602D01*
X150900349Y-143502078D01*
X150908594Y-143525153D01*
X150914126Y-143532619D01*
X150917683Y-143541207D01*
X150933228Y-143560149D01*
X151028466Y-143655388D01*
X151038054Y-143663257D01*
X151040216Y-143665749D01*
X151043973Y-143668114D01*
X151047408Y-143670933D01*
X151050458Y-143672196D01*
X151060953Y-143678803D01*
X151156191Y-143726422D01*
X151179077Y-143735180D01*
X151183557Y-143735498D01*
X151187707Y-143737217D01*
X151212093Y-143739619D01*
X151402569Y-143739619D01*
X151426955Y-143737217D01*
X151431103Y-143735498D01*
X151435585Y-143735180D01*
X151458471Y-143726422D01*
X151553708Y-143678804D01*
X151564204Y-143672196D01*
X151567254Y-143670933D01*
X151570688Y-143668114D01*
X151574446Y-143665749D01*
X151576607Y-143663257D01*
X151586196Y-143655388D01*
X151681434Y-143560149D01*
X151696979Y-143541207D01*
X151700536Y-143532618D01*
X151706068Y-143525153D01*
X151714313Y-143502078D01*
X151761932Y-143311602D01*
X151762557Y-143307372D01*
X151763262Y-143305671D01*
X151764166Y-143296491D01*
X151765516Y-143287362D01*
X151765244Y-143285539D01*
X151765664Y-143281285D01*
X151765664Y-142947952D01*
X151765244Y-142943697D01*
X151765516Y-142941875D01*
X151764166Y-142932745D01*
X151763262Y-142923566D01*
X151762557Y-142921864D01*
X151761932Y-142917635D01*
X151733797Y-142805095D01*
X151896617Y-142805095D01*
X151896617Y-142900333D01*
X151899019Y-142924719D01*
X151900737Y-142928867D01*
X151901056Y-142933349D01*
X151909814Y-142956235D01*
X151957432Y-143051472D01*
X151964041Y-143061970D01*
X151965303Y-143065017D01*
X151968118Y-143068448D01*
X151970487Y-143072210D01*
X151972981Y-143074373D01*
X151980848Y-143083959D01*
X152028466Y-143131578D01*
X152038054Y-143139447D01*
X152040216Y-143141939D01*
X152043973Y-143144304D01*
X152047408Y-143147123D01*
X152050458Y-143148386D01*
X152060953Y-143154993D01*
X152156191Y-143202612D01*
X152157976Y-143203295D01*
X152158701Y-143203832D01*
X152168930Y-143207487D01*
X152179077Y-143211370D01*
X152179976Y-143211433D01*
X152181776Y-143212077D01*
X152358942Y-143256368D01*
X152423762Y-143288778D01*
X152442694Y-143307711D01*
X152468045Y-143358412D01*
X152468045Y-143394633D01*
X152442693Y-143445336D01*
X152423762Y-143464268D01*
X152373061Y-143489619D01*
X152184760Y-143489619D01*
X152061145Y-143448415D01*
X152037251Y-143442982D01*
X151988602Y-143446439D01*
X151944977Y-143468251D01*
X151913022Y-143505097D01*
X151897599Y-143551366D01*
X151901056Y-143600015D01*
X151922868Y-143643640D01*
X151959714Y-143675595D01*
X151982089Y-143685585D01*
X152124945Y-143733204D01*
X152137038Y-143735953D01*
X152140088Y-143737217D01*
X152144509Y-143737652D01*
X152148839Y-143738637D01*
X152152130Y-143738403D01*
X152164474Y-143739619D01*
X152402569Y-143739619D01*
X152426955Y-143737217D01*
X152431103Y-143735498D01*
X152435585Y-143735180D01*
X152458471Y-143726422D01*
X152553708Y-143678804D01*
X152564204Y-143672196D01*
X152567254Y-143670933D01*
X152570687Y-143668114D01*
X152574446Y-143665749D01*
X152576608Y-143663255D01*
X152586196Y-143655387D01*
X152633815Y-143607768D01*
X152641682Y-143598180D01*
X152644175Y-143596019D01*
X152646541Y-143592259D01*
X152649360Y-143588825D01*
X152650622Y-143585776D01*
X152657229Y-143575282D01*
X152704848Y-143480044D01*
X152713606Y-143457158D01*
X152713924Y-143452677D01*
X152715643Y-143448528D01*
X152718045Y-143424142D01*
X152718045Y-143328904D01*
X152715643Y-143304518D01*
X152713924Y-143300368D01*
X152713606Y-143295888D01*
X152704848Y-143273002D01*
X152657229Y-143177764D01*
X152650622Y-143167269D01*
X152649359Y-143164219D01*
X152646540Y-143160784D01*
X152644175Y-143157027D01*
X152641683Y-143154865D01*
X152633814Y-143145277D01*
X152586195Y-143097659D01*
X152576609Y-143089792D01*
X152574446Y-143087298D01*
X152570684Y-143084929D01*
X152567253Y-143082114D01*
X152564206Y-143080852D01*
X152553708Y-143074243D01*
X152458471Y-143026625D01*
X152456685Y-143025941D01*
X152455961Y-143025405D01*
X152445731Y-143021749D01*
X152435585Y-143017867D01*
X152434685Y-143017803D01*
X152432886Y-143017160D01*
X152255721Y-142972868D01*
X152190900Y-142940458D01*
X152171967Y-142921526D01*
X152146617Y-142870825D01*
X152146617Y-142834603D01*
X152171967Y-142783901D01*
X152190900Y-142764969D01*
X152241602Y-142739619D01*
X152429905Y-142739619D01*
X152553516Y-142780823D01*
X152577410Y-142786256D01*
X152626060Y-142782799D01*
X152669684Y-142760987D01*
X152701640Y-142724141D01*
X152717063Y-142677872D01*
X152713606Y-142629222D01*
X152706304Y-142614619D01*
X152896617Y-142614619D01*
X152896617Y-143614619D01*
X152899019Y-143639005D01*
X152917683Y-143684065D01*
X152952171Y-143718553D01*
X152997231Y-143737217D01*
X153046003Y-143737217D01*
X153091063Y-143718553D01*
X153125551Y-143684065D01*
X153144215Y-143639005D01*
X153146617Y-143614619D01*
X153146617Y-143215809D01*
X153468045Y-143215809D01*
X153468045Y-143614619D01*
X153470447Y-143639005D01*
X153489111Y-143684065D01*
X153523599Y-143718553D01*
X153568659Y-143737217D01*
X153617431Y-143737217D01*
X153662491Y-143718553D01*
X153696979Y-143684065D01*
X153715643Y-143639005D01*
X153718045Y-143614619D01*
X153718045Y-142614619D01*
X153944236Y-142614619D01*
X153944236Y-143614619D01*
X153946638Y-143639005D01*
X153965302Y-143684065D01*
X153999790Y-143718553D01*
X154044850Y-143737217D01*
X154093622Y-143737217D01*
X154138682Y-143718553D01*
X154173170Y-143684065D01*
X154191834Y-143639005D01*
X154194236Y-143614619D01*
X154194236Y-142614619D01*
X154191834Y-142590233D01*
X154173170Y-142545173D01*
X154138682Y-142510685D01*
X154093622Y-142492021D01*
X154044850Y-142492021D01*
X153999790Y-142510685D01*
X153965302Y-142545173D01*
X153946638Y-142590233D01*
X153944236Y-142614619D01*
X153718045Y-142614619D01*
X153715643Y-142590233D01*
X153696979Y-142545173D01*
X153662491Y-142510685D01*
X153617431Y-142492021D01*
X153568659Y-142492021D01*
X153523599Y-142510685D01*
X153489111Y-142545173D01*
X153470447Y-142590233D01*
X153468045Y-142614619D01*
X153468045Y-142965809D01*
X153146617Y-142965809D01*
X153146617Y-142614619D01*
X153144215Y-142590233D01*
X153125551Y-142545173D01*
X153091063Y-142510685D01*
X153046003Y-142492021D01*
X152997231Y-142492021D01*
X152952171Y-142510685D01*
X152917683Y-142545173D01*
X152899019Y-142590233D01*
X152896617Y-142614619D01*
X152706304Y-142614619D01*
X152691794Y-142585598D01*
X152654948Y-142553643D01*
X152632573Y-142543652D01*
X152489716Y-142496034D01*
X152477625Y-142493284D01*
X152474574Y-142492021D01*
X152470151Y-142491585D01*
X152465822Y-142490601D01*
X152462531Y-142490834D01*
X152450188Y-142489619D01*
X152212093Y-142489619D01*
X152187707Y-142492021D01*
X152183557Y-142493739D01*
X152179077Y-142494058D01*
X152156191Y-142502816D01*
X152060953Y-142550435D01*
X152050458Y-142557041D01*
X152047408Y-142558305D01*
X152043973Y-142561123D01*
X152040216Y-142563489D01*
X152038054Y-142565980D01*
X152028466Y-142573850D01*
X151980848Y-142621469D01*
X151972981Y-142631054D01*
X151970487Y-142633218D01*
X151968118Y-142636979D01*
X151965303Y-142640411D01*
X151964041Y-142643457D01*
X151957432Y-142653956D01*
X151909814Y-142749193D01*
X151901056Y-142772079D01*
X151900737Y-142776560D01*
X151899019Y-142780709D01*
X151896617Y-142805095D01*
X151733797Y-142805095D01*
X151714313Y-142727159D01*
X151706068Y-142704084D01*
X151700534Y-142696615D01*
X151696978Y-142688030D01*
X151681433Y-142669088D01*
X151586195Y-142573850D01*
X151576609Y-142565983D01*
X151574446Y-142563489D01*
X151570684Y-142561120D01*
X151567253Y-142558305D01*
X151564206Y-142557043D01*
X151553708Y-142550434D01*
X151458471Y-142502816D01*
X151435585Y-142494058D01*
X151431103Y-142493739D01*
X151426955Y-142492021D01*
X151402569Y-142489619D01*
X151212093Y-142489619D01*
X151187707Y-142492021D01*
X151183557Y-142493739D01*
X151179077Y-142494058D01*
X151156191Y-142502816D01*
X151060953Y-142550435D01*
X151050456Y-142557042D01*
X151047409Y-142558305D01*
X151043977Y-142561121D01*
X151040216Y-142563489D01*
X151038052Y-142565983D01*
X151028467Y-142573850D01*
X150933229Y-142669088D01*
X150917684Y-142688030D01*
X150914127Y-142696615D01*
X150908594Y-142704084D01*
X150900349Y-142727159D01*
X150852730Y-142917635D01*
X150852104Y-142921864D01*
X150851400Y-142923566D01*
X150850495Y-142932747D01*
X150849146Y-142941876D01*
X150849417Y-142943697D01*
X150848998Y-142947952D01*
X150670426Y-142947952D01*
X150670426Y-142614619D01*
X150668024Y-142590233D01*
X150649360Y-142545173D01*
X150614872Y-142510685D01*
X150569812Y-142492021D01*
X150521040Y-142492021D01*
X150475980Y-142510685D01*
X150441492Y-142545173D01*
X150422828Y-142590233D01*
X150420426Y-142614619D01*
X150420426Y-143308618D01*
X150388553Y-143404237D01*
X150335045Y-143457746D01*
X150239429Y-143489619D01*
X150164474Y-143489619D01*
X150140088Y-143492021D01*
X150095028Y-143510685D01*
X150060540Y-143545173D01*
X150041876Y-143590233D01*
X149286501Y-143590233D01*
X149283058Y-143575090D01*
X148949725Y-142575091D01*
X148939735Y-142552716D01*
X148933883Y-142545968D01*
X148929889Y-142537980D01*
X148918051Y-142527713D01*
X148907780Y-142515870D01*
X148899788Y-142511874D01*
X148893043Y-142506024D01*
X148878175Y-142501068D01*
X148864155Y-142494058D01*
X148855245Y-142493424D01*
X148846774Y-142490601D01*
X148831139Y-142491711D01*
X148815506Y-142490601D01*
X148807034Y-142493424D01*
X148798124Y-142494058D01*
X148784102Y-142501069D01*
X148769237Y-142506024D01*
X148762491Y-142511874D01*
X148754500Y-142515870D01*
X148744231Y-142527710D01*
X148732391Y-142537979D01*
X148728395Y-142545969D01*
X148722545Y-142552716D01*
X148712554Y-142575091D01*
X148379222Y-143575091D01*
X148373789Y-143598985D01*
X148098997Y-143598985D01*
X148098997Y-143174828D01*
X148412788Y-142681728D01*
X148423854Y-142659865D01*
X148432299Y-142611830D01*
X148421719Y-142564218D01*
X148393723Y-142524280D01*
X148352576Y-142498095D01*
X148304541Y-142489650D01*
X148256929Y-142500230D01*
X148216991Y-142528225D01*
X148201872Y-142547509D01*
X147973996Y-142905599D01*
X147746122Y-142547510D01*
X147731003Y-142528226D01*
X147691065Y-142500230D01*
X147643453Y-142489650D01*
X147595418Y-142498096D01*
X147554271Y-142524280D01*
X147545599Y-142536651D01*
X147519633Y-142510685D01*
X147474573Y-142492021D01*
X147450187Y-142489619D01*
X146878759Y-142489619D01*
X146854373Y-142492021D01*
X146809313Y-142510685D01*
X146774825Y-142545173D01*
X146756161Y-142590233D01*
X146668024Y-142590233D01*
X146649360Y-142545173D01*
X146614872Y-142510685D01*
X146569812Y-142492021D01*
X146521040Y-142492021D01*
X146475980Y-142510685D01*
X146441492Y-142545173D01*
X146422828Y-142590233D01*
X146420426Y-142614619D01*
X146055535Y-142614619D01*
X146014766Y-142573850D01*
X145995824Y-142558305D01*
X145991674Y-142556586D01*
X145988281Y-142553643D01*
X145965906Y-142543652D01*
X145823049Y-142496034D01*
X145810958Y-142493284D01*
X145807907Y-142492021D01*
X145803484Y-142491585D01*
X145799155Y-142490601D01*
X145795864Y-142490834D01*
X145783521Y-142489619D01*
X145545426Y-142489619D01*
X145521040Y-142492021D01*
X145475980Y-142510685D01*
X145441492Y-142545173D01*
X145422828Y-142590233D01*
X145420426Y-142614619D01*
X145010520Y-142614619D01*
X144997344Y-142575091D01*
X144987354Y-142552716D01*
X144981502Y-142545968D01*
X144977508Y-142537980D01*
X144965670Y-142527713D01*
X144955399Y-142515870D01*
X144947407Y-142511874D01*
X144940662Y-142506024D01*
X144925794Y-142501068D01*
X144911774Y-142494058D01*
X144902864Y-142493424D01*
X144894393Y-142490601D01*
X144878758Y-142491711D01*
X144863125Y-142490601D01*
X144854653Y-142493424D01*
X144845743Y-142494058D01*
X144831721Y-142501069D01*
X144816856Y-142506024D01*
X144810110Y-142511874D01*
X144802119Y-142515870D01*
X144791850Y-142527710D01*
X144780010Y-142537979D01*
X144776014Y-142545969D01*
X144770164Y-142552716D01*
X144760173Y-142575091D01*
X144426841Y-143575091D01*
X144421408Y-143598985D01*
X141384711Y-143598985D01*
X141384711Y-143209280D01*
X142565685Y-143209280D01*
X142565685Y-143258052D01*
X142584349Y-143303112D01*
X142618837Y-143337600D01*
X142663897Y-143356264D01*
X142688283Y-143358666D01*
X143450188Y-143358666D01*
X143474574Y-143356264D01*
X143519634Y-143337600D01*
X143554122Y-143303112D01*
X143572786Y-143258052D01*
X143572786Y-143209280D01*
X143554122Y-143164220D01*
X143519634Y-143129732D01*
X143474574Y-143111068D01*
X143450188Y-143108666D01*
X142688283Y-143108666D01*
X142663897Y-143111068D01*
X142618837Y-143129732D01*
X142584349Y-143164220D01*
X142565685Y-143209280D01*
X141384711Y-143209280D01*
X141384711Y-143174828D01*
X141698502Y-142681728D01*
X141709568Y-142659865D01*
X141718013Y-142611830D01*
X141707433Y-142564218D01*
X141679437Y-142524280D01*
X141638290Y-142498095D01*
X141590255Y-142489650D01*
X141542643Y-142500230D01*
X141502705Y-142528225D01*
X141487586Y-142547509D01*
X141259710Y-142905599D01*
X141031836Y-142547510D01*
X141016717Y-142528226D01*
X140976779Y-142500230D01*
X140929167Y-142489650D01*
X140881132Y-142498096D01*
X140839985Y-142524280D01*
X140811989Y-142564218D01*
X140801409Y-142611830D01*
X140624175Y-142611830D01*
X140586194Y-142573850D01*
X140576608Y-142565983D01*
X140574445Y-142563489D01*
X140570683Y-142561120D01*
X140567252Y-142558305D01*
X140564205Y-142557043D01*
X140553707Y-142550434D01*
X140458470Y-142502816D01*
X140435584Y-142494058D01*
X140431102Y-142493739D01*
X140426954Y-142492021D01*
X140402568Y-142489619D01*
X140069235Y-142489619D01*
X140044849Y-142492021D01*
X139999789Y-142510685D01*
X139965301Y-142545173D01*
X139946637Y-142590233D01*
X139944235Y-142614619D01*
X139001356Y-142614619D01*
X139001356Y-142590233D01*
X138982692Y-142545173D01*
X138948204Y-142510685D01*
X138903144Y-142492021D01*
X138878758Y-142489619D01*
X138402568Y-142489619D01*
X138378182Y-142492021D01*
X138333122Y-142510685D01*
X138298634Y-142545173D01*
X138279970Y-142590233D01*
X138277568Y-142614619D01*
X137912677Y-142614619D01*
X137871908Y-142573850D01*
X137852966Y-142558305D01*
X137848816Y-142556586D01*
X137845423Y-142553643D01*
X137823048Y-142543652D01*
X137680191Y-142496034D01*
X137668100Y-142493284D01*
X137665049Y-142492021D01*
X137660626Y-142491585D01*
X137656297Y-142490601D01*
X137653006Y-142490834D01*
X137640663Y-142489619D01*
X137402568Y-142489619D01*
X137378182Y-142492021D01*
X137333122Y-142510685D01*
X137298634Y-142545173D01*
X137279970Y-142590233D01*
X137277568Y-142614619D01*
X136867662Y-142614619D01*
X136854486Y-142575091D01*
X136844496Y-142552716D01*
X136838644Y-142545968D01*
X136834650Y-142537980D01*
X136822812Y-142527713D01*
X136812541Y-142515870D01*
X136804549Y-142511874D01*
X136797804Y-142506024D01*
X136782936Y-142501068D01*
X136768916Y-142494058D01*
X136760006Y-142493424D01*
X136751535Y-142490601D01*
X136735900Y-142491711D01*
X136720267Y-142490601D01*
X136711795Y-142493424D01*
X136702885Y-142494058D01*
X136688863Y-142501069D01*
X136673998Y-142506024D01*
X136667252Y-142511874D01*
X136659261Y-142515870D01*
X136648992Y-142527710D01*
X136637152Y-142537979D01*
X136633156Y-142545969D01*
X136627306Y-142552716D01*
X136617315Y-142575091D01*
X136283983Y-143575091D01*
X136278550Y-143598985D01*
X136194234Y-143598985D01*
X136194234Y-142614619D01*
X136192655Y-142598591D01*
X136192785Y-142595640D01*
X136192208Y-142594054D01*
X136191832Y-142590233D01*
X136183532Y-142570196D01*
X136176117Y-142549803D01*
X136174234Y-142547747D01*
X136173168Y-142545173D01*
X136157830Y-142529835D01*
X136143177Y-142513835D01*
X136140651Y-142512656D01*
X136138680Y-142510685D01*
X136118641Y-142502384D01*
X136098981Y-142493210D01*
X136096194Y-142493087D01*
X136093620Y-142492021D01*
X136071934Y-142492021D01*
X136050256Y-142491068D01*
X136047635Y-142492021D01*
X136044848Y-142492021D01*
X136024804Y-142500323D01*
X136004419Y-142507736D01*
X136002363Y-142509618D01*
X135999788Y-142510685D01*
X135984445Y-142526027D01*
X135968450Y-142540676D01*
X135966492Y-142543980D01*
X135965300Y-142545173D01*
X135964170Y-142547900D01*
X135955961Y-142561758D01*
X135735900Y-143033315D01*
X135515841Y-142561758D01*
X135507631Y-142547900D01*
X135506502Y-142545173D01*
X135505309Y-142543980D01*
X135503352Y-142540676D01*
X135487351Y-142526022D01*
X135472014Y-142510685D01*
X135469439Y-142509618D01*
X135467384Y-142507736D01*
X135446990Y-142500320D01*
X135426954Y-142492021D01*
X135424168Y-142492021D01*
X135421547Y-142491068D01*
X135399868Y-142492021D01*
X135378182Y-142492021D01*
X135375607Y-142493087D01*
X135372821Y-142493210D01*
X135353160Y-142502384D01*
X135333122Y-142510685D01*
X135331150Y-142512656D01*
X135328625Y-142513835D01*
X135313971Y-142529835D01*
X135298634Y-142545173D01*
X135297567Y-142547747D01*
X135295685Y-142549803D01*
X135288269Y-142570196D01*
X135279970Y-142590233D01*
X135279593Y-142594054D01*
X135279017Y-142595640D01*
X135279146Y-142598591D01*
X135277568Y-142614619D01*
X135152568Y-142614619D01*
X135152568Y-142364619D01*
X154319236Y-142364619D01*
X154319236Y-143864619D01*
G37*
D12*
X144143878Y-139576190D02*
X143823878Y-139576190D01*
X143823878Y-139576190D02*
X143823878Y-139500000D01*
X143823878Y-139500000D02*
X143839116Y-139454285D01*
X143839116Y-139454285D02*
X143869592Y-139423809D01*
X143869592Y-139423809D02*
X143900068Y-139408571D01*
X143900068Y-139408571D02*
X143961020Y-139393333D01*
X143961020Y-139393333D02*
X144006735Y-139393333D01*
X144006735Y-139393333D02*
X144067687Y-139408571D01*
X144067687Y-139408571D02*
X144098163Y-139423809D01*
X144098163Y-139423809D02*
X144128640Y-139454285D01*
X144128640Y-139454285D02*
X144143878Y-139500000D01*
X144143878Y-139500000D02*
X144143878Y-139576190D01*
X143823878Y-139103809D02*
X143823878Y-139256190D01*
X143823878Y-139256190D02*
X143976259Y-139271428D01*
X143976259Y-139271428D02*
X143961020Y-139256190D01*
X143961020Y-139256190D02*
X143945782Y-139225714D01*
X143945782Y-139225714D02*
X143945782Y-139149523D01*
X143945782Y-139149523D02*
X143961020Y-139119047D01*
X143961020Y-139119047D02*
X143976259Y-139103809D01*
X143976259Y-139103809D02*
X144006735Y-139088571D01*
X144006735Y-139088571D02*
X144082925Y-139088571D01*
X144082925Y-139088571D02*
X144113401Y-139103809D01*
X144113401Y-139103809D02*
X144128640Y-139119047D01*
X144128640Y-139119047D02*
X144143878Y-139149523D01*
X144143878Y-139149523D02*
X144143878Y-139225714D01*
X144143878Y-139225714D02*
X144128640Y-139256190D01*
X144128640Y-139256190D02*
X144113401Y-139271428D01*
D13*
X157333333Y-134454819D02*
X157000000Y-133978628D01*
X156761905Y-134454819D02*
X156761905Y-133454819D01*
X156761905Y-133454819D02*
X157142857Y-133454819D01*
X157142857Y-133454819D02*
X157238095Y-133502438D01*
X157238095Y-133502438D02*
X157285714Y-133550057D01*
X157285714Y-133550057D02*
X157333333Y-133645295D01*
X157333333Y-133645295D02*
X157333333Y-133788152D01*
X157333333Y-133788152D02*
X157285714Y-133883390D01*
X157285714Y-133883390D02*
X157238095Y-133931009D01*
X157238095Y-133931009D02*
X157142857Y-133978628D01*
X157142857Y-133978628D02*
X156761905Y-133978628D01*
X158190476Y-133454819D02*
X158000000Y-133454819D01*
X158000000Y-133454819D02*
X157904762Y-133502438D01*
X157904762Y-133502438D02*
X157857143Y-133550057D01*
X157857143Y-133550057D02*
X157761905Y-133692914D01*
X157761905Y-133692914D02*
X157714286Y-133883390D01*
X157714286Y-133883390D02*
X157714286Y-134264342D01*
X157714286Y-134264342D02*
X157761905Y-134359580D01*
X157761905Y-134359580D02*
X157809524Y-134407200D01*
X157809524Y-134407200D02*
X157904762Y-134454819D01*
X157904762Y-134454819D02*
X158095238Y-134454819D01*
X158095238Y-134454819D02*
X158190476Y-134407200D01*
X158190476Y-134407200D02*
X158238095Y-134359580D01*
X158238095Y-134359580D02*
X158285714Y-134264342D01*
X158285714Y-134264342D02*
X158285714Y-134026247D01*
X158285714Y-134026247D02*
X158238095Y-133931009D01*
X158238095Y-133931009D02*
X158190476Y-133883390D01*
X158190476Y-133883390D02*
X158095238Y-133835771D01*
X158095238Y-133835771D02*
X157904762Y-133835771D01*
X157904762Y-133835771D02*
X157809524Y-133883390D01*
X157809524Y-133883390D02*
X157761905Y-133931009D01*
X157761905Y-133931009D02*
X157714286Y-134026247D01*
D12*
X149597078Y-139442190D02*
X149277078Y-139442190D01*
X149277078Y-139442190D02*
X149277078Y-139366000D01*
X149277078Y-139366000D02*
X149292316Y-139320285D01*
X149292316Y-139320285D02*
X149322792Y-139289809D01*
X149322792Y-139289809D02*
X149353268Y-139274571D01*
X149353268Y-139274571D02*
X149414220Y-139259333D01*
X149414220Y-139259333D02*
X149459935Y-139259333D01*
X149459935Y-139259333D02*
X149520887Y-139274571D01*
X149520887Y-139274571D02*
X149551363Y-139289809D01*
X149551363Y-139289809D02*
X149581840Y-139320285D01*
X149581840Y-139320285D02*
X149597078Y-139366000D01*
X149597078Y-139366000D02*
X149597078Y-139442190D01*
X149383744Y-138985047D02*
X149597078Y-138985047D01*
X149261840Y-139061238D02*
X149490411Y-139137428D01*
X149490411Y-139137428D02*
X149490411Y-138939333D01*
D13*
X144954819Y-132666666D02*
X144478628Y-132999999D01*
X144954819Y-133238094D02*
X143954819Y-133238094D01*
X143954819Y-133238094D02*
X143954819Y-132857142D01*
X143954819Y-132857142D02*
X144002438Y-132761904D01*
X144002438Y-132761904D02*
X144050057Y-132714285D01*
X144050057Y-132714285D02*
X144145295Y-132666666D01*
X144145295Y-132666666D02*
X144288152Y-132666666D01*
X144288152Y-132666666D02*
X144383390Y-132714285D01*
X144383390Y-132714285D02*
X144431009Y-132761904D01*
X144431009Y-132761904D02*
X144478628Y-132857142D01*
X144478628Y-132857142D02*
X144478628Y-133238094D01*
X144954819Y-131714285D02*
X144954819Y-132285713D01*
X144954819Y-131999999D02*
X143954819Y-131999999D01*
X143954819Y-131999999D02*
X144097676Y-132095237D01*
X144097676Y-132095237D02*
X144192914Y-132190475D01*
X144192914Y-132190475D02*
X144240533Y-132285713D01*
X152238095Y-132204819D02*
X152238095Y-133014342D01*
X152238095Y-133014342D02*
X152285714Y-133109580D01*
X152285714Y-133109580D02*
X152333333Y-133157200D01*
X152333333Y-133157200D02*
X152428571Y-133204819D01*
X152428571Y-133204819D02*
X152619047Y-133204819D01*
X152619047Y-133204819D02*
X152714285Y-133157200D01*
X152714285Y-133157200D02*
X152761904Y-133109580D01*
X152761904Y-133109580D02*
X152809523Y-133014342D01*
X152809523Y-133014342D02*
X152809523Y-132204819D01*
X153809523Y-133204819D02*
X153238095Y-133204819D01*
X153523809Y-133204819D02*
X153523809Y-132204819D01*
X153523809Y-132204819D02*
X153428571Y-132347676D01*
X153428571Y-132347676D02*
X153333333Y-132442914D01*
X153333333Y-132442914D02*
X153238095Y-132490533D01*
X156916905Y-131904819D02*
X156916905Y-130904819D01*
X156916905Y-130904819D02*
X157155000Y-130904819D01*
X157155000Y-130904819D02*
X157297857Y-130952438D01*
X157297857Y-130952438D02*
X157393095Y-131047676D01*
X157393095Y-131047676D02*
X157440714Y-131142914D01*
X157440714Y-131142914D02*
X157488333Y-131333390D01*
X157488333Y-131333390D02*
X157488333Y-131476247D01*
X157488333Y-131476247D02*
X157440714Y-131666723D01*
X157440714Y-131666723D02*
X157393095Y-131761961D01*
X157393095Y-131761961D02*
X157297857Y-131857200D01*
X157297857Y-131857200D02*
X157155000Y-131904819D01*
X157155000Y-131904819D02*
X156916905Y-131904819D01*
X158440714Y-131904819D02*
X157869286Y-131904819D01*
X158155000Y-131904819D02*
X158155000Y-130904819D01*
X158155000Y-130904819D02*
X158059762Y-131047676D01*
X158059762Y-131047676D02*
X157964524Y-131142914D01*
X157964524Y-131142914D02*
X157869286Y-131190533D01*
X152833333Y-140954819D02*
X152500000Y-140478628D01*
X152261905Y-140954819D02*
X152261905Y-139954819D01*
X152261905Y-139954819D02*
X152642857Y-139954819D01*
X152642857Y-139954819D02*
X152738095Y-140002438D01*
X152738095Y-140002438D02*
X152785714Y-140050057D01*
X152785714Y-140050057D02*
X152833333Y-140145295D01*
X152833333Y-140145295D02*
X152833333Y-140288152D01*
X152833333Y-140288152D02*
X152785714Y-140383390D01*
X152785714Y-140383390D02*
X152738095Y-140431009D01*
X152738095Y-140431009D02*
X152642857Y-140478628D01*
X152642857Y-140478628D02*
X152261905Y-140478628D01*
X153166667Y-139954819D02*
X153785714Y-139954819D01*
X153785714Y-139954819D02*
X153452381Y-140335771D01*
X153452381Y-140335771D02*
X153595238Y-140335771D01*
X153595238Y-140335771D02*
X153690476Y-140383390D01*
X153690476Y-140383390D02*
X153738095Y-140431009D01*
X153738095Y-140431009D02*
X153785714Y-140526247D01*
X153785714Y-140526247D02*
X153785714Y-140764342D01*
X153785714Y-140764342D02*
X153738095Y-140859580D01*
X153738095Y-140859580D02*
X153690476Y-140907200D01*
X153690476Y-140907200D02*
X153595238Y-140954819D01*
X153595238Y-140954819D02*
X153309524Y-140954819D01*
X153309524Y-140954819D02*
X153214286Y-140907200D01*
X153214286Y-140907200D02*
X153166667Y-140859580D01*
X143099819Y-137333333D02*
X143814104Y-137333333D01*
X143814104Y-137333333D02*
X143956961Y-137380952D01*
X143956961Y-137380952D02*
X144052200Y-137476190D01*
X144052200Y-137476190D02*
X144099819Y-137619047D01*
X144099819Y-137619047D02*
X144099819Y-137714285D01*
X144099819Y-136333333D02*
X144099819Y-136904761D01*
X144099819Y-136619047D02*
X143099819Y-136619047D01*
X143099819Y-136619047D02*
X143242676Y-136714285D01*
X143242676Y-136714285D02*
X143337914Y-136809523D01*
X143337914Y-136809523D02*
X143385533Y-136904761D01*
X147909580Y-136666666D02*
X147957200Y-136714285D01*
X147957200Y-136714285D02*
X148004819Y-136857142D01*
X148004819Y-136857142D02*
X148004819Y-136952380D01*
X148004819Y-136952380D02*
X147957200Y-137095237D01*
X147957200Y-137095237D02*
X147861961Y-137190475D01*
X147861961Y-137190475D02*
X147766723Y-137238094D01*
X147766723Y-137238094D02*
X147576247Y-137285713D01*
X147576247Y-137285713D02*
X147433390Y-137285713D01*
X147433390Y-137285713D02*
X147242914Y-137238094D01*
X147242914Y-137238094D02*
X147147676Y-137190475D01*
X147147676Y-137190475D02*
X147052438Y-137095237D01*
X147052438Y-137095237D02*
X147004819Y-136952380D01*
X147004819Y-136952380D02*
X147004819Y-136857142D01*
X147004819Y-136857142D02*
X147052438Y-136714285D01*
X147052438Y-136714285D02*
X147100057Y-136666666D01*
X148004819Y-135714285D02*
X148004819Y-136285713D01*
X148004819Y-135999999D02*
X147004819Y-135999999D01*
X147004819Y-135999999D02*
X147147676Y-136095237D01*
X147147676Y-136095237D02*
X147242914Y-136190475D01*
X147242914Y-136190475D02*
X147290533Y-136285713D01*
X157333333Y-139504819D02*
X157000000Y-139028628D01*
X156761905Y-139504819D02*
X156761905Y-138504819D01*
X156761905Y-138504819D02*
X157142857Y-138504819D01*
X157142857Y-138504819D02*
X157238095Y-138552438D01*
X157238095Y-138552438D02*
X157285714Y-138600057D01*
X157285714Y-138600057D02*
X157333333Y-138695295D01*
X157333333Y-138695295D02*
X157333333Y-138838152D01*
X157333333Y-138838152D02*
X157285714Y-138933390D01*
X157285714Y-138933390D02*
X157238095Y-138981009D01*
X157238095Y-138981009D02*
X157142857Y-139028628D01*
X157142857Y-139028628D02*
X156761905Y-139028628D01*
X157666667Y-138504819D02*
X158333333Y-138504819D01*
X158333333Y-138504819D02*
X157904762Y-139504819D01*
X156761905Y-137454819D02*
X156761905Y-136454819D01*
X156761905Y-136454819D02*
X157000000Y-136454819D01*
X157000000Y-136454819D02*
X157142857Y-136502438D01*
X157142857Y-136502438D02*
X157238095Y-136597676D01*
X157238095Y-136597676D02*
X157285714Y-136692914D01*
X157285714Y-136692914D02*
X157333333Y-136883390D01*
X157333333Y-136883390D02*
X157333333Y-137026247D01*
X157333333Y-137026247D02*
X157285714Y-137216723D01*
X157285714Y-137216723D02*
X157238095Y-137311961D01*
X157238095Y-137311961D02*
X157142857Y-137407200D01*
X157142857Y-137407200D02*
X157000000Y-137454819D01*
X157000000Y-137454819D02*
X156761905Y-137454819D01*
X157714286Y-136550057D02*
X157761905Y-136502438D01*
X157761905Y-136502438D02*
X157857143Y-136454819D01*
X157857143Y-136454819D02*
X158095238Y-136454819D01*
X158095238Y-136454819D02*
X158190476Y-136502438D01*
X158190476Y-136502438D02*
X158238095Y-136550057D01*
X158238095Y-136550057D02*
X158285714Y-136645295D01*
X158285714Y-136645295D02*
X158285714Y-136740533D01*
X158285714Y-136740533D02*
X158238095Y-136883390D01*
X158238095Y-136883390D02*
X157666667Y-137454819D01*
X157666667Y-137454819D02*
X158285714Y-137454819D01*
X147859580Y-132666666D02*
X147907200Y-132714285D01*
X147907200Y-132714285D02*
X147954819Y-132857142D01*
X147954819Y-132857142D02*
X147954819Y-132952380D01*
X147954819Y-132952380D02*
X147907200Y-133095237D01*
X147907200Y-133095237D02*
X147811961Y-133190475D01*
X147811961Y-133190475D02*
X147716723Y-133238094D01*
X147716723Y-133238094D02*
X147526247Y-133285713D01*
X147526247Y-133285713D02*
X147383390Y-133285713D01*
X147383390Y-133285713D02*
X147192914Y-133238094D01*
X147192914Y-133238094D02*
X147097676Y-133190475D01*
X147097676Y-133190475D02*
X147002438Y-133095237D01*
X147002438Y-133095237D02*
X146954819Y-132952380D01*
X146954819Y-132952380D02*
X146954819Y-132857142D01*
X146954819Y-132857142D02*
X147002438Y-132714285D01*
X147002438Y-132714285D02*
X147050057Y-132666666D01*
X147288152Y-131809523D02*
X147954819Y-131809523D01*
X146907200Y-132047618D02*
X147621485Y-132285713D01*
X147621485Y-132285713D02*
X147621485Y-131666666D01*
X157333333Y-141504819D02*
X157000000Y-141028628D01*
X156761905Y-141504819D02*
X156761905Y-140504819D01*
X156761905Y-140504819D02*
X157142857Y-140504819D01*
X157142857Y-140504819D02*
X157238095Y-140552438D01*
X157238095Y-140552438D02*
X157285714Y-140600057D01*
X157285714Y-140600057D02*
X157333333Y-140695295D01*
X157333333Y-140695295D02*
X157333333Y-140838152D01*
X157333333Y-140838152D02*
X157285714Y-140933390D01*
X157285714Y-140933390D02*
X157238095Y-140981009D01*
X157238095Y-140981009D02*
X157142857Y-141028628D01*
X157142857Y-141028628D02*
X156761905Y-141028628D01*
X158190476Y-140838152D02*
X158190476Y-141504819D01*
X157952381Y-140457200D02*
X157714286Y-141171485D01*
X157714286Y-141171485D02*
X158333333Y-141171485D01*
X146454819Y-132666666D02*
X145978628Y-132999999D01*
X146454819Y-133238094D02*
X145454819Y-133238094D01*
X145454819Y-133238094D02*
X145454819Y-132857142D01*
X145454819Y-132857142D02*
X145502438Y-132761904D01*
X145502438Y-132761904D02*
X145550057Y-132714285D01*
X145550057Y-132714285D02*
X145645295Y-132666666D01*
X145645295Y-132666666D02*
X145788152Y-132666666D01*
X145788152Y-132666666D02*
X145883390Y-132714285D01*
X145883390Y-132714285D02*
X145931009Y-132761904D01*
X145931009Y-132761904D02*
X145978628Y-132857142D01*
X145978628Y-132857142D02*
X145978628Y-133238094D01*
X145550057Y-132285713D02*
X145502438Y-132238094D01*
X145502438Y-132238094D02*
X145454819Y-132142856D01*
X145454819Y-132142856D02*
X145454819Y-131904761D01*
X145454819Y-131904761D02*
X145502438Y-131809523D01*
X145502438Y-131809523D02*
X145550057Y-131761904D01*
X145550057Y-131761904D02*
X145645295Y-131714285D01*
X145645295Y-131714285D02*
X145740533Y-131714285D01*
X145740533Y-131714285D02*
X145883390Y-131761904D01*
X145883390Y-131761904D02*
X146454819Y-132333332D01*
X146454819Y-132333332D02*
X146454819Y-131714285D01*
X149359580Y-132666666D02*
X149407200Y-132714285D01*
X149407200Y-132714285D02*
X149454819Y-132857142D01*
X149454819Y-132857142D02*
X149454819Y-132952380D01*
X149454819Y-132952380D02*
X149407200Y-133095237D01*
X149407200Y-133095237D02*
X149311961Y-133190475D01*
X149311961Y-133190475D02*
X149216723Y-133238094D01*
X149216723Y-133238094D02*
X149026247Y-133285713D01*
X149026247Y-133285713D02*
X148883390Y-133285713D01*
X148883390Y-133285713D02*
X148692914Y-133238094D01*
X148692914Y-133238094D02*
X148597676Y-133190475D01*
X148597676Y-133190475D02*
X148502438Y-133095237D01*
X148502438Y-133095237D02*
X148454819Y-132952380D01*
X148454819Y-132952380D02*
X148454819Y-132857142D01*
X148454819Y-132857142D02*
X148502438Y-132714285D01*
X148502438Y-132714285D02*
X148550057Y-132666666D01*
X148454819Y-132333332D02*
X148454819Y-131714285D01*
X148454819Y-131714285D02*
X148835771Y-132047618D01*
X148835771Y-132047618D02*
X148835771Y-131904761D01*
X148835771Y-131904761D02*
X148883390Y-131809523D01*
X148883390Y-131809523D02*
X148931009Y-131761904D01*
X148931009Y-131761904D02*
X149026247Y-131714285D01*
X149026247Y-131714285D02*
X149264342Y-131714285D01*
X149264342Y-131714285D02*
X149359580Y-131761904D01*
X149359580Y-131761904D02*
X149407200Y-131809523D01*
X149407200Y-131809523D02*
X149454819Y-131904761D01*
X149454819Y-131904761D02*
X149454819Y-132190475D01*
X149454819Y-132190475D02*
X149407200Y-132285713D01*
X149407200Y-132285713D02*
X149359580Y-132333332D01*
D12*
X146190678Y-139576190D02*
X145870678Y-139576190D01*
X145870678Y-139576190D02*
X145870678Y-139500000D01*
X145870678Y-139500000D02*
X145885916Y-139454285D01*
X145885916Y-139454285D02*
X145916392Y-139423809D01*
X145916392Y-139423809D02*
X145946868Y-139408571D01*
X145946868Y-139408571D02*
X146007820Y-139393333D01*
X146007820Y-139393333D02*
X146053535Y-139393333D01*
X146053535Y-139393333D02*
X146114487Y-139408571D01*
X146114487Y-139408571D02*
X146144963Y-139423809D01*
X146144963Y-139423809D02*
X146175440Y-139454285D01*
X146175440Y-139454285D02*
X146190678Y-139500000D01*
X146190678Y-139500000D02*
X146190678Y-139576190D01*
X145870678Y-139286666D02*
X145870678Y-139088571D01*
X145870678Y-139088571D02*
X145992582Y-139195238D01*
X145992582Y-139195238D02*
X145992582Y-139149523D01*
X145992582Y-139149523D02*
X146007820Y-139119047D01*
X146007820Y-139119047D02*
X146023059Y-139103809D01*
X146023059Y-139103809D02*
X146053535Y-139088571D01*
X146053535Y-139088571D02*
X146129725Y-139088571D01*
X146129725Y-139088571D02*
X146160201Y-139103809D01*
X146160201Y-139103809D02*
X146175440Y-139119047D01*
X146175440Y-139119047D02*
X146190678Y-139149523D01*
X146190678Y-139149523D02*
X146190678Y-139240952D01*
X146190678Y-139240952D02*
X146175440Y-139271428D01*
X146175440Y-139271428D02*
X146160201Y-139286666D01*
D13*
X150859580Y-132321666D02*
X150907200Y-132369285D01*
X150907200Y-132369285D02*
X150954819Y-132512142D01*
X150954819Y-132512142D02*
X150954819Y-132607380D01*
X150954819Y-132607380D02*
X150907200Y-132750237D01*
X150907200Y-132750237D02*
X150811961Y-132845475D01*
X150811961Y-132845475D02*
X150716723Y-132893094D01*
X150716723Y-132893094D02*
X150526247Y-132940713D01*
X150526247Y-132940713D02*
X150383390Y-132940713D01*
X150383390Y-132940713D02*
X150192914Y-132893094D01*
X150192914Y-132893094D02*
X150097676Y-132845475D01*
X150097676Y-132845475D02*
X150002438Y-132750237D01*
X150002438Y-132750237D02*
X149954819Y-132607380D01*
X149954819Y-132607380D02*
X149954819Y-132512142D01*
X149954819Y-132512142D02*
X150002438Y-132369285D01*
X150002438Y-132369285D02*
X150050057Y-132321666D01*
X150050057Y-131940713D02*
X150002438Y-131893094D01*
X150002438Y-131893094D02*
X149954819Y-131797856D01*
X149954819Y-131797856D02*
X149954819Y-131559761D01*
X149954819Y-131559761D02*
X150002438Y-131464523D01*
X150002438Y-131464523D02*
X150050057Y-131416904D01*
X150050057Y-131416904D02*
X150145295Y-131369285D01*
X150145295Y-131369285D02*
X150240533Y-131369285D01*
X150240533Y-131369285D02*
X150383390Y-131416904D01*
X150383390Y-131416904D02*
X150954819Y-131988332D01*
X150954819Y-131988332D02*
X150954819Y-131369285D01*
X157333333Y-143504819D02*
X157000000Y-143028628D01*
X156761905Y-143504819D02*
X156761905Y-142504819D01*
X156761905Y-142504819D02*
X157142857Y-142504819D01*
X157142857Y-142504819D02*
X157238095Y-142552438D01*
X157238095Y-142552438D02*
X157285714Y-142600057D01*
X157285714Y-142600057D02*
X157333333Y-142695295D01*
X157333333Y-142695295D02*
X157333333Y-142838152D01*
X157333333Y-142838152D02*
X157285714Y-142933390D01*
X157285714Y-142933390D02*
X157238095Y-142981009D01*
X157238095Y-142981009D02*
X157142857Y-143028628D01*
X157142857Y-143028628D02*
X156761905Y-143028628D01*
X158238095Y-142504819D02*
X157761905Y-142504819D01*
X157761905Y-142504819D02*
X157714286Y-142981009D01*
X157714286Y-142981009D02*
X157761905Y-142933390D01*
X157761905Y-142933390D02*
X157857143Y-142885771D01*
X157857143Y-142885771D02*
X158095238Y-142885771D01*
X158095238Y-142885771D02*
X158190476Y-142933390D01*
X158190476Y-142933390D02*
X158238095Y-142981009D01*
X158238095Y-142981009D02*
X158285714Y-143076247D01*
X158285714Y-143076247D02*
X158285714Y-143314342D01*
X158285714Y-143314342D02*
X158238095Y-143409580D01*
X158238095Y-143409580D02*
X158190476Y-143457200D01*
X158190476Y-143457200D02*
X158095238Y-143504819D01*
X158095238Y-143504819D02*
X157857143Y-143504819D01*
X157857143Y-143504819D02*
X157761905Y-143457200D01*
X157761905Y-143457200D02*
X157714286Y-143409580D01*
%TO.C,J2*%
D14*
X162355000Y-130655000D02*
X163625000Y-130655000D01*
X162355000Y-131925000D02*
X162355000Y-130655000D01*
X164667929Y-134085000D02*
X165065000Y-134085000D01*
X164667929Y-134845000D02*
X165065000Y-134845000D01*
X164667929Y-136625000D02*
X165065000Y-136625000D01*
X164667929Y-137385000D02*
X165065000Y-137385000D01*
X164667929Y-139165000D02*
X165065000Y-139165000D01*
X164667929Y-139925000D02*
X165065000Y-139925000D01*
X164667929Y-141705000D02*
X165065000Y-141705000D01*
X164667929Y-142465000D02*
X165065000Y-142465000D01*
X164735000Y-131545000D02*
X165065000Y-131545000D01*
X164735000Y-132305000D02*
X165065000Y-132305000D01*
X165065000Y-130595000D02*
X165065000Y-143415000D01*
X165065000Y-133195000D02*
X167725000Y-133195000D01*
X165065000Y-135735000D02*
X167725000Y-135735000D01*
X165065000Y-138275000D02*
X167725000Y-138275000D01*
X165065000Y-140815000D02*
X167725000Y-140815000D01*
X165065000Y-143415000D02*
X167725000Y-143415000D01*
X167725000Y-130595000D02*
X165065000Y-130595000D01*
X167725000Y-131545000D02*
X173725000Y-131545000D01*
X167725000Y-131605000D02*
X173725000Y-131605000D01*
X167725000Y-131725000D02*
X173725000Y-131725000D01*
X167725000Y-131845000D02*
X173725000Y-131845000D01*
X167725000Y-131965000D02*
X173725000Y-131965000D01*
X167725000Y-132085000D02*
X173725000Y-132085000D01*
X167725000Y-132205000D02*
X173725000Y-132205000D01*
X167725000Y-134085000D02*
X173725000Y-134085000D01*
X167725000Y-136625000D02*
X173725000Y-136625000D01*
X167725000Y-139165000D02*
X173725000Y-139165000D01*
X167725000Y-141705000D02*
X173725000Y-141705000D01*
X167725000Y-143415000D02*
X167725000Y-130595000D01*
X173725000Y-131545000D02*
X173725000Y-132305000D01*
X173725000Y-132305000D02*
X167725000Y-132305000D01*
X173725000Y-134085000D02*
X173725000Y-134845000D01*
X173725000Y-134845000D02*
X167725000Y-134845000D01*
X173725000Y-136625000D02*
X173725000Y-137385000D01*
X173725000Y-137385000D02*
X167725000Y-137385000D01*
X173725000Y-139165000D02*
X173725000Y-139925000D01*
X173725000Y-139925000D02*
X167725000Y-139925000D01*
X173725000Y-141705000D02*
X173725000Y-142465000D01*
X173725000Y-142465000D02*
X167725000Y-142465000D01*
%TO.C,D5*%
D15*
X144480000Y-139940000D02*
X144480000Y-138740000D01*
X145520000Y-138740000D02*
X145520000Y-139940000D01*
D16*
X145100000Y-137840000D02*
G75*
G02*
X144900000Y-137840000I-100000J0D01*
G01*
X144900000Y-137840000D02*
G75*
G02*
X145100000Y-137840000I100000J0D01*
G01*
%TO.C,D4*%
D15*
X147980000Y-139940000D02*
X147980000Y-138740000D01*
X149020000Y-138740000D02*
X149020000Y-139940000D01*
D16*
X148600000Y-137840000D02*
G75*
G02*
X148400000Y-137840000I-100000J0D01*
G01*
X148400000Y-137840000D02*
G75*
G02*
X148600000Y-137840000I100000J0D01*
G01*
%TO.C,U1*%
D14*
X150390000Y-134665000D02*
X150390000Y-134180000D01*
X150390000Y-139160000D02*
X150390000Y-138435000D01*
X151115000Y-133940000D02*
X150690000Y-133940000D01*
X151115000Y-139160000D02*
X150390000Y-139160000D01*
X154885000Y-133940000D02*
X155610000Y-133940000D01*
X154885000Y-139160000D02*
X155610000Y-139160000D01*
X155610000Y-133940000D02*
X155610000Y-134665000D01*
X155610000Y-139160000D02*
X155610000Y-138435000D01*
X150390000Y-133940000D02*
X150150000Y-133610000D01*
X150630000Y-133610000D01*
X150390000Y-133940000D01*
G36*
X150390000Y-133940000D02*
G01*
X150150000Y-133610000D01*
X150630000Y-133610000D01*
X150390000Y-133940000D01*
G37*
%TO.C,D1*%
D10*
X156845000Y-132500000D02*
G75*
G02*
X156745000Y-132500000I-50000J0D01*
G01*
X156745000Y-132500000D02*
G75*
G02*
X156845000Y-132500000I50000J0D01*
G01*
%TO.C,J1*%
D14*
X134100000Y-132300000D02*
X134100000Y-141700000D01*
X136000000Y-132300000D02*
X134100000Y-132300000D01*
X136000000Y-141700000D02*
X134100000Y-141700000D01*
X139900000Y-132300000D02*
X137900000Y-132300000D01*
X139900000Y-141700000D02*
X137900000Y-141700000D01*
%TO.C,D2*%
D10*
X156690000Y-136000000D02*
G75*
G02*
X156590000Y-136000000I-50000J0D01*
G01*
X156590000Y-136000000D02*
G75*
G02*
X156690000Y-136000000I50000J0D01*
G01*
%TO.C,D3*%
D15*
X146480000Y-139940000D02*
X146480000Y-138740000D01*
X147520000Y-138740000D02*
X147520000Y-139940000D01*
D16*
X147100000Y-140840000D02*
G75*
G02*
X146900000Y-140840000I-100000J0D01*
G01*
X146900000Y-140840000D02*
G75*
G02*
X147100000Y-140840000I100000J0D01*
G01*
%TD*%
M02*
