M48
; DRILL file KiCad 10.0.4 date 2026-08-17T17:13:07
; FORMAT={-:-/ absolute / metric / decimal}
; #@! TF.CreationDate,2026-08-17T17:13:07+05:30
; #@! TF.GenerationSoftware,Kicad,Pcbnew,10.0.4
; #@! TF.FileFunction,MixedPlating,1,2
FMAT,2
METRIC
; #@! TA.AperFunction,Plated,PTH,ViaDrill
T1C0.300
; #@! TA.AperFunction,Plated,PTH,ComponentDrill
T2C0.600
; #@! TA.AperFunction,Plated,PTH,ComponentDrill
T3C1.000
; #@! TA.AperFunction,NonPlated,NPTH,ComponentDrill
T4C0.650
%
G90
G05
T1
X139.5Y-136.75
X143.75Y-137.25
X144.75Y-136.25
X145.0Y-137.5
X146.0Y-140.0
X146.75Y-134.25
X147.0Y-137.75
X147.75Y-136.25
X148.5Y-137.75
X149.0Y-135.75
X149.5Y-141.0
X150.75Y-139.75
X151.75Y-135.25
X151.75Y-136.75
X151.75Y-137.75
X152.0Y-136.0
X152.0Y-137.25
X152.25Y-135.25
X152.25Y-136.5
X152.5Y-135.75
X152.5Y-137.0
X152.5Y-137.5
X152.75Y-136.0
X153.0Y-135.25
X153.0Y-136.5
X153.0Y-137.0
X153.0Y-137.75
X153.25Y-135.75
X153.25Y-136.25
X153.5Y-136.75
X153.5Y-137.5
X153.75Y-135.25
X153.75Y-136.0
X153.75Y-136.5
X153.75Y-137.0
X154.25Y-135.25
X154.25Y-136.0
X154.25Y-137.25
X154.25Y-137.75
X155.25Y-131.75
X155.75Y-142.75
X156.5Y-135.5
X156.75Y-132.5
X158.75Y-141.25
T3
X163.625Y-131.925
X163.625Y-134.465
X163.625Y-137.005
X163.625Y-139.545
X163.625Y-142.085
T4
X140.6Y-134.11
X140.6Y-139.89
T2
X137.25Y-132.68G85X136.65Y-132.68
G05
X137.25Y-141.32G85X136.65Y-141.32
G05
X141.68Y-132.68G85X140.58Y-132.68
G05
X141.68Y-141.32G85X140.58Y-141.32
G05
M30
