%TF.GenerationSoftware,KiCad,Pcbnew,10.0.4*%
%TF.CreationDate,2026-08-17T17:13:02+05:30*%
%TF.ProjectId,USB to UART converter,55534220-746f-4205-9541-525420636f6e,rev?*%
%TF.SameCoordinates,Original*%
%TF.FileFunction,Copper,L2,Bot*%
%TF.FilePolarity,Positive*%
%FSLAX46Y46*%
G04 Gerber Fmt 4.6, Leading zero omitted, Abs format (unit mm)*
G04 Created by KiCad (PCBNEW 10.0.4) date 2026-08-17 17:13:02*
%MOMM*%
%LPD*%
G01*
G04 APERTURE LIST*
%TA.AperFunction,ComponentPad*%
%ADD10R,1.700000X1.700000*%
%TD*%
%TA.AperFunction,ComponentPad*%
%ADD11O,1.700000X1.700000*%
%TD*%
%TA.AperFunction,ComponentPad*%
%ADD12O,2.100000X1.000000*%
%TD*%
%TA.AperFunction,ComponentPad*%
%ADD13O,1.600000X1.000000*%
%TD*%
%TA.AperFunction,ViaPad*%
%ADD14C,0.600000*%
%TD*%
%TA.AperFunction,Conductor*%
%ADD15C,0.200000*%
%TD*%
%TA.AperFunction,Conductor*%
%ADD16C,0.300000*%
%TD*%
G04 APERTURE END LIST*
D10*
%TO.P,J2,1,Pin_1*%
%TO.N,GND*%
X163625000Y-131925000D03*
D11*
%TO.P,J2,2,Pin_2*%
%TO.N,/VBUS*%
X163625000Y-134465000D03*
%TO.P,J2,3,Pin_3*%
%TO.N,/RX*%
X163625000Y-137005000D03*
%TO.P,J2,4,Pin_4*%
%TO.N,/TX*%
X163625000Y-139545000D03*
%TO.P,J2,5,Pin_5*%
%TO.N,/RST*%
X163625000Y-142085000D03*
%TD*%
D12*
%TO.P,J1,S1,SHIELD*%
%TO.N,GND*%
X141130000Y-132680000D03*
D13*
X136950000Y-132680000D03*
D12*
X141130000Y-141320000D03*
D13*
X136950000Y-141320000D03*
%TD*%
D14*
%TO.N,GND*%
X151750000Y-137750000D03*
X153000000Y-135250000D03*
X153000000Y-137000000D03*
X152250000Y-136500000D03*
X153500000Y-136750000D03*
X152500000Y-135750000D03*
X152250000Y-135250000D03*
X154250000Y-137250000D03*
X146750000Y-134250000D03*
X152750000Y-136000000D03*
X153250000Y-136250000D03*
X152500000Y-137000000D03*
X154250000Y-136000000D03*
X154250000Y-135250000D03*
X153750000Y-136000000D03*
X153250000Y-135750000D03*
X153000000Y-136500000D03*
X152500000Y-137500000D03*
X152000000Y-137250000D03*
X153000000Y-137750000D03*
X153500000Y-137500000D03*
X151750000Y-135250000D03*
X146000000Y-140000000D03*
X154250000Y-137750000D03*
X153750000Y-137000000D03*
X151750000Y-136750000D03*
X153750000Y-136500000D03*
X153750000Y-135250000D03*
X152000000Y-136000000D03*
%TO.N,Net-(U1-VDD)*%
X149500000Y-141000000D03*
X147750000Y-136250000D03*
%TO.N,/RST*%
X155250000Y-131750000D03*
%TO.N,/VBUS*%
X150750000Y-139750000D03*
X149000000Y-135750000D03*
X139500000Y-136750000D03*
%TO.N,Net-(D1-K)*%
X158750000Y-141250000D03*
X156750000Y-132500000D03*
%TO.N,Net-(D2-K)*%
X156500000Y-135500000D03*
X155750000Y-142750000D03*
%TO.N,/D+*%
X147000000Y-137750000D03*
X143750000Y-137250000D03*
%TO.N,/D-*%
X148500000Y-137750000D03*
X144750000Y-136250000D03*
%TO.N,Net-(J1-CC2)*%
X145000000Y-137500000D03*
%TD*%
%TO.N,GND*%
D15*
X143250000Y-134250000D02*
X146750000Y-134250000D01*
X142750000Y-138750000D02*
X142750000Y-134750000D01*
X144000000Y-140000000D02*
X142750000Y-138750000D01*
X146000000Y-140000000D02*
X144000000Y-140000000D01*
X142750000Y-134750000D02*
X143250000Y-134250000D01*
%TO.N,Net-(U1-VDD)*%
X149500000Y-137750000D02*
X148000000Y-136250000D01*
X148000000Y-136250000D02*
X147750000Y-136250000D01*
X149500000Y-141000000D02*
X149500000Y-137750000D01*
%TO.N,/RST*%
X162085000Y-142085000D02*
X161500000Y-141500000D01*
X160500000Y-131750000D02*
X155250000Y-131750000D01*
X163625000Y-142085000D02*
X162085000Y-142085000D01*
X161500000Y-132750000D02*
X160500000Y-131750000D01*
X161500000Y-141500000D02*
X161500000Y-132750000D01*
%TO.N,/VBUS*%
D16*
X140000000Y-131000000D02*
X148000000Y-131000000D01*
X148000000Y-131000000D02*
X149000000Y-132000000D01*
X139500000Y-136750000D02*
X139000000Y-136250000D01*
X149000000Y-132000000D02*
X149000000Y-135750000D01*
X139000000Y-136250000D02*
X139000000Y-132000000D01*
X139000000Y-132000000D02*
X140000000Y-131000000D01*
D15*
X150750000Y-137500000D02*
X149000000Y-135750000D01*
X150750000Y-139750000D02*
X150750000Y-137500000D01*
%TO.N,Net-(D1-K)*%
X158000000Y-132500000D02*
X156750000Y-132500000D01*
X158750000Y-133250000D02*
X158000000Y-132500000D01*
X158750000Y-141250000D02*
X158750000Y-133250000D01*
%TO.N,Net-(D2-K)*%
X155750000Y-142750000D02*
X155750000Y-139750000D01*
X156750000Y-138750000D02*
X156750000Y-135750000D01*
X156750000Y-135750000D02*
X156500000Y-135500000D01*
X155750000Y-139750000D02*
X156750000Y-138750000D01*
%TO.N,/D+*%
X146250000Y-138500000D02*
X147000000Y-137750000D01*
X144500000Y-138500000D02*
X146250000Y-138500000D01*
X143750000Y-137750000D02*
X144500000Y-138500000D01*
X143750000Y-137250000D02*
X143750000Y-137750000D01*
%TO.N,/D-*%
X145500000Y-137000000D02*
X144750000Y-136250000D01*
X148500000Y-137750000D02*
X147750000Y-137000000D01*
X147750000Y-137000000D02*
X145500000Y-137000000D01*
%TD*%
%TA.AperFunction,Conductor*%
%TO.N,GND*%
G36*
X164006922Y-130001280D02*
G01*
X164097266Y-130011459D01*
X164124331Y-130017636D01*
X164203540Y-130045352D01*
X164228553Y-130057398D01*
X164299606Y-130102043D01*
X164321313Y-130119355D01*
X164380644Y-130178686D01*
X164397957Y-130200395D01*
X164442600Y-130271444D01*
X164454648Y-130296462D01*
X164482362Y-130375666D01*
X164488540Y-130402735D01*
X164492414Y-130437115D01*
X164480360Y-130505937D01*
X164433011Y-130557317D01*
X164369194Y-130575000D01*
X163875000Y-130575000D01*
X163875000Y-131491988D01*
X163817993Y-131459075D01*
X163690826Y-131425000D01*
X163559174Y-131425000D01*
X163432007Y-131459075D01*
X163375000Y-131491988D01*
X163375000Y-130575000D01*
X162727155Y-130575000D01*
X162667627Y-130581401D01*
X162667620Y-130581403D01*
X162532913Y-130631645D01*
X162532906Y-130631649D01*
X162417812Y-130717809D01*
X162417809Y-130717812D01*
X162331649Y-130832906D01*
X162331645Y-130832913D01*
X162281403Y-130967620D01*
X162281401Y-130967627D01*
X162275000Y-131027155D01*
X162275000Y-131675000D01*
X163191988Y-131675000D01*
X163159075Y-131732007D01*
X163125000Y-131859174D01*
X163125000Y-131990826D01*
X163159075Y-132117993D01*
X163191988Y-132175000D01*
X162275000Y-132175000D01*
X162275000Y-132428565D01*
X162255315Y-132495604D01*
X162202511Y-132541359D01*
X162133353Y-132551303D01*
X162069797Y-132522278D01*
X162043613Y-132490564D01*
X161980524Y-132381290D01*
X161980518Y-132381282D01*
X160987590Y-131388355D01*
X160987588Y-131388352D01*
X160868717Y-131269481D01*
X160868709Y-131269475D01*
X160766936Y-131210717D01*
X160766934Y-131210716D01*
X160731790Y-131190425D01*
X160731789Y-131190424D01*
X160719263Y-131187067D01*
X160579057Y-131149499D01*
X160420943Y-131149499D01*
X160413347Y-131149499D01*
X160413331Y-131149500D01*
X155832412Y-131149500D01*
X155765373Y-131129815D01*
X155755097Y-131122445D01*
X155752263Y-131120185D01*
X155752262Y-131120184D01*
X155695496Y-131084515D01*
X155599523Y-131024211D01*
X155429254Y-130964631D01*
X155429249Y-130964630D01*
X155250004Y-130944435D01*
X155249996Y-130944435D01*
X155070750Y-130964630D01*
X155070745Y-130964631D01*
X154900476Y-131024211D01*
X154747737Y-131120184D01*
X154620184Y-131247737D01*
X154524211Y-131400476D01*
X154464631Y-131570745D01*
X154464630Y-131570750D01*
X154444435Y-131749996D01*
X154444435Y-131750000D01*
X154464630Y-131929249D01*
X154464631Y-131929254D01*
X154524211Y-132099523D01*
X154591322Y-132206328D01*
X154620184Y-132252262D01*
X154747738Y-132379816D01*
X154819648Y-132425000D01*
X154845439Y-132441206D01*
X154900478Y-132475789D01*
X155033336Y-132522278D01*
X155070745Y-132535368D01*
X155070750Y-132535369D01*
X155249996Y-132555565D01*
X155250000Y-132555565D01*
X155250004Y-132555565D01*
X155429249Y-132535369D01*
X155429252Y-132535368D01*
X155429255Y-132535368D01*
X155599522Y-132475789D01*
X155752262Y-132379816D01*
X155752263Y-132379814D01*
X155755627Y-132377701D01*
X155822864Y-132358700D01*
X155889699Y-132379067D01*
X155934914Y-132432335D01*
X155944276Y-132493037D01*
X155944435Y-132493037D01*
X155944435Y-132494070D01*
X155944821Y-132496573D01*
X155944435Y-132499999D01*
X155944435Y-132500003D01*
X155964630Y-132679249D01*
X155964631Y-132679254D01*
X156024211Y-132849523D01*
X156106196Y-132980000D01*
X156120184Y-133002262D01*
X156247738Y-133129816D01*
X156400478Y-133225789D01*
X156570745Y-133285368D01*
X156570750Y-133285369D01*
X156749996Y-133305565D01*
X156750000Y-133305565D01*
X156750004Y-133305565D01*
X156929249Y-133285369D01*
X156929252Y-133285368D01*
X156929255Y-133285368D01*
X157099522Y-133225789D01*
X157252262Y-133129816D01*
X157252267Y-133129810D01*
X157255097Y-133127555D01*
X157257275Y-133126665D01*
X157258158Y-133126111D01*
X157258255Y-133126265D01*
X157319783Y-133101145D01*
X157332412Y-133100500D01*
X157699903Y-133100500D01*
X157766942Y-133120185D01*
X157787584Y-133136819D01*
X158113181Y-133462416D01*
X158146666Y-133523739D01*
X158149500Y-133550097D01*
X158149500Y-140667587D01*
X158129815Y-140734626D01*
X158122450Y-140744896D01*
X158120186Y-140747734D01*
X158024211Y-140900476D01*
X157964631Y-141070745D01*
X157964630Y-141070750D01*
X157944435Y-141249996D01*
X157944435Y-141250003D01*
X157964630Y-141429249D01*
X157964631Y-141429254D01*
X158024211Y-141599523D01*
X158103549Y-141725788D01*
X158120184Y-141752262D01*
X158247738Y-141879816D01*
X158400478Y-141975789D01*
X158570745Y-142035368D01*
X158570750Y-142035369D01*
X158749996Y-142055565D01*
X158750000Y-142055565D01*
X158750004Y-142055565D01*
X158929249Y-142035369D01*
X158929252Y-142035368D01*
X158929255Y-142035368D01*
X159099522Y-141975789D01*
X159252262Y-141879816D01*
X159379816Y-141752262D01*
X159475789Y-141599522D01*
X159535368Y-141429255D01*
X159536737Y-141417109D01*
X159555565Y-141250003D01*
X159555565Y-141249996D01*
X159535369Y-141070750D01*
X159535368Y-141070745D01*
X159520518Y-141028307D01*
X159475789Y-140900478D01*
X159379816Y-140747738D01*
X159379814Y-140747736D01*
X159379813Y-140747734D01*
X159377550Y-140744896D01*
X159376659Y-140742715D01*
X159376111Y-140741842D01*
X159376264Y-140741745D01*
X159351144Y-140680209D01*
X159350500Y-140667587D01*
X159350500Y-133170944D01*
X159350500Y-133170943D01*
X159345022Y-133150500D01*
X159309577Y-133018215D01*
X159261261Y-132934530D01*
X159230520Y-132881284D01*
X159118716Y-132769480D01*
X159118715Y-132769479D01*
X159114385Y-132765149D01*
X159114374Y-132765139D01*
X158911416Y-132562181D01*
X158877931Y-132500858D01*
X158882915Y-132431166D01*
X158924787Y-132375233D01*
X158990251Y-132350816D01*
X158999097Y-132350500D01*
X160199903Y-132350500D01*
X160266942Y-132370185D01*
X160287584Y-132386819D01*
X160863181Y-132962416D01*
X160896666Y-133023739D01*
X160899500Y-133050097D01*
X160899500Y-141413330D01*
X160899499Y-141413348D01*
X160899499Y-141579054D01*
X160899498Y-141579054D01*
X160904983Y-141599523D01*
X160940423Y-141731785D01*
X160952246Y-141752262D01*
X160976161Y-141793684D01*
X161019479Y-141868715D01*
X161138349Y-141987585D01*
X161138355Y-141987590D01*
X161600139Y-142449374D01*
X161600149Y-142449385D01*
X161604479Y-142453715D01*
X161604480Y-142453716D01*
X161716284Y-142565520D01*
X161803095Y-142615639D01*
X161803097Y-142615641D01*
X161841151Y-142637611D01*
X161853215Y-142644577D01*
X162005943Y-142685501D01*
X162005946Y-142685501D01*
X162171653Y-142685501D01*
X162171669Y-142685500D01*
X162335909Y-142685500D01*
X162402948Y-142705185D01*
X162448292Y-142757097D01*
X162450965Y-142762830D01*
X162586505Y-142956401D01*
X162753599Y-143123495D01*
X162850384Y-143191265D01*
X162947165Y-143259032D01*
X162947167Y-143259033D01*
X162947170Y-143259035D01*
X163161337Y-143358903D01*
X163161343Y-143358904D01*
X163161344Y-143358905D01*
X163216285Y-143373626D01*
X163389592Y-143420063D01*
X163577918Y-143436539D01*
X163624999Y-143440659D01*
X163625000Y-143440659D01*
X163625001Y-143440659D01*
X163664234Y-143437226D01*
X163860408Y-143420063D01*
X164088663Y-143358903D01*
X164302830Y-143259035D01*
X164303767Y-143258378D01*
X164304376Y-143257953D01*
X164305164Y-143257687D01*
X164307522Y-143256326D01*
X164307795Y-143256799D01*
X164370582Y-143235625D01*
X164438349Y-143252635D01*
X164486163Y-143303582D01*
X164499500Y-143359527D01*
X164499500Y-143493038D01*
X164498720Y-143506923D01*
X164488540Y-143597264D01*
X164482362Y-143624333D01*
X164454648Y-143703537D01*
X164442600Y-143728555D01*
X164397957Y-143799604D01*
X164380644Y-143821313D01*
X164321313Y-143880644D01*
X164299604Y-143897957D01*
X164228555Y-143942600D01*
X164203537Y-143954648D01*
X164124333Y-143982362D01*
X164097264Y-143988540D01*
X164017075Y-143997576D01*
X164006921Y-143998720D01*
X163993038Y-143999500D01*
X135006962Y-143999500D01*
X134993078Y-143998720D01*
X134980553Y-143997308D01*
X134902735Y-143988540D01*
X134875666Y-143982362D01*
X134796462Y-143954648D01*
X134771444Y-143942600D01*
X134700395Y-143897957D01*
X134678686Y-143880644D01*
X134619355Y-143821313D01*
X134602042Y-143799604D01*
X134557399Y-143728555D01*
X134545351Y-143703537D01*
X134517637Y-143624333D01*
X134511459Y-143597263D01*
X134501280Y-143506922D01*
X134500500Y-143493038D01*
X134500500Y-142749996D01*
X154944435Y-142749996D01*
X154944435Y-142750003D01*
X154964630Y-142929249D01*
X154964631Y-142929254D01*
X155024211Y-143099523D01*
X155039274Y-143123495D01*
X155120184Y-143252262D01*
X155247738Y-143379816D01*
X155400478Y-143475789D01*
X155489451Y-143506922D01*
X155570745Y-143535368D01*
X155570750Y-143535369D01*
X155749996Y-143555565D01*
X155750000Y-143555565D01*
X155750004Y-143555565D01*
X155929249Y-143535369D01*
X155929252Y-143535368D01*
X155929255Y-143535368D01*
X156099522Y-143475789D01*
X156252262Y-143379816D01*
X156379816Y-143252262D01*
X156475789Y-143099522D01*
X156535368Y-142929255D01*
X156535369Y-142929249D01*
X156555565Y-142750003D01*
X156555565Y-142749996D01*
X156535369Y-142570750D01*
X156535368Y-142570745D01*
X156475788Y-142400476D01*
X156379813Y-142247734D01*
X156377550Y-142244896D01*
X156376659Y-142242715D01*
X156376111Y-142241842D01*
X156376264Y-142241745D01*
X156351144Y-142180209D01*
X156350500Y-142167587D01*
X156350500Y-140050097D01*
X156370185Y-139983058D01*
X156386819Y-139962416D01*
X156778490Y-139570745D01*
X157230520Y-139118716D01*
X157309577Y-138981784D01*
X157350501Y-138829057D01*
X157350501Y-138670942D01*
X157350501Y-138663347D01*
X157350500Y-138663329D01*
X157350500Y-135670942D01*
X157350230Y-135669936D01*
X157350217Y-135669888D01*
X157312909Y-135530653D01*
X157311183Y-135524211D01*
X157309577Y-135518216D01*
X157309576Y-135518215D01*
X157308597Y-135514558D01*
X157305154Y-135496355D01*
X157285369Y-135320750D01*
X157285368Y-135320745D01*
X157271340Y-135280656D01*
X157225789Y-135150478D01*
X157220983Y-135142830D01*
X157129815Y-134997737D01*
X157002262Y-134870184D01*
X156849523Y-134774211D01*
X156679254Y-134714631D01*
X156679249Y-134714630D01*
X156500004Y-134694435D01*
X156499996Y-134694435D01*
X156320750Y-134714630D01*
X156320745Y-134714631D01*
X156150476Y-134774211D01*
X155997737Y-134870184D01*
X155870184Y-134997737D01*
X155774211Y-135150476D01*
X155714631Y-135320745D01*
X155714630Y-135320750D01*
X155694435Y-135499996D01*
X155694435Y-135500003D01*
X155714630Y-135679249D01*
X155714631Y-135679254D01*
X155774211Y-135849523D01*
X155870184Y-136002262D01*
X155997740Y-136129818D01*
X156091471Y-136188712D01*
X156137763Y-136241046D01*
X156149500Y-136293706D01*
X156149500Y-138449902D01*
X156129815Y-138516941D01*
X156113181Y-138537583D01*
X155269481Y-139381282D01*
X155269479Y-139381285D01*
X155231853Y-139446457D01*
X155231852Y-139446459D01*
X155190423Y-139518214D01*
X155190423Y-139518215D01*
X155149499Y-139670943D01*
X155149499Y-139670945D01*
X155149499Y-139839046D01*
X155149500Y-139839059D01*
X155149500Y-142167587D01*
X155129815Y-142234626D01*
X155122450Y-142244896D01*
X155120186Y-142247734D01*
X155024211Y-142400476D01*
X154964631Y-142570745D01*
X154964630Y-142570750D01*
X154944435Y-142749996D01*
X134500500Y-142749996D01*
X134500500Y-141070000D01*
X135680138Y-141070000D01*
X136483012Y-141070000D01*
X136465795Y-141079940D01*
X136409940Y-141135795D01*
X136370444Y-141204204D01*
X136350000Y-141280504D01*
X136350000Y-141359496D01*
X136370444Y-141435796D01*
X136409940Y-141504205D01*
X136465795Y-141560060D01*
X136483012Y-141570000D01*
X135680138Y-141570000D01*
X135688430Y-141611690D01*
X135688430Y-141611692D01*
X135763807Y-141793671D01*
X135763814Y-141793684D01*
X135873248Y-141957462D01*
X135873251Y-141957466D01*
X136012533Y-142096748D01*
X136012537Y-142096751D01*
X136176315Y-142206185D01*
X136176328Y-142206192D01*
X136358306Y-142281569D01*
X136358318Y-142281572D01*
X136551504Y-142319999D01*
X136551508Y-142320000D01*
X136700000Y-142320000D01*
X136700000Y-141620000D01*
X137200000Y-141620000D01*
X137200000Y-142320000D01*
X137348492Y-142320000D01*
X137348495Y-142319999D01*
X137541681Y-142281572D01*
X137541693Y-142281569D01*
X137723671Y-142206192D01*
X137723684Y-142206185D01*
X137887462Y-142096751D01*
X137887466Y-142096748D01*
X138026748Y-141957466D01*
X138026751Y-141957462D01*
X138136185Y-141793684D01*
X138136192Y-141793671D01*
X138211569Y-141611692D01*
X138211569Y-141611690D01*
X138219862Y-141570000D01*
X137416988Y-141570000D01*
X137434205Y-141560060D01*
X137490060Y-141504205D01*
X137529556Y-141435796D01*
X137550000Y-141359496D01*
X137550000Y-141280504D01*
X137529556Y-141204204D01*
X137490060Y-141135795D01*
X137434205Y-141079940D01*
X137416988Y-141070000D01*
X138219862Y-141070000D01*
X139610138Y-141070000D01*
X140413012Y-141070000D01*
X140395795Y-141079940D01*
X140339940Y-141135795D01*
X140300444Y-141204204D01*
X140280000Y-141280504D01*
X140280000Y-141359496D01*
X140300444Y-141435796D01*
X140339940Y-141504205D01*
X140395795Y-141560060D01*
X140413012Y-141570000D01*
X139610138Y-141570000D01*
X139618430Y-141611690D01*
X139618430Y-141611692D01*
X139693807Y-141793671D01*
X139693814Y-141793684D01*
X139803248Y-141957462D01*
X139803251Y-141957466D01*
X139942533Y-142096748D01*
X139942537Y-142096751D01*
X140106315Y-142206185D01*
X140106328Y-142206192D01*
X140288306Y-142281569D01*
X140288318Y-142281572D01*
X140481504Y-142319999D01*
X140481508Y-142320000D01*
X140880000Y-142320000D01*
X140880000Y-141620000D01*
X141380000Y-141620000D01*
X141380000Y-142320000D01*
X141778492Y-142320000D01*
X141778495Y-142319999D01*
X141971681Y-142281572D01*
X141971693Y-142281569D01*
X142153671Y-142206192D01*
X142153684Y-142206185D01*
X142317462Y-142096751D01*
X142317466Y-142096748D01*
X142456748Y-141957466D01*
X142456751Y-141957462D01*
X142566185Y-141793684D01*
X142566192Y-141793671D01*
X142641569Y-141611692D01*
X142641569Y-141611690D01*
X142649862Y-141570000D01*
X141846988Y-141570000D01*
X141864205Y-141560060D01*
X141920060Y-141504205D01*
X141959556Y-141435796D01*
X141980000Y-141359496D01*
X141980000Y-141280504D01*
X141959556Y-141204204D01*
X141920060Y-141135795D01*
X141864205Y-141079940D01*
X141846988Y-141070000D01*
X142649862Y-141070000D01*
X142641569Y-141028309D01*
X142641569Y-141028307D01*
X142566192Y-140846328D01*
X142566185Y-140846315D01*
X142456751Y-140682537D01*
X142456748Y-140682533D01*
X142317466Y-140543251D01*
X142317462Y-140543248D01*
X142153684Y-140433814D01*
X142153671Y-140433807D01*
X141971693Y-140358430D01*
X141971681Y-140358427D01*
X141778495Y-140320000D01*
X141231045Y-140320000D01*
X141164006Y-140300315D01*
X141118251Y-140247511D01*
X141108307Y-140178353D01*
X141123658Y-140134000D01*
X141136279Y-140112138D01*
X141136281Y-140112135D01*
X141175500Y-139965766D01*
X141175500Y-139814234D01*
X141136281Y-139667865D01*
X141060515Y-139536635D01*
X140953365Y-139429485D01*
X140869879Y-139381284D01*
X140822136Y-139353719D01*
X140748950Y-139334109D01*
X140675766Y-139314500D01*
X140524234Y-139314500D01*
X140377863Y-139353719D01*
X140246635Y-139429485D01*
X140246632Y-139429487D01*
X140139487Y-139536632D01*
X140139485Y-139536635D01*
X140063719Y-139667863D01*
X140024500Y-139814234D01*
X140024500Y-139965766D01*
X140035994Y-140008663D01*
X140063719Y-140112136D01*
X140101602Y-140177750D01*
X140139485Y-140243365D01*
X140139488Y-140243368D01*
X140144432Y-140249811D01*
X140141612Y-140251974D01*
X140167302Y-140299020D01*
X140162318Y-140368712D01*
X140120446Y-140424645D01*
X140111379Y-140430416D01*
X140111387Y-140430427D01*
X139942536Y-140543248D01*
X139803251Y-140682533D01*
X139803248Y-140682537D01*
X139693814Y-140846315D01*
X139693807Y-140846328D01*
X139618430Y-141028307D01*
X139618430Y-141028309D01*
X139610138Y-141070000D01*
X138219862Y-141070000D01*
X138211569Y-141028309D01*
X138211569Y-141028307D01*
X138136192Y-140846328D01*
X138136185Y-140846315D01*
X138026751Y-140682537D01*
X138026748Y-140682533D01*
X137887466Y-140543251D01*
X137887462Y-140543248D01*
X137723684Y-140433814D01*
X137723671Y-140433807D01*
X137541693Y-140358430D01*
X137541681Y-140358427D01*
X137348495Y-140320000D01*
X137200000Y-140320000D01*
X137200000Y-141020000D01*
X136700000Y-141020000D01*
X136700000Y-140320000D01*
X136551504Y-140320000D01*
X136358318Y-140358427D01*
X136358306Y-140358430D01*
X136176328Y-140433807D01*
X136176315Y-140433814D01*
X136012537Y-140543248D01*
X136012533Y-140543251D01*
X135873251Y-140682533D01*
X135873248Y-140682537D01*
X135763814Y-140846315D01*
X135763807Y-140846328D01*
X135688430Y-141028307D01*
X135688430Y-141028309D01*
X135680138Y-141070000D01*
X134500500Y-141070000D01*
X134500500Y-132430000D01*
X135680138Y-132430000D01*
X136483012Y-132430000D01*
X136465795Y-132439940D01*
X136409940Y-132495795D01*
X136370444Y-132564204D01*
X136350000Y-132640504D01*
X136350000Y-132719496D01*
X136370444Y-132795796D01*
X136409940Y-132864205D01*
X136465795Y-132920060D01*
X136483012Y-132930000D01*
X135680138Y-132930000D01*
X135688430Y-132971690D01*
X135688430Y-132971692D01*
X135763807Y-133153671D01*
X135763814Y-133153684D01*
X135873248Y-133317462D01*
X135873251Y-133317466D01*
X136012533Y-133456748D01*
X136012537Y-133456751D01*
X136176315Y-133566185D01*
X136176328Y-133566192D01*
X136358306Y-133641569D01*
X136358318Y-133641572D01*
X136551504Y-133679999D01*
X136551508Y-133680000D01*
X136700000Y-133680000D01*
X136700000Y-132980000D01*
X137200000Y-132980000D01*
X137200000Y-133680000D01*
X137348492Y-133680000D01*
X137348495Y-133679999D01*
X137541681Y-133641572D01*
X137541693Y-133641569D01*
X137723671Y-133566192D01*
X137723684Y-133566185D01*
X137887462Y-133456751D01*
X137887466Y-133456748D01*
X138026748Y-133317466D01*
X138026751Y-133317462D01*
X138122398Y-133174318D01*
X138176010Y-133129513D01*
X138245335Y-133120806D01*
X138308363Y-133150960D01*
X138345082Y-133210403D01*
X138349500Y-133243209D01*
X138349500Y-136314069D01*
X138362976Y-136381816D01*
X138372412Y-136429248D01*
X138372413Y-136429259D01*
X138372414Y-136429259D01*
X138374498Y-136439742D01*
X138374500Y-136439747D01*
X138423533Y-136558125D01*
X138469191Y-136626457D01*
X138489589Y-136656986D01*
X138494726Y-136664673D01*
X138494727Y-136664674D01*
X138678277Y-136848223D01*
X138711762Y-136909546D01*
X138713815Y-136922012D01*
X138714630Y-136929246D01*
X138714632Y-136929255D01*
X138774210Y-137099521D01*
X138794167Y-137131282D01*
X138870184Y-137252262D01*
X138997738Y-137379816D01*
X139043002Y-137408257D01*
X139139138Y-137468664D01*
X139150478Y-137475789D01*
X139320745Y-137535368D01*
X139320750Y-137535369D01*
X139499996Y-137555565D01*
X139500000Y-137555565D01*
X139500004Y-137555565D01*
X139679249Y-137535369D01*
X139679252Y-137535368D01*
X139679255Y-137535368D01*
X139849522Y-137475789D01*
X140002262Y-137379816D01*
X140129816Y-137252262D01*
X140225789Y-137099522D01*
X140285368Y-136929255D01*
X140287589Y-136909546D01*
X140305565Y-136750003D01*
X140305565Y-136749996D01*
X140285369Y-136570750D01*
X140285368Y-136570745D01*
X140269085Y-136524211D01*
X140225789Y-136400478D01*
X140225174Y-136399500D01*
X140171495Y-136314070D01*
X140129816Y-136247738D01*
X140002262Y-136120184D01*
X139849523Y-136024211D01*
X139733545Y-135983629D01*
X139676769Y-135942907D01*
X139651022Y-135877954D01*
X139650500Y-135866587D01*
X139650500Y-133464077D01*
X139670185Y-133397038D01*
X139722989Y-133351283D01*
X139792147Y-133341339D01*
X139855703Y-133370364D01*
X139862181Y-133376396D01*
X139942533Y-133456748D01*
X139942537Y-133456751D01*
X140111387Y-133569574D01*
X140110430Y-133571005D01*
X140154425Y-133614211D01*
X140169895Y-133682346D01*
X140146072Y-133748029D01*
X140144309Y-133750094D01*
X140144432Y-133750189D01*
X140139485Y-133756635D01*
X140063719Y-133887863D01*
X140024500Y-134034234D01*
X140024500Y-134185765D01*
X140063719Y-134332136D01*
X140101602Y-134397750D01*
X140139485Y-134463365D01*
X140246635Y-134570515D01*
X140377865Y-134646281D01*
X140524234Y-134685500D01*
X140524236Y-134685500D01*
X140675764Y-134685500D01*
X140675766Y-134685500D01*
X140822135Y-134646281D01*
X140953365Y-134570515D01*
X141060515Y-134463365D01*
X141136281Y-134332135D01*
X141175500Y-134185766D01*
X141175500Y-134034234D01*
X141136281Y-133887865D01*
X141136279Y-133887861D01*
X141123658Y-133866000D01*
X141107185Y-133798099D01*
X141130038Y-133732073D01*
X141184959Y-133688882D01*
X141231045Y-133680000D01*
X141778492Y-133680000D01*
X141778495Y-133679999D01*
X141971681Y-133641572D01*
X141971693Y-133641569D01*
X142153671Y-133566192D01*
X142153684Y-133566185D01*
X142317462Y-133456751D01*
X142317466Y-133456748D01*
X142456748Y-133317466D01*
X142456751Y-133317462D01*
X142566185Y-133153684D01*
X142566192Y-133153671D01*
X142641569Y-132971692D01*
X142641569Y-132971690D01*
X142649862Y-132930000D01*
X141846988Y-132930000D01*
X141864205Y-132920060D01*
X141920060Y-132864205D01*
X141959556Y-132795796D01*
X141980000Y-132719496D01*
X141980000Y-132640504D01*
X141959556Y-132564204D01*
X141920060Y-132495795D01*
X141864205Y-132439940D01*
X141846988Y-132430000D01*
X142649862Y-132430000D01*
X142641569Y-132388309D01*
X142641569Y-132388307D01*
X142566192Y-132206328D01*
X142566185Y-132206315D01*
X142456751Y-132042537D01*
X142456748Y-132042533D01*
X142317466Y-131903251D01*
X142317462Y-131903248D01*
X142279080Y-131877602D01*
X142234275Y-131823990D01*
X142225568Y-131754665D01*
X142255722Y-131691638D01*
X142315165Y-131654918D01*
X142347971Y-131650500D01*
X147679192Y-131650500D01*
X147746231Y-131670185D01*
X147766873Y-131686819D01*
X148313181Y-132233127D01*
X148346666Y-132294450D01*
X148349500Y-132320808D01*
X148349500Y-135244931D01*
X148330494Y-135310903D01*
X148274211Y-135400477D01*
X148274209Y-135400481D01*
X148257536Y-135448130D01*
X148216815Y-135504906D01*
X148151862Y-135530653D01*
X148099541Y-135524217D01*
X147929257Y-135464632D01*
X147929249Y-135464630D01*
X147750004Y-135444435D01*
X147749996Y-135444435D01*
X147570750Y-135464630D01*
X147570745Y-135464631D01*
X147400476Y-135524211D01*
X147247737Y-135620184D01*
X147120184Y-135747737D01*
X147024211Y-135900476D01*
X146964631Y-136070745D01*
X146964630Y-136070750D01*
X146944435Y-136249996D01*
X146944435Y-136250000D01*
X146944435Y-136250004D01*
X146945744Y-136261614D01*
X146933691Y-136330436D01*
X146886343Y-136381816D01*
X146822524Y-136399500D01*
X145800097Y-136399500D01*
X145733058Y-136379815D01*
X145712416Y-136363181D01*
X145580700Y-136231465D01*
X145547215Y-136170142D01*
X145545163Y-136157686D01*
X145535368Y-136070745D01*
X145475789Y-135900478D01*
X145379816Y-135747738D01*
X145252262Y-135620184D01*
X145211918Y-135594834D01*
X145099523Y-135524211D01*
X144929254Y-135464631D01*
X144929249Y-135464630D01*
X144750004Y-135444435D01*
X144749996Y-135444435D01*
X144570750Y-135464630D01*
X144570745Y-135464631D01*
X144400476Y-135524211D01*
X144247737Y-135620184D01*
X144120184Y-135747737D01*
X144024211Y-135900476D01*
X143964631Y-136070745D01*
X143964630Y-136070750D01*
X143944435Y-136249996D01*
X143944435Y-136250004D01*
X143951714Y-136314611D01*
X143939659Y-136383433D01*
X143892310Y-136434812D01*
X143824699Y-136452436D01*
X143814611Y-136451714D01*
X143750004Y-136444435D01*
X143749996Y-136444435D01*
X143570750Y-136464630D01*
X143570745Y-136464631D01*
X143400476Y-136524211D01*
X143247737Y-136620184D01*
X143120184Y-136747737D01*
X143024211Y-136900476D01*
X142964631Y-137070745D01*
X142964630Y-137070750D01*
X142944435Y-137249996D01*
X142944435Y-137250003D01*
X142964630Y-137429249D01*
X142964631Y-137429254D01*
X143024211Y-137599523D01*
X143120182Y-137752259D01*
X143122441Y-137755091D01*
X143123330Y-137757268D01*
X143123889Y-137758158D01*
X143123733Y-137758255D01*
X143148854Y-137819776D01*
X143149219Y-137826929D01*
X143149498Y-137829054D01*
X143162183Y-137876395D01*
X143190423Y-137981785D01*
X143218451Y-138030330D01*
X143219358Y-138031900D01*
X143219359Y-138031904D01*
X143219360Y-138031904D01*
X143269479Y-138118714D01*
X143269481Y-138118717D01*
X143388349Y-138237585D01*
X143388355Y-138237590D01*
X144015139Y-138864374D01*
X144015149Y-138864385D01*
X144019479Y-138868715D01*
X144019480Y-138868716D01*
X144131284Y-138980520D01*
X144206960Y-139024211D01*
X144268215Y-139059577D01*
X144420943Y-139100500D01*
X144579057Y-139100500D01*
X146163331Y-139100500D01*
X146163347Y-139100501D01*
X146170943Y-139100501D01*
X146329054Y-139100501D01*
X146329057Y-139100501D01*
X146481785Y-139059577D01*
X146543040Y-139024211D01*
X146618716Y-138980520D01*
X146730520Y-138868716D01*
X146730520Y-138868714D01*
X146740724Y-138858511D01*
X146740728Y-138858506D01*
X147018535Y-138580698D01*
X147079856Y-138547215D01*
X147092311Y-138545163D01*
X147179255Y-138535368D01*
X147349522Y-138475789D01*
X147502262Y-138379816D01*
X147629816Y-138252262D01*
X147645007Y-138228084D01*
X147697339Y-138181796D01*
X147766393Y-138171146D01*
X147830242Y-138199521D01*
X147854990Y-138228082D01*
X147870184Y-138252262D01*
X147997738Y-138379816D01*
X148150478Y-138475789D01*
X148268084Y-138516941D01*
X148320745Y-138535368D01*
X148320750Y-138535369D01*
X148499996Y-138555565D01*
X148500000Y-138555565D01*
X148500004Y-138555565D01*
X148679249Y-138535369D01*
X148679250Y-138535368D01*
X148679255Y-138535368D01*
X148734545Y-138516020D01*
X148804322Y-138512458D01*
X148864950Y-138547186D01*
X148897178Y-138609179D01*
X148899500Y-138633062D01*
X148899500Y-140417587D01*
X148879815Y-140484626D01*
X148872450Y-140494896D01*
X148870186Y-140497734D01*
X148774211Y-140650476D01*
X148714631Y-140820745D01*
X148714630Y-140820750D01*
X148694435Y-140999996D01*
X148694435Y-141000003D01*
X148714630Y-141179249D01*
X148714631Y-141179254D01*
X148774211Y-141349523D01*
X148833686Y-141444176D01*
X148870184Y-141502262D01*
X148997738Y-141629816D01*
X149150478Y-141725789D01*
X149320745Y-141785368D01*
X149320750Y-141785369D01*
X149499996Y-141805565D01*
X149500000Y-141805565D01*
X149500004Y-141805565D01*
X149679249Y-141785369D01*
X149679252Y-141785368D01*
X149679255Y-141785368D01*
X149849522Y-141725789D01*
X150002262Y-141629816D01*
X150129816Y-141502262D01*
X150225789Y-141349522D01*
X150285368Y-141179255D01*
X150296558Y-141079940D01*
X150305565Y-141000003D01*
X150305565Y-140999996D01*
X150285369Y-140820750D01*
X150285368Y-140820745D01*
X150225788Y-140650475D01*
X150219496Y-140640462D01*
X150200495Y-140573225D01*
X150220862Y-140506390D01*
X150274130Y-140461176D01*
X150343386Y-140451937D01*
X150390462Y-140469496D01*
X150400475Y-140475788D01*
X150570745Y-140535368D01*
X150570750Y-140535369D01*
X150749996Y-140555565D01*
X150750000Y-140555565D01*
X150750004Y-140555565D01*
X150929249Y-140535369D01*
X150929252Y-140535368D01*
X150929255Y-140535368D01*
X151099522Y-140475789D01*
X151252262Y-140379816D01*
X151379816Y-140252262D01*
X151475789Y-140099522D01*
X151535368Y-139929255D01*
X151535369Y-139929249D01*
X151555565Y-139750003D01*
X151555565Y-139749996D01*
X151535369Y-139570750D01*
X151535368Y-139570745D01*
X151491878Y-139446457D01*
X151475789Y-139400478D01*
X151463727Y-139381282D01*
X151379813Y-139247734D01*
X151377550Y-139244896D01*
X151376659Y-139242715D01*
X151376111Y-139241842D01*
X151376264Y-139241745D01*
X151351144Y-139180209D01*
X151350500Y-139167587D01*
X151350500Y-137589060D01*
X151350501Y-137589047D01*
X151350501Y-137420944D01*
X151350501Y-137420943D01*
X151309577Y-137268216D01*
X151293522Y-137240408D01*
X151230524Y-137131290D01*
X151230518Y-137131282D01*
X150534048Y-136434812D01*
X149830699Y-135731464D01*
X149797215Y-135670142D01*
X149795163Y-135657686D01*
X149785368Y-135570745D01*
X149725789Y-135400478D01*
X149716591Y-135385840D01*
X149669506Y-135310903D01*
X149650500Y-135244931D01*
X149650500Y-131935928D01*
X149625502Y-131810261D01*
X149625501Y-131810260D01*
X149625501Y-131810256D01*
X149600542Y-131750000D01*
X149600540Y-131749996D01*
X149576469Y-131691881D01*
X149576466Y-131691875D01*
X149576466Y-131691874D01*
X149576308Y-131691638D01*
X149505278Y-131585332D01*
X149505272Y-131585325D01*
X148414673Y-130494726D01*
X148414666Y-130494721D01*
X148308127Y-130423535D01*
X148189744Y-130374499D01*
X148189738Y-130374497D01*
X148064071Y-130349500D01*
X148064069Y-130349500D01*
X139935931Y-130349500D01*
X139935929Y-130349500D01*
X139810261Y-130374497D01*
X139810251Y-130374500D01*
X139761220Y-130394810D01*
X139691881Y-130423530D01*
X139691863Y-130423540D01*
X139585332Y-130494721D01*
X139585325Y-130494727D01*
X138494726Y-131585326D01*
X138494723Y-131585331D01*
X138438027Y-131670185D01*
X138437521Y-131670942D01*
X138437519Y-131670945D01*
X138423536Y-131691870D01*
X138423533Y-131691875D01*
X138374499Y-131810255D01*
X138374497Y-131810261D01*
X138349500Y-131935928D01*
X138349500Y-132116790D01*
X138329815Y-132183829D01*
X138277011Y-132229584D01*
X138207853Y-132239528D01*
X138144297Y-132210503D01*
X138122398Y-132185681D01*
X138026751Y-132042537D01*
X138026748Y-132042533D01*
X137887466Y-131903251D01*
X137887462Y-131903248D01*
X137723684Y-131793814D01*
X137723671Y-131793807D01*
X137541693Y-131718430D01*
X137541681Y-131718427D01*
X137348495Y-131680000D01*
X137200000Y-131680000D01*
X137200000Y-132380000D01*
X136700000Y-132380000D01*
X136700000Y-131680000D01*
X136551504Y-131680000D01*
X136358318Y-131718427D01*
X136358306Y-131718430D01*
X136176328Y-131793807D01*
X136176315Y-131793814D01*
X136012537Y-131903248D01*
X136012533Y-131903251D01*
X135873251Y-132042533D01*
X135873248Y-132042537D01*
X135763814Y-132206315D01*
X135763807Y-132206328D01*
X135688430Y-132388307D01*
X135688430Y-132388309D01*
X135680138Y-132430000D01*
X134500500Y-132430000D01*
X134500500Y-130506961D01*
X134501280Y-130493077D01*
X134511459Y-130402731D01*
X134517635Y-130375670D01*
X134545353Y-130296456D01*
X134557396Y-130271450D01*
X134602046Y-130200389D01*
X134619351Y-130178690D01*
X134678690Y-130119351D01*
X134700389Y-130102046D01*
X134771450Y-130057396D01*
X134796456Y-130045353D01*
X134875670Y-130017635D01*
X134902733Y-130011459D01*
X134965419Y-130004396D01*
X134993079Y-130001280D01*
X135006962Y-130000500D01*
X135065892Y-130000500D01*
X163934108Y-130000500D01*
X163993038Y-130000500D01*
X164006922Y-130001280D01*
G37*
%TD.AperFunction*%
%TD*%
M02*
