%TF.GenerationSoftware,KiCad,Pcbnew,10.0.4*%
%TF.CreationDate,2026-08-17T17:13:02+05:30*%
%TF.ProjectId,USB to UART converter,55534220-746f-4205-9541-525420636f6e,rev?*%
%TF.SameCoordinates,Original*%
%TF.FileFunction,Copper,L1,Top*%
%TF.FilePolarity,Positive*%
%FSLAX46Y46*%
G04 Gerber Fmt 4.6, Leading zero omitted, Abs format (unit mm)*
G04 Created by KiCad (PCBNEW 10.0.4) date 2026-08-17 17:13:02*
%MOMM*%
%LPD*%
G01*
G04 APERTURE LIST*
G04 Aperture macros list*
%AMRoundRect*
0 Rectangle with rounded corners*
0 $1 Rounding radius*
0 $2 $3 $4 $5 $6 $7 $8 $9 X,Y pos of 4 corners*
0 Add a 4 corners polygon primitive as box body*
4,1,4,$2,$3,$4,$5,$6,$7,$8,$9,$2,$3,0*
0 Add four circle primitives for the rounded corners*
1,1,$1+$1,$2,$3*
1,1,$1+$1,$4,$5*
1,1,$1+$1,$6,$7*
1,1,$1+$1,$8,$9*
0 Add four rect primitives between the rounded corners*
20,1,$1+$1,$2,$3,$4,$5,0*
20,1,$1+$1,$4,$5,$6,$7,0*
20,1,$1+$1,$6,$7,$8,$9,0*
20,1,$1+$1,$8,$9,$2,$3,0*%
G04 Aperture macros list end*
%TA.AperFunction,ComponentPad*%
%ADD10R,1.700000X1.700000*%
%TD*%
%TA.AperFunction,ComponentPad*%
%ADD11O,1.700000X1.700000*%
%TD*%
%TA.AperFunction,SMDPad,CuDef*%
%ADD12R,0.400000X0.480000*%
%TD*%
%TA.AperFunction,SMDPad,CuDef*%
%ADD13RoundRect,0.100000X0.130000X0.100000X-0.130000X0.100000X-0.130000X-0.100000X0.130000X-0.100000X0*%
%TD*%
%TA.AperFunction,SMDPad,CuDef*%
%ADD14RoundRect,0.100000X0.100000X-0.130000X0.100000X0.130000X-0.100000X0.130000X-0.100000X-0.130000X0*%
%TD*%
%TA.AperFunction,SMDPad,CuDef*%
%ADD15RoundRect,0.062500X-0.337500X-0.062500X0.337500X-0.062500X0.337500X0.062500X-0.337500X0.062500X0*%
%TD*%
%TA.AperFunction,SMDPad,CuDef*%
%ADD16RoundRect,0.062500X-0.062500X-0.337500X0.062500X-0.337500X0.062500X0.337500X-0.062500X0.337500X0*%
%TD*%
%TA.AperFunction,HeatsinkPad*%
%ADD17R,3.350000X3.350000*%
%TD*%
%TA.AperFunction,SMDPad,CuDef*%
%ADD18RoundRect,0.100000X-0.130000X-0.100000X0.130000X-0.100000X0.130000X0.100000X-0.130000X0.100000X0*%
%TD*%
%TA.AperFunction,SMDPad,CuDef*%
%ADD19R,1.450000X0.600000*%
%TD*%
%TA.AperFunction,SMDPad,CuDef*%
%ADD20R,1.450000X0.300000*%
%TD*%
%TA.AperFunction,ComponentPad*%
%ADD21O,2.100000X1.000000*%
%TD*%
%TA.AperFunction,ComponentPad*%
%ADD22O,1.600000X1.000000*%
%TD*%
%TA.AperFunction,SMDPad,CuDef*%
%ADD23RoundRect,0.100000X-0.100000X0.130000X-0.100000X-0.130000X0.100000X-0.130000X0.100000X0.130000X0*%
%TD*%
%TA.AperFunction,ViaPad*%
%ADD24C,0.600000*%
%TD*%
%TA.AperFunction,Conductor*%
%ADD25C,0.200000*%
%TD*%
%TA.AperFunction,Conductor*%
%ADD26C,0.300000*%
%TD*%
G04 APERTURE END LIST*
D10*
%TO.P,J2,1,Pin_1*%
%TO.N,GND*%
X163625000Y-131925000D03*
D11*
%TO.P,J2,2,Pin_2*%
%TO.N,/VBUS*%
X163625000Y-134465000D03*
%TO.P,J2,3,Pin_3*%
%TO.N,/RX*%
X163625000Y-137005000D03*
%TO.P,J2,4,Pin_4*%
%TO.N,/TX*%
X163625000Y-139545000D03*
%TO.P,J2,5,Pin_5*%
%TO.N,/RST*%
X163625000Y-142085000D03*
%TD*%
D12*
%TO.P,D5,1*%
%TO.N,/VBUS*%
X145000000Y-138680000D03*
%TO.P,D5,2*%
%TO.N,GND*%
X145000000Y-140000000D03*
%TD*%
D13*
%TO.P,R6,1*%
%TO.N,/VBUS*%
X157820000Y-135000000D03*
%TO.P,R6,2*%
%TO.N,Net-(D1-A)*%
X157180000Y-135000000D03*
%TD*%
D12*
%TO.P,D4,1*%
%TO.N,/D-*%
X148500000Y-138680000D03*
%TO.P,D4,2*%
%TO.N,GND*%
X148500000Y-140000000D03*
%TD*%
D14*
%TO.P,R1,1*%
%TO.N,Net-(J1-CC1)*%
X144500000Y-134820000D03*
%TO.P,R1,2*%
%TO.N,GND*%
X144500000Y-134180000D03*
%TD*%
D15*
%TO.P,U1,1,~{DCD}*%
%TO.N,unconnected-(U1-~{DCD}-Pad1)*%
X150550000Y-135050000D03*
%TO.P,U1,2,~{RI}/CLK*%
%TO.N,unconnected-(U1-~{RI}{slash}CLK-Pad2)*%
X150550000Y-135550000D03*
%TO.P,U1,3,GND*%
%TO.N,GND*%
X150550000Y-136050000D03*
%TO.P,U1,4,D+*%
%TO.N,/D+*%
X150550000Y-136550000D03*
%TO.P,U1,5,D-*%
%TO.N,/D-*%
X150550000Y-137050000D03*
%TO.P,U1,6,VDD*%
%TO.N,Net-(U1-VDD)*%
X150550000Y-137550000D03*
%TO.P,U1,7,VREGIN*%
%TO.N,/VBUS*%
X150550000Y-138050000D03*
D16*
%TO.P,U1,8,VBUS*%
X151500000Y-139000000D03*
%TO.P,U1,9,~{RST}*%
%TO.N,Net-(U1-~{RST})*%
X152000000Y-139000000D03*
%TO.P,U1,10,NC*%
%TO.N,unconnected-(U1-NC-Pad10)*%
X152500000Y-139000000D03*
%TO.P,U1,11,~{SUSPEND}*%
%TO.N,unconnected-(U1-~{SUSPEND}-Pad11)*%
X153000000Y-139000000D03*
%TO.P,U1,12,SUSPEND*%
%TO.N,unconnected-(U1-SUSPEND-Pad12)*%
X153500000Y-139000000D03*
%TO.P,U1,13,CHREN*%
%TO.N,unconnected-(U1-CHREN-Pad13)*%
X154000000Y-139000000D03*
%TO.P,U1,14,CHR1*%
%TO.N,unconnected-(U1-CHR1-Pad14)*%
X154500000Y-139000000D03*
D15*
%TO.P,U1,15,CHR0*%
%TO.N,unconnected-(U1-CHR0-Pad15)*%
X155450000Y-138050000D03*
%TO.P,U1,16,~{WAKEUP}/GPIO.3*%
%TO.N,unconnected-(U1-~{WAKEUP}{slash}GPIO.3-Pad16)*%
X155450000Y-137550000D03*
%TO.P,U1,17,RS485/GPIO.2*%
%TO.N,unconnected-(U1-RS485{slash}GPIO.2-Pad17)*%
X155450000Y-137050000D03*
%TO.P,U1,18,~{RXT}/GPIO.1*%
%TO.N,unconnected-(U1-~{RXT}{slash}GPIO.1-Pad18)*%
X155450000Y-136550000D03*
%TO.P,U1,19,~{TXT}/GPIO.0*%
%TO.N,unconnected-(U1-~{TXT}{slash}GPIO.0-Pad19)*%
X155450000Y-136050000D03*
%TO.P,U1,20,GPIO.6*%
%TO.N,unconnected-(U1-GPIO.6-Pad20)*%
X155450000Y-135550000D03*
%TO.P,U1,21,GPIO.5*%
%TO.N,unconnected-(U1-GPIO.5-Pad21)*%
X155450000Y-135050000D03*
D16*
%TO.P,U1,22,GPIO.4*%
%TO.N,unconnected-(U1-GPIO.4-Pad22)*%
X154500000Y-134100000D03*
%TO.P,U1,23,~{CTS}*%
%TO.N,unconnected-(U1-~{CTS}-Pad23)*%
X154000000Y-134100000D03*
%TO.P,U1,24,~{RTS}*%
%TO.N,unconnected-(U1-~{RTS}-Pad24)*%
X153500000Y-134100000D03*
%TO.P,U1,25,RXD*%
%TO.N,Net-(D2-K)*%
X153000000Y-134100000D03*
%TO.P,U1,26,TXD*%
%TO.N,Net-(D1-K)*%
X152500000Y-134100000D03*
%TO.P,U1,27,~{DSR}*%
%TO.N,unconnected-(U1-~{DSR}-Pad27)*%
X152000000Y-134100000D03*
%TO.P,U1,28,~{DTR}*%
%TO.N,Net-(U1-~{DTR})*%
X151500000Y-134100000D03*
D17*
%TO.P,U1,29,GND*%
%TO.N,GND*%
X153000000Y-136550000D03*
%TD*%
D18*
%TO.P,D1,1,K*%
%TO.N,Net-(D1-K)*%
X157335000Y-132500000D03*
%TO.P,D1,2,A*%
%TO.N,Net-(D1-A)*%
X157975000Y-132500000D03*
%TD*%
%TO.P,R3,1*%
%TO.N,/VBUS*%
X150680000Y-140500000D03*
%TO.P,R3,2*%
%TO.N,Net-(U1-~{RST})*%
X151320000Y-140500000D03*
%TD*%
D19*
%TO.P,J1,A1,GND*%
%TO.N,GND*%
X142045000Y-133750000D03*
%TO.P,J1,A4,VBUS*%
%TO.N,/VBUS*%
X142045000Y-134550000D03*
D20*
%TO.P,J1,A5,CC1*%
%TO.N,Net-(J1-CC1)*%
X142045000Y-135750000D03*
%TO.P,J1,A6,D+*%
%TO.N,/D+*%
X142045000Y-136750000D03*
%TO.P,J1,A7,D-*%
%TO.N,/D-*%
X142045000Y-137250000D03*
%TO.P,J1,A8,SBU1*%
%TO.N,unconnected-(J1-SBU1-PadA8)*%
X142045000Y-138250000D03*
D19*
%TO.P,J1,A9,VBUS*%
%TO.N,/VBUS*%
X142045000Y-139450000D03*
%TO.P,J1,A12,GND*%
%TO.N,GND*%
X142045000Y-140250000D03*
%TO.P,J1,B1,GND*%
X142045000Y-140250000D03*
%TO.P,J1,B4,VBUS*%
%TO.N,/VBUS*%
X142045000Y-139450000D03*
D20*
%TO.P,J1,B5,CC2*%
%TO.N,Net-(J1-CC2)*%
X142045000Y-138750000D03*
%TO.P,J1,B6,D+*%
%TO.N,/D+*%
X142045000Y-137750000D03*
%TO.P,J1,B7,D-*%
%TO.N,/D-*%
X142045000Y-136250000D03*
%TO.P,J1,B8,SBU2*%
%TO.N,unconnected-(J1-SBU2-PadB8)*%
X142045000Y-135250000D03*
D19*
%TO.P,J1,B9,VBUS*%
%TO.N,/VBUS*%
X142045000Y-134550000D03*
%TO.P,J1,B12,GND*%
%TO.N,GND*%
X142045000Y-133750000D03*
D21*
%TO.P,J1,S1,SHIELD*%
X141130000Y-132680000D03*
D22*
X136950000Y-132680000D03*
D21*
X141130000Y-141320000D03*
D22*
X136950000Y-141320000D03*
%TD*%
D23*
%TO.P,C1,1*%
%TO.N,GND*%
X146500000Y-136180000D03*
%TO.P,C1,2*%
%TO.N,Net-(U1-VDD)*%
X146500000Y-136820000D03*
%TD*%
D13*
%TO.P,R7,1*%
%TO.N,/VBUS*%
X157820000Y-138000000D03*
%TO.P,R7,2*%
%TO.N,Net-(D2-A)*%
X157180000Y-138000000D03*
%TD*%
D18*
%TO.P,D2,1,K*%
%TO.N,Net-(D2-K)*%
X157180000Y-136000000D03*
%TO.P,D2,2,A*%
%TO.N,Net-(D2-A)*%
X157820000Y-136000000D03*
%TD*%
D14*
%TO.P,C4,1*%
%TO.N,/VBUS*%
X147500000Y-134820000D03*
%TO.P,C4,2*%
%TO.N,GND*%
X147500000Y-134180000D03*
%TD*%
D13*
%TO.P,R4,1*%
%TO.N,/TX*%
X157820000Y-140000000D03*
%TO.P,R4,2*%
%TO.N,Net-(D1-K)*%
X157180000Y-140000000D03*
%TD*%
D14*
%TO.P,R2,1*%
%TO.N,Net-(J1-CC2)*%
X146000000Y-134820000D03*
%TO.P,R2,2*%
%TO.N,GND*%
X146000000Y-134180000D03*
%TD*%
%TO.P,C3,1*%
%TO.N,/VBUS*%
X149000000Y-134820000D03*
%TO.P,C3,2*%
%TO.N,GND*%
X149000000Y-134180000D03*
%TD*%
D12*
%TO.P,D3,1*%
%TO.N,GND*%
X147000000Y-140000000D03*
%TO.P,D3,2*%
%TO.N,/D+*%
X147000000Y-138680000D03*
%TD*%
D23*
%TO.P,C2,1*%
%TO.N,/RST*%
X151500000Y-131835000D03*
%TO.P,C2,2*%
%TO.N,Net-(U1-~{DTR})*%
X151500000Y-132475000D03*
%TD*%
D13*
%TO.P,R5,1*%
%TO.N,/RX*%
X157820000Y-142000000D03*
%TO.P,R5,2*%
%TO.N,Net-(D2-K)*%
X157180000Y-142000000D03*
%TD*%
D24*
%TO.N,GND*%
X151750000Y-137750000D03*
X153000000Y-135250000D03*
X153000000Y-137000000D03*
X152250000Y-136500000D03*
X153500000Y-136750000D03*
X152500000Y-135750000D03*
X152250000Y-135250000D03*
X154250000Y-137250000D03*
X146750000Y-134250000D03*
X152750000Y-136000000D03*
X153250000Y-136250000D03*
X152500000Y-137000000D03*
X154250000Y-136000000D03*
X154250000Y-135250000D03*
X153750000Y-136000000D03*
X153250000Y-135750000D03*
X153000000Y-136500000D03*
X152500000Y-137500000D03*
X152000000Y-137250000D03*
X153000000Y-137750000D03*
X153500000Y-137500000D03*
X151750000Y-135250000D03*
X146000000Y-140000000D03*
X154250000Y-137750000D03*
X153750000Y-137000000D03*
X151750000Y-136750000D03*
X153750000Y-136500000D03*
X153750000Y-135250000D03*
X152000000Y-136000000D03*
%TO.N,Net-(U1-VDD)*%
X149500000Y-141000000D03*
X147750000Y-136250000D03*
%TO.N,/RST*%
X155250000Y-131750000D03*
%TO.N,/VBUS*%
X150750000Y-139750000D03*
X149000000Y-135750000D03*
X139500000Y-136750000D03*
%TO.N,Net-(D1-K)*%
X158750000Y-141250000D03*
X156750000Y-132500000D03*
%TO.N,Net-(D2-K)*%
X156500000Y-135500000D03*
X155750000Y-142750000D03*
%TO.N,/D+*%
X147000000Y-137750000D03*
X143750000Y-137250000D03*
%TO.N,/D-*%
X148500000Y-137750000D03*
X144750000Y-136250000D03*
%TO.N,Net-(J1-CC2)*%
X145000000Y-137500000D03*
%TD*%
%TO.N,GND*%
D25*
X136950000Y-132680000D02*
X141130000Y-132680000D01*
X150550000Y-136050000D02*
X150135614Y-136050000D01*
D26*
X157000000Y-130500000D02*
X149750000Y-130500000D01*
D25*
X144750000Y-140250000D02*
X145000000Y-140000000D01*
X149199999Y-134180000D02*
X149000000Y-134180000D01*
X146000000Y-134180000D02*
X144500000Y-134180000D01*
X136950000Y-141320000D02*
X141130000Y-141320000D01*
X142045000Y-133750000D02*
X142045000Y-133595000D01*
D26*
X149000000Y-131250000D02*
X149000000Y-134180000D01*
D25*
X142045000Y-133595000D02*
X141130000Y-132680000D01*
X145000000Y-140000000D02*
X146000000Y-140000000D01*
D26*
X149750000Y-130500000D02*
X149000000Y-131250000D01*
D25*
X142045000Y-133750000D02*
X144070000Y-133750000D01*
X147500000Y-134180000D02*
X146820000Y-134180000D01*
X146820000Y-134180000D02*
X146750000Y-134250000D01*
X149000000Y-134180000D02*
X147500000Y-134180000D01*
X146500000Y-135750000D02*
X146750000Y-135500000D01*
X146750000Y-135500000D02*
X146750000Y-134250000D01*
X141130000Y-141165000D02*
X142045000Y-140250000D01*
X141130000Y-141320000D02*
X141130000Y-141165000D01*
X142045000Y-140250000D02*
X144750000Y-140250000D01*
D26*
X158250000Y-130750000D02*
X157250000Y-130750000D01*
D25*
X149750000Y-134730001D02*
X149199999Y-134180000D01*
X149750000Y-135664386D02*
X149750000Y-134730001D01*
X148500000Y-140000000D02*
X147000000Y-140000000D01*
X144070000Y-133750000D02*
X144500000Y-134180000D01*
X150135614Y-136050000D02*
X149750000Y-135664386D01*
X146500000Y-136180000D02*
X146500000Y-135750000D01*
X150550000Y-136050000D02*
X151050000Y-136050000D01*
X146000000Y-140000000D02*
X147000000Y-140000000D01*
X151050000Y-136050000D02*
X151750000Y-136750000D01*
X146750000Y-134250000D02*
X146680000Y-134180000D01*
D26*
X157250000Y-130750000D02*
X157000000Y-130500000D01*
X159425000Y-131925000D02*
X158250000Y-130750000D01*
X163625000Y-131925000D02*
X159425000Y-131925000D01*
D25*
X146680000Y-134180000D02*
X146000000Y-134180000D01*
%TO.N,Net-(U1-VDD)*%
X150550000Y-137550000D02*
X150135614Y-137550000D01*
X149500000Y-138185614D02*
X149500000Y-141000000D01*
X147180000Y-136820000D02*
X147750000Y-136250000D01*
X146500000Y-136820000D02*
X147180000Y-136820000D01*
X150135614Y-137550000D02*
X149500000Y-138185614D01*
%TO.N,/RST*%
X155165000Y-131835000D02*
X155250000Y-131750000D01*
X151500000Y-131835000D02*
X155165000Y-131835000D01*
%TO.N,Net-(U1-~{DTR})*%
X151500000Y-134100000D02*
X151500000Y-132475000D01*
%TO.N,/VBUS*%
D26*
X139500000Y-136750000D02*
X139500000Y-138250000D01*
D25*
X151500000Y-139000000D02*
X150750000Y-139750000D01*
X150750000Y-139750000D02*
X150680000Y-139820000D01*
D26*
X141185305Y-134550000D02*
X140735305Y-135000000D01*
X163625000Y-134465000D02*
X158355000Y-134465000D01*
D25*
X155500000Y-139750000D02*
X155500000Y-140500000D01*
X158250000Y-135000000D02*
X157820000Y-135000000D01*
X150680000Y-140699999D02*
X150680000Y-140500000D01*
D26*
X140220000Y-138500000D02*
X140970000Y-139250000D01*
D25*
X157500000Y-138750000D02*
X156500000Y-138750000D01*
D26*
X139500000Y-135500000D02*
X139500000Y-136750000D01*
X142045000Y-134550000D02*
X141185305Y-134550000D01*
D25*
X158500000Y-138000000D02*
X159000000Y-137500000D01*
X156500000Y-138750000D02*
X155500000Y-139750000D01*
X157820000Y-138000000D02*
X157820000Y-138430000D01*
D26*
X140735305Y-135000000D02*
X140000000Y-135000000D01*
X143970000Y-138680000D02*
X145000000Y-138680000D01*
D25*
X149000000Y-134820000D02*
X147500000Y-134820000D01*
X150680000Y-139820000D02*
X150680000Y-140500000D01*
D26*
X158355000Y-134465000D02*
X157820000Y-135000000D01*
D25*
X151230001Y-141250000D02*
X150680000Y-140699999D01*
D26*
X142045000Y-139450000D02*
X143200000Y-139450000D01*
D25*
X154750000Y-141250000D02*
X151230001Y-141250000D01*
D26*
X143200000Y-139450000D02*
X143970000Y-138680000D01*
X141845000Y-139250000D02*
X142045000Y-139450000D01*
D25*
X157820000Y-138000000D02*
X158500000Y-138000000D01*
X155500000Y-140500000D02*
X154750000Y-141250000D01*
X157820000Y-138430000D02*
X157500000Y-138750000D01*
D26*
X139500000Y-138250000D02*
X139750000Y-138500000D01*
D25*
X159000000Y-137500000D02*
X159000000Y-135750000D01*
X159000000Y-135750000D02*
X158250000Y-135000000D01*
D26*
X139750000Y-138500000D02*
X140220000Y-138500000D01*
X140970000Y-139250000D02*
X141845000Y-139250000D01*
D25*
X149000000Y-134820000D02*
X149000000Y-135750000D01*
D26*
X140000000Y-135000000D02*
X139500000Y-135500000D01*
%TO.N,Net-(D1-K)*%
D25*
X157180000Y-140530000D02*
X157500000Y-140850000D01*
X157500000Y-140850000D02*
X158350000Y-140850000D01*
X157180000Y-140000000D02*
X157180000Y-140530000D01*
X153250000Y-132500000D02*
X156750000Y-132500000D01*
X152500000Y-134100000D02*
X152500000Y-133250000D01*
X158350000Y-140850000D02*
X158750000Y-141250000D01*
X156750000Y-132500000D02*
X157335000Y-132500000D01*
X152500000Y-133250000D02*
X153250000Y-132500000D01*
%TO.N,Net-(D1-A)*%
X157975000Y-133475000D02*
X157975000Y-132500000D01*
X157180000Y-134320000D02*
X158000000Y-133500000D01*
X158000000Y-133500000D02*
X157975000Y-133475000D01*
X157180000Y-135000000D02*
X157180000Y-134320000D01*
%TO.N,Net-(D2-A)*%
X157180000Y-138000000D02*
X157180000Y-137570000D01*
X157180000Y-137570000D02*
X157820000Y-136930000D01*
X157820000Y-136930000D02*
X157820000Y-136000000D01*
%TO.N,Net-(D2-K)*%
X156500000Y-133250000D02*
X156250000Y-133000000D01*
X157000000Y-136000000D02*
X156500000Y-135500000D01*
X156500000Y-135500000D02*
X156500000Y-133250000D01*
X157180000Y-136000000D02*
X157000000Y-136000000D01*
X157180000Y-142000000D02*
X156500000Y-142000000D01*
X153500000Y-133000000D02*
X153000000Y-133500000D01*
X153000000Y-133500000D02*
X153000000Y-134100000D01*
X156500000Y-142000000D02*
X155750000Y-142750000D01*
X156250000Y-133000000D02*
X153500000Y-133000000D01*
%TO.N,/D+*%
X148700000Y-136550000D02*
X147750000Y-137500000D01*
X143750000Y-137250000D02*
X143750000Y-137500000D01*
X143250000Y-136750000D02*
X143750000Y-137250000D01*
X147250000Y-137500000D02*
X147000000Y-137750000D01*
X142045000Y-136750000D02*
X143250000Y-136750000D01*
X147000000Y-137750000D02*
X147000000Y-138680000D01*
X147750000Y-137500000D02*
X147250000Y-137500000D01*
X143500000Y-137750000D02*
X142045000Y-137750000D01*
X150550000Y-136550000D02*
X148700000Y-136550000D01*
X143750000Y-137500000D02*
X143500000Y-137750000D01*
%TO.N,/D-*%
X148950000Y-137050000D02*
X148500000Y-137500000D01*
X140250000Y-137000000D02*
X140250000Y-136500000D01*
X144750000Y-136250000D02*
X142045000Y-136250000D01*
X140500000Y-137250000D02*
X140250000Y-137000000D01*
X148500000Y-137500000D02*
X148500000Y-137750000D01*
X142045000Y-136250000D02*
X140500000Y-136250000D01*
X140500000Y-136250000D02*
X140250000Y-136500000D01*
X148500000Y-137750000D02*
X148500000Y-138680000D01*
X142045000Y-137250000D02*
X140500000Y-137250000D01*
X150550000Y-137050000D02*
X148950000Y-137050000D01*
%TO.N,Net-(J1-CC2)*%
X146000000Y-135250000D02*
X145750000Y-135500000D01*
X143250000Y-138750000D02*
X144250000Y-137750000D01*
X144250000Y-137750000D02*
X144500000Y-137500000D01*
X145750000Y-135500000D02*
X145750000Y-136750000D01*
X144500000Y-137500000D02*
X145000000Y-137500000D01*
X145750000Y-136750000D02*
X145000000Y-137500000D01*
X146000000Y-134820000D02*
X146000000Y-135250000D01*
X142045000Y-138750000D02*
X143250000Y-138750000D01*
%TO.N,Net-(J1-CC1)*%
X142045000Y-135750000D02*
X143570000Y-135750000D01*
X143570000Y-135750000D02*
X144500000Y-134820000D01*
%TO.N,/TX*%
X163170000Y-140000000D02*
X163625000Y-139545000D01*
X157820000Y-140000000D02*
X163170000Y-140000000D01*
%TO.N,/RX*%
X156250000Y-139750000D02*
X156250000Y-140750000D01*
X163625000Y-137005000D02*
X161745000Y-137005000D01*
X160750000Y-139000000D02*
X160500000Y-139250000D01*
X157820000Y-141570000D02*
X157820000Y-142000000D01*
X156750000Y-139250000D02*
X156250000Y-139750000D01*
X160500000Y-139250000D02*
X156750000Y-139250000D01*
X156750000Y-141250000D02*
X157500000Y-141250000D01*
X161745000Y-137005000D02*
X160750000Y-138000000D01*
X160750000Y-138000000D02*
X160750000Y-139000000D01*
X156250000Y-140750000D02*
X156750000Y-141250000D01*
X157500000Y-141250000D02*
X157820000Y-141570000D01*
%TO.N,Net-(U1-~{RST})*%
X152000000Y-139820000D02*
X152000000Y-139000000D01*
X151320000Y-140500000D02*
X152000000Y-139820000D01*
%TD*%
%TA.AperFunction,Conductor*%
%TO.N,GND*%
G36*
X164006922Y-130001280D02*
G01*
X164097266Y-130011459D01*
X164124331Y-130017636D01*
X164203540Y-130045352D01*
X164228553Y-130057398D01*
X164299606Y-130102043D01*
X164321313Y-130119355D01*
X164380644Y-130178686D01*
X164397957Y-130200395D01*
X164442600Y-130271444D01*
X164454648Y-130296462D01*
X164482362Y-130375666D01*
X164488540Y-130402735D01*
X164492414Y-130437115D01*
X164480360Y-130505937D01*
X164433011Y-130557317D01*
X164369194Y-130575000D01*
X163875000Y-130575000D01*
X163875000Y-131491988D01*
X163817993Y-131459075D01*
X163690826Y-131425000D01*
X163559174Y-131425000D01*
X163432007Y-131459075D01*
X163375000Y-131491988D01*
X163375000Y-130575000D01*
X162727155Y-130575000D01*
X162667627Y-130581401D01*
X162667620Y-130581403D01*
X162532913Y-130631645D01*
X162532906Y-130631649D01*
X162417812Y-130717809D01*
X162417809Y-130717812D01*
X162331649Y-130832906D01*
X162331645Y-130832913D01*
X162281403Y-130967620D01*
X162281401Y-130967627D01*
X162275000Y-131027155D01*
X162275000Y-131675000D01*
X163191988Y-131675000D01*
X163159075Y-131732007D01*
X163125000Y-131859174D01*
X163125000Y-131990826D01*
X163159075Y-132117993D01*
X163191988Y-132175000D01*
X162275000Y-132175000D01*
X162275000Y-132822844D01*
X162281401Y-132882372D01*
X162281403Y-132882379D01*
X162331645Y-133017086D01*
X162331649Y-133017093D01*
X162417809Y-133132187D01*
X162417812Y-133132190D01*
X162532906Y-133218350D01*
X162532913Y-133218354D01*
X162664470Y-133267421D01*
X162720403Y-133309292D01*
X162744821Y-133374756D01*
X162729970Y-133443029D01*
X162708819Y-133471284D01*
X162586503Y-133593600D01*
X162483260Y-133741049D01*
X162472347Y-133756635D01*
X162468854Y-133761623D01*
X162414277Y-133805248D01*
X162367279Y-133814500D01*
X158699013Y-133814500D01*
X158631974Y-133794815D01*
X158586219Y-133742011D01*
X158576275Y-133672853D01*
X158579238Y-133658407D01*
X158600500Y-133579057D01*
X158600500Y-133420943D01*
X158579725Y-133343407D01*
X158575500Y-133311315D01*
X158575500Y-133015354D01*
X158595185Y-132948315D01*
X158601113Y-132939881D01*
X158629536Y-132902841D01*
X158690044Y-132756762D01*
X158705500Y-132639361D01*
X158705499Y-132360640D01*
X158705499Y-132360636D01*
X158690046Y-132243246D01*
X158690044Y-132243241D01*
X158690044Y-132243238D01*
X158629536Y-132097159D01*
X158533282Y-131971718D01*
X158407841Y-131875464D01*
X158396897Y-131870931D01*
X158261762Y-131814956D01*
X158261760Y-131814955D01*
X158144361Y-131799500D01*
X157805636Y-131799500D01*
X157688234Y-131814955D01*
X157687083Y-131815264D01*
X157685891Y-131815264D01*
X157680179Y-131816016D01*
X157680080Y-131815264D01*
X157629919Y-131815264D01*
X157629820Y-131816017D01*
X157624107Y-131815264D01*
X157622917Y-131815265D01*
X157621765Y-131814956D01*
X157504362Y-131799500D01*
X157175495Y-131799500D01*
X157109527Y-131780496D01*
X157099527Y-131774213D01*
X157099518Y-131774209D01*
X156929262Y-131714633D01*
X156929249Y-131714630D01*
X156750004Y-131694435D01*
X156749996Y-131694435D01*
X156570750Y-131714630D01*
X156570745Y-131714631D01*
X156400476Y-131774211D01*
X156244371Y-131872299D01*
X156177134Y-131891299D01*
X156110299Y-131870931D01*
X156065085Y-131817663D01*
X156055727Y-131756963D01*
X156055565Y-131756963D01*
X156055565Y-131755910D01*
X156055180Y-131753413D01*
X156055565Y-131749998D01*
X156055565Y-131749996D01*
X156035369Y-131570750D01*
X156035368Y-131570745D01*
X155996293Y-131459075D01*
X155975789Y-131400478D01*
X155879816Y-131247738D01*
X155752262Y-131120184D01*
X155727301Y-131104500D01*
X155599523Y-131024211D01*
X155429254Y-130964631D01*
X155429249Y-130964630D01*
X155250004Y-130944435D01*
X155249996Y-130944435D01*
X155070750Y-130964630D01*
X155070745Y-130964631D01*
X154900476Y-131024211D01*
X154747737Y-131120184D01*
X154669741Y-131198181D01*
X154608418Y-131231666D01*
X154582060Y-131234500D01*
X152015354Y-131234500D01*
X151948315Y-131214815D01*
X151939881Y-131208886D01*
X151902841Y-131180464D01*
X151902838Y-131180463D01*
X151902836Y-131180461D01*
X151756765Y-131119957D01*
X151756760Y-131119955D01*
X151639361Y-131104500D01*
X151360636Y-131104500D01*
X151243246Y-131119953D01*
X151243237Y-131119956D01*
X151097160Y-131180463D01*
X150971718Y-131276718D01*
X150875463Y-131402160D01*
X150814956Y-131548237D01*
X150814955Y-131548239D01*
X150799500Y-131665638D01*
X150799500Y-132004363D01*
X150814955Y-132121763D01*
X150815263Y-132122912D01*
X150815263Y-132124101D01*
X150816016Y-132129821D01*
X150815263Y-132129920D01*
X150815265Y-132180081D01*
X150816017Y-132180180D01*
X150815265Y-132185884D01*
X150815266Y-132187079D01*
X150814956Y-132188234D01*
X150799500Y-132305638D01*
X150799500Y-132644363D01*
X150814953Y-132761753D01*
X150814957Y-132761765D01*
X150875461Y-132907836D01*
X150879526Y-132914876D01*
X150877783Y-132915882D01*
X150899069Y-132970932D01*
X150899500Y-132981257D01*
X150899500Y-133565492D01*
X150890062Y-133612942D01*
X150888992Y-133615524D01*
X150888990Y-133615529D01*
X150874501Y-133725589D01*
X150874500Y-133725605D01*
X150874500Y-134300500D01*
X150854815Y-134367539D01*
X150802011Y-134413294D01*
X150750500Y-134424500D01*
X150175596Y-134424500D01*
X150065536Y-134438988D01*
X150065527Y-134438991D01*
X149928573Y-134495719D01*
X149928566Y-134495723D01*
X149890372Y-134525030D01*
X149825203Y-134550223D01*
X149756758Y-134536183D01*
X149706769Y-134487368D01*
X149691108Y-134419277D01*
X149691949Y-134410466D01*
X149695960Y-134380000D01*
X149680193Y-134380000D01*
X149613154Y-134360315D01*
X149581817Y-134331487D01*
X149528282Y-134261718D01*
X149450943Y-134202374D01*
X149409743Y-134145948D01*
X149405588Y-134076202D01*
X149439801Y-134015281D01*
X149501518Y-133982529D01*
X149526432Y-133980000D01*
X149695959Y-133980000D01*
X149695960Y-133979998D01*
X149684557Y-133893372D01*
X149684555Y-133893366D01*
X149624100Y-133747414D01*
X149527924Y-133622075D01*
X149402586Y-133525899D01*
X149256631Y-133465444D01*
X149200000Y-133457987D01*
X149200000Y-133965500D01*
X149180315Y-134032539D01*
X149127511Y-134078294D01*
X149076000Y-134089500D01*
X148924000Y-134089500D01*
X148856961Y-134069815D01*
X148811206Y-134017011D01*
X148800000Y-133965500D01*
X148800000Y-133457987D01*
X148743368Y-133465444D01*
X148597413Y-133525899D01*
X148472075Y-133622075D01*
X148375900Y-133747412D01*
X148364561Y-133774788D01*
X148320720Y-133829191D01*
X148254425Y-133851256D01*
X148186726Y-133833977D01*
X148139116Y-133782839D01*
X148135439Y-133774788D01*
X148124099Y-133747412D01*
X148027924Y-133622075D01*
X147902586Y-133525899D01*
X147756631Y-133465444D01*
X147700000Y-133457987D01*
X147700000Y-133965500D01*
X147680315Y-134032539D01*
X147627511Y-134078294D01*
X147576000Y-134089500D01*
X147424000Y-134089500D01*
X147356961Y-134069815D01*
X147311206Y-134017011D01*
X147300000Y-133965500D01*
X147300000Y-133457987D01*
X147243368Y-133465444D01*
X147097413Y-133525899D01*
X146972075Y-133622075D01*
X146875900Y-133747412D01*
X146864561Y-133774788D01*
X146820720Y-133829191D01*
X146754425Y-133851256D01*
X146686726Y-133833977D01*
X146639116Y-133782839D01*
X146635439Y-133774788D01*
X146624099Y-133747412D01*
X146527924Y-133622075D01*
X146402586Y-133525899D01*
X146256631Y-133465444D01*
X146200000Y-133457987D01*
X146200000Y-133965500D01*
X146180315Y-134032539D01*
X146127511Y-134078294D01*
X146076000Y-134089500D01*
X145924000Y-134089500D01*
X145856961Y-134069815D01*
X145811206Y-134017011D01*
X145800000Y-133965500D01*
X145800000Y-133457987D01*
X145743368Y-133465444D01*
X145597413Y-133525899D01*
X145472075Y-133622075D01*
X145375900Y-133747412D01*
X145364561Y-133774788D01*
X145320720Y-133829191D01*
X145254425Y-133851256D01*
X145186726Y-133833977D01*
X145139116Y-133782839D01*
X145135439Y-133774788D01*
X145124099Y-133747412D01*
X145027924Y-133622075D01*
X144902586Y-133525899D01*
X144756631Y-133465444D01*
X144700000Y-133457987D01*
X144700000Y-133965500D01*
X144680315Y-134032539D01*
X144627511Y-134078294D01*
X144576000Y-134089500D01*
X144424000Y-134089500D01*
X144356961Y-134069815D01*
X144311206Y-134017011D01*
X144300000Y-133965500D01*
X144300000Y-133457987D01*
X144243368Y-133465444D01*
X144097413Y-133525899D01*
X143972075Y-133622075D01*
X143875899Y-133747413D01*
X143815445Y-133893365D01*
X143815444Y-133893369D01*
X143804038Y-133980000D01*
X143973568Y-133980000D01*
X144040607Y-133999685D01*
X144086362Y-134052489D01*
X144096306Y-134121647D01*
X144067281Y-134185203D01*
X144049058Y-134202372D01*
X143971718Y-134261718D01*
X143923684Y-134324318D01*
X143918183Y-134331487D01*
X143861755Y-134372689D01*
X143819807Y-134380000D01*
X143804041Y-134380000D01*
X143804039Y-134380001D01*
X143815442Y-134466628D01*
X143815525Y-134466935D01*
X143815525Y-134467251D01*
X143816504Y-134474689D01*
X143815525Y-134474817D01*
X143815526Y-134525118D01*
X143816017Y-134525183D01*
X143815526Y-134528905D01*
X143815527Y-134531106D01*
X143814956Y-134533234D01*
X143801866Y-134632661D01*
X143773599Y-134696557D01*
X143766608Y-134704155D01*
X143482180Y-134988583D01*
X143420857Y-135022068D01*
X143351165Y-135017084D01*
X143295232Y-134975212D01*
X143270815Y-134909748D01*
X143270499Y-134900902D01*
X143270499Y-134897882D01*
X143270500Y-134897873D01*
X143270499Y-134202128D01*
X143266067Y-134160898D01*
X143266068Y-134134393D01*
X143269999Y-134097833D01*
X143270000Y-134097819D01*
X143270000Y-134000000D01*
X143269948Y-133999948D01*
X143203085Y-133980315D01*
X143170859Y-133950313D01*
X143127546Y-133892454D01*
X143072513Y-133851256D01*
X143012335Y-133806206D01*
X143012328Y-133806202D01*
X142877482Y-133755908D01*
X142877483Y-133755908D01*
X142817883Y-133749501D01*
X142817881Y-133749500D01*
X142817873Y-133749500D01*
X142817864Y-133749500D01*
X141272129Y-133749500D01*
X141272123Y-133749501D01*
X141212516Y-133755908D01*
X141175942Y-133769550D01*
X141106250Y-133774534D01*
X141044929Y-133741049D01*
X141015561Y-133711681D01*
X140982076Y-133650358D01*
X140987060Y-133580666D01*
X141028932Y-133524733D01*
X141094396Y-133500316D01*
X141103242Y-133500000D01*
X141795000Y-133500000D01*
X142295000Y-133500000D01*
X143270000Y-133500000D01*
X143270000Y-133402172D01*
X143269999Y-133402155D01*
X143263598Y-133342627D01*
X143263596Y-133342620D01*
X143213354Y-133207913D01*
X143213350Y-133207906D01*
X143127190Y-133092812D01*
X143127187Y-133092809D01*
X143012093Y-133006649D01*
X143012086Y-133006645D01*
X142877379Y-132956403D01*
X142877372Y-132956401D01*
X142817844Y-132950000D01*
X142724924Y-132950000D01*
X142657885Y-132930315D01*
X142657531Y-132930000D01*
X142295000Y-132930000D01*
X142295000Y-133500000D01*
X141795000Y-133500000D01*
X141795000Y-132959769D01*
X141795796Y-132959556D01*
X141864205Y-132920060D01*
X141920060Y-132864205D01*
X141959556Y-132795796D01*
X141980000Y-132719496D01*
X141980000Y-132640504D01*
X141959556Y-132564204D01*
X141920060Y-132495795D01*
X141864205Y-132439940D01*
X141846988Y-132430000D01*
X142649862Y-132430000D01*
X142641569Y-132388309D01*
X142641569Y-132388307D01*
X142566192Y-132206328D01*
X142566185Y-132206315D01*
X142456751Y-132042537D01*
X142456748Y-132042533D01*
X142317466Y-131903251D01*
X142317462Y-131903248D01*
X142153684Y-131793814D01*
X142153671Y-131793807D01*
X141971693Y-131718430D01*
X141971681Y-131718427D01*
X141778495Y-131680000D01*
X141380000Y-131680000D01*
X141380000Y-132380000D01*
X140880000Y-132380000D01*
X140880000Y-131680000D01*
X140481504Y-131680000D01*
X140288318Y-131718427D01*
X140288306Y-131718430D01*
X140106328Y-131793807D01*
X140106315Y-131793814D01*
X139942537Y-131903248D01*
X139942533Y-131903251D01*
X139803251Y-132042533D01*
X139803248Y-132042537D01*
X139693814Y-132206315D01*
X139693807Y-132206328D01*
X139618430Y-132388307D01*
X139618430Y-132388309D01*
X139610138Y-132430000D01*
X140413012Y-132430000D01*
X140395795Y-132439940D01*
X140339940Y-132495795D01*
X140300444Y-132564204D01*
X140280000Y-132640504D01*
X140280000Y-132719496D01*
X140300444Y-132795796D01*
X140339940Y-132864205D01*
X140395795Y-132920060D01*
X140413012Y-132930000D01*
X139610138Y-132930000D01*
X139618430Y-132971690D01*
X139618430Y-132971692D01*
X139693807Y-133153671D01*
X139693814Y-133153684D01*
X139803248Y-133317462D01*
X139803251Y-133317466D01*
X139942533Y-133456748D01*
X139942537Y-133456751D01*
X140111387Y-133569574D01*
X140110430Y-133571005D01*
X140154425Y-133614211D01*
X140169895Y-133682346D01*
X140146072Y-133748029D01*
X140144309Y-133750094D01*
X140144432Y-133750189D01*
X140139485Y-133756635D01*
X140063719Y-133887863D01*
X140062489Y-133892454D01*
X140024500Y-134034234D01*
X140024500Y-134185766D01*
X140027404Y-134196607D01*
X140025742Y-134266455D01*
X139986580Y-134324318D01*
X139931823Y-134350316D01*
X139810260Y-134374497D01*
X139810255Y-134374499D01*
X139746444Y-134400931D01*
X139746443Y-134400931D01*
X139691876Y-134423532D01*
X139585326Y-134494726D01*
X138994724Y-135085328D01*
X138951193Y-135150477D01*
X138951194Y-135150478D01*
X138923534Y-135191874D01*
X138874499Y-135310255D01*
X138874497Y-135310261D01*
X138849500Y-135435928D01*
X138849500Y-136244931D01*
X138830494Y-136310903D01*
X138774211Y-136400477D01*
X138774209Y-136400481D01*
X138714633Y-136570737D01*
X138714630Y-136570750D01*
X138694435Y-136749996D01*
X138694435Y-136750003D01*
X138714630Y-136929249D01*
X138714631Y-136929254D01*
X138774211Y-137099524D01*
X138830493Y-137189094D01*
X138849500Y-137255067D01*
X138849500Y-138314069D01*
X138849500Y-138314071D01*
X138849499Y-138314071D01*
X138870054Y-138417399D01*
X138874499Y-138439744D01*
X138923535Y-138558127D01*
X138951848Y-138600501D01*
X138994726Y-138664673D01*
X139335327Y-139005274D01*
X139433824Y-139071087D01*
X139433823Y-139071087D01*
X139433827Y-139071088D01*
X139441873Y-139076465D01*
X139560256Y-139125501D01*
X139560260Y-139125501D01*
X139560261Y-139125502D01*
X139685928Y-139150500D01*
X139685931Y-139150500D01*
X139899192Y-139150500D01*
X139966231Y-139170185D01*
X139986868Y-139186814D01*
X140150407Y-139350352D01*
X140183891Y-139411674D01*
X140178907Y-139481365D01*
X140150409Y-139525711D01*
X140139485Y-139536635D01*
X140063719Y-139667863D01*
X140024500Y-139814234D01*
X140024500Y-139965765D01*
X140063719Y-140112136D01*
X140071281Y-140125233D01*
X140139485Y-140243365D01*
X140139488Y-140243368D01*
X140144432Y-140249811D01*
X140141612Y-140251974D01*
X140167302Y-140299020D01*
X140162318Y-140368712D01*
X140120446Y-140424645D01*
X140111379Y-140430416D01*
X140111387Y-140430427D01*
X139942536Y-140543248D01*
X139803251Y-140682533D01*
X139803248Y-140682537D01*
X139693814Y-140846315D01*
X139693807Y-140846328D01*
X139618430Y-141028307D01*
X139618430Y-141028309D01*
X139610138Y-141070000D01*
X140413012Y-141070000D01*
X140395795Y-141079940D01*
X140339940Y-141135795D01*
X140300444Y-141204204D01*
X140280000Y-141280504D01*
X140280000Y-141359496D01*
X140300444Y-141435796D01*
X140339940Y-141504205D01*
X140395795Y-141560060D01*
X140413012Y-141570000D01*
X139610138Y-141570000D01*
X139618430Y-141611690D01*
X139618430Y-141611692D01*
X139693807Y-141793671D01*
X139693814Y-141793684D01*
X139803248Y-141957462D01*
X139803251Y-141957466D01*
X139942533Y-142096748D01*
X139942537Y-142096751D01*
X140106315Y-142206185D01*
X140106328Y-142206192D01*
X140288306Y-142281569D01*
X140288318Y-142281572D01*
X140481504Y-142319999D01*
X140481508Y-142320000D01*
X140880000Y-142320000D01*
X140880000Y-141620000D01*
X141380000Y-141620000D01*
X141380000Y-142320000D01*
X141778492Y-142320000D01*
X141778495Y-142319999D01*
X141971681Y-142281572D01*
X141971693Y-142281569D01*
X142153671Y-142206192D01*
X142153684Y-142206185D01*
X142317462Y-142096751D01*
X142317466Y-142096748D01*
X142456748Y-141957466D01*
X142456751Y-141957462D01*
X142566185Y-141793684D01*
X142566192Y-141793671D01*
X142641569Y-141611692D01*
X142641569Y-141611690D01*
X142649862Y-141570000D01*
X141846988Y-141570000D01*
X141864205Y-141560060D01*
X141920060Y-141504205D01*
X141959556Y-141435796D01*
X141980000Y-141359496D01*
X141980000Y-141280504D01*
X141959556Y-141204204D01*
X141920060Y-141135795D01*
X141864205Y-141079940D01*
X141846988Y-141070000D01*
X142666265Y-141070000D01*
X142686818Y-141056000D01*
X142724924Y-141050000D01*
X142817828Y-141050000D01*
X142817844Y-141049999D01*
X142877372Y-141043598D01*
X142877379Y-141043596D01*
X143012086Y-140993354D01*
X143012093Y-140993350D01*
X143127187Y-140907190D01*
X143127190Y-140907187D01*
X143213350Y-140792093D01*
X143213354Y-140792086D01*
X143263596Y-140657379D01*
X143263598Y-140657372D01*
X143269999Y-140597844D01*
X143270000Y-140597827D01*
X143270000Y-140500000D01*
X141103242Y-140500000D01*
X141036203Y-140480315D01*
X140990448Y-140427511D01*
X140980504Y-140358353D01*
X141009529Y-140294797D01*
X141015545Y-140288334D01*
X141016035Y-140287844D01*
X144300000Y-140287844D01*
X144306401Y-140347372D01*
X144306403Y-140347379D01*
X144356645Y-140482086D01*
X144356649Y-140482093D01*
X144442809Y-140597187D01*
X144442812Y-140597190D01*
X144557906Y-140683350D01*
X144557913Y-140683354D01*
X144692620Y-140733596D01*
X144692627Y-140733598D01*
X144752155Y-140739999D01*
X144752172Y-140740000D01*
X144800000Y-140740000D01*
X145200000Y-140740000D01*
X145247828Y-140740000D01*
X145247844Y-140739999D01*
X145307372Y-140733598D01*
X145307379Y-140733596D01*
X145442086Y-140683354D01*
X145442093Y-140683350D01*
X145557187Y-140597190D01*
X145557190Y-140597187D01*
X145643350Y-140482093D01*
X145643354Y-140482086D01*
X145693596Y-140347379D01*
X145693598Y-140347372D01*
X145699999Y-140287844D01*
X146300000Y-140287844D01*
X146306401Y-140347372D01*
X146306403Y-140347379D01*
X146356645Y-140482086D01*
X146356649Y-140482093D01*
X146442809Y-140597187D01*
X146442812Y-140597190D01*
X146557906Y-140683350D01*
X146557913Y-140683354D01*
X146692620Y-140733596D01*
X146692627Y-140733598D01*
X146752155Y-140739999D01*
X146752172Y-140740000D01*
X146800000Y-140740000D01*
X146800000Y-140200000D01*
X146300000Y-140200000D01*
X146300000Y-140287844D01*
X145699999Y-140287844D01*
X145700000Y-140287827D01*
X145700000Y-140200000D01*
X145200000Y-140200000D01*
X145200000Y-140740000D01*
X144800000Y-140740000D01*
X144800000Y-140200000D01*
X144300000Y-140200000D01*
X144300000Y-140287844D01*
X141016035Y-140287844D01*
X141044930Y-140258949D01*
X141106249Y-140225466D01*
X141175941Y-140230449D01*
X141175942Y-140230450D01*
X141206296Y-140241771D01*
X141212517Y-140244091D01*
X141272127Y-140250500D01*
X142817872Y-140250499D01*
X142877483Y-140244091D01*
X143012331Y-140193796D01*
X143070819Y-140150011D01*
X143103920Y-140125233D01*
X143169385Y-140100816D01*
X143178231Y-140100500D01*
X143264071Y-140100500D01*
X143348615Y-140083682D01*
X143389744Y-140075501D01*
X143508127Y-140026465D01*
X143534770Y-140008663D01*
X143614669Y-139955277D01*
X144134782Y-139435163D01*
X144196103Y-139401680D01*
X144265794Y-139406664D01*
X144321728Y-139448535D01*
X144346145Y-139514000D01*
X144338643Y-139566178D01*
X144306403Y-139652617D01*
X144306401Y-139652627D01*
X144300000Y-139712155D01*
X144300000Y-139800000D01*
X145700000Y-139800000D01*
X145700000Y-139712172D01*
X145699999Y-139712155D01*
X145693598Y-139652627D01*
X145693596Y-139652620D01*
X145643354Y-139517913D01*
X145643352Y-139517910D01*
X145566110Y-139414729D01*
X145541692Y-139349265D01*
X145556543Y-139280992D01*
X145566105Y-139266111D01*
X145643796Y-139162331D01*
X145694091Y-139027483D01*
X145700500Y-138967873D01*
X145700499Y-138392128D01*
X145694091Y-138332517D01*
X145687210Y-138314069D01*
X145643797Y-138197671D01*
X145643795Y-138197668D01*
X145630235Y-138179554D01*
X145618545Y-138163938D01*
X145594128Y-138098476D01*
X145608979Y-138030203D01*
X145625691Y-138007878D01*
X145625475Y-138007706D01*
X145629815Y-138002263D01*
X145634553Y-137994723D01*
X145725789Y-137849522D01*
X145785368Y-137679255D01*
X145795161Y-137592329D01*
X145822226Y-137527918D01*
X145830690Y-137518543D01*
X145894392Y-137454841D01*
X145955713Y-137421358D01*
X146025405Y-137426342D01*
X146057558Y-137444149D01*
X146097157Y-137474535D01*
X146133534Y-137489603D01*
X146187937Y-137533444D01*
X146210002Y-137599738D01*
X146209301Y-137618047D01*
X146194435Y-137749995D01*
X146194435Y-137750003D01*
X146214630Y-137929249D01*
X146214633Y-137929262D01*
X146274209Y-138099520D01*
X146316030Y-138166078D01*
X146335030Y-138233315D01*
X146327218Y-138275381D01*
X146305910Y-138332511D01*
X146305909Y-138332515D01*
X146305909Y-138332517D01*
X146299500Y-138392127D01*
X146299500Y-138392134D01*
X146299500Y-138392135D01*
X146299500Y-138967870D01*
X146299501Y-138967876D01*
X146305908Y-139027483D01*
X146356202Y-139162328D01*
X146356206Y-139162335D01*
X146433889Y-139266105D01*
X146458307Y-139331569D01*
X146443456Y-139399842D01*
X146433890Y-139414727D01*
X146356647Y-139517910D01*
X146356645Y-139517913D01*
X146306403Y-139652620D01*
X146306401Y-139652627D01*
X146300000Y-139712155D01*
X146300000Y-139800000D01*
X147076000Y-139800000D01*
X147143039Y-139819685D01*
X147188794Y-139872489D01*
X147200000Y-139924000D01*
X147200000Y-140740000D01*
X147247828Y-140740000D01*
X147247844Y-140739999D01*
X147307372Y-140733598D01*
X147307379Y-140733596D01*
X147442086Y-140683354D01*
X147442093Y-140683350D01*
X147557187Y-140597190D01*
X147557190Y-140597187D01*
X147648669Y-140474989D01*
X147650728Y-140476530D01*
X147690570Y-140436687D01*
X147758843Y-140421834D01*
X147824308Y-140446249D01*
X147850045Y-140475951D01*
X147851331Y-140474989D01*
X147942809Y-140597187D01*
X147942812Y-140597190D01*
X148057906Y-140683350D01*
X148057913Y-140683354D01*
X148192620Y-140733596D01*
X148192627Y-140733598D01*
X148252155Y-140739999D01*
X148252172Y-140740000D01*
X148300000Y-140740000D01*
X148300000Y-139924000D01*
X148319685Y-139856961D01*
X148372489Y-139811206D01*
X148424000Y-139800000D01*
X148576000Y-139800000D01*
X148643039Y-139819685D01*
X148688794Y-139872489D01*
X148700000Y-139924000D01*
X148700000Y-140757374D01*
X148712586Y-140780424D01*
X148714640Y-140820665D01*
X148694435Y-140999996D01*
X148694435Y-141000003D01*
X148714630Y-141179249D01*
X148714631Y-141179254D01*
X148774211Y-141349523D01*
X148852201Y-141473642D01*
X148870184Y-141502262D01*
X148997738Y-141629816D01*
X149150478Y-141725789D01*
X149320745Y-141785368D01*
X149320750Y-141785369D01*
X149499996Y-141805565D01*
X149500000Y-141805565D01*
X149500004Y-141805565D01*
X149679249Y-141785369D01*
X149679252Y-141785368D01*
X149679255Y-141785368D01*
X149849522Y-141725789D01*
X150002262Y-141629816D01*
X150129816Y-141502262D01*
X150225789Y-141349522D01*
X150226576Y-141347271D01*
X150227482Y-141346008D01*
X150228812Y-141343247D01*
X150229295Y-141343479D01*
X150267293Y-141290493D01*
X150332244Y-141264740D01*
X150400807Y-141278191D01*
X150431302Y-141300536D01*
X150745140Y-141614374D01*
X150745150Y-141614385D01*
X150749480Y-141618715D01*
X150749481Y-141618716D01*
X150861285Y-141730520D01*
X150926577Y-141768216D01*
X150998216Y-141809577D01*
X151150944Y-141850501D01*
X151150947Y-141850501D01*
X151316654Y-141850501D01*
X151316670Y-141850500D01*
X154663331Y-141850500D01*
X154663347Y-141850501D01*
X154670943Y-141850501D01*
X154829054Y-141850501D01*
X154829057Y-141850501D01*
X154981785Y-141809577D01*
X155053424Y-141768216D01*
X155118716Y-141730520D01*
X155230520Y-141618716D01*
X155230520Y-141618714D01*
X155240724Y-141608511D01*
X155240728Y-141608506D01*
X155662318Y-141186916D01*
X155723641Y-141153431D01*
X155793333Y-141158415D01*
X155837680Y-141186916D01*
X156063083Y-141412319D01*
X156096568Y-141473642D01*
X156091584Y-141543334D01*
X156063083Y-141587681D01*
X156019478Y-141631286D01*
X155731465Y-141919298D01*
X155670142Y-141952783D01*
X155657668Y-141954837D01*
X155570750Y-141964630D01*
X155400478Y-142024210D01*
X155247737Y-142120184D01*
X155120184Y-142247737D01*
X155024211Y-142400476D01*
X154964631Y-142570745D01*
X154964630Y-142570750D01*
X154944435Y-142749996D01*
X154944435Y-142750003D01*
X154964630Y-142929249D01*
X154964631Y-142929254D01*
X155024211Y-143099523D01*
X155039274Y-143123495D01*
X155120184Y-143252262D01*
X155247738Y-143379816D01*
X155400478Y-143475789D01*
X155489451Y-143506922D01*
X155570745Y-143535368D01*
X155570750Y-143535369D01*
X155749996Y-143555565D01*
X155750000Y-143555565D01*
X155750004Y-143555565D01*
X155929249Y-143535369D01*
X155929252Y-143535368D01*
X155929255Y-143535368D01*
X156099522Y-143475789D01*
X156252262Y-143379816D01*
X156379816Y-143252262D01*
X156475789Y-143099522D01*
X156535368Y-142929255D01*
X156545161Y-142842329D01*
X156572226Y-142777918D01*
X156580690Y-142768543D01*
X156672691Y-142676542D01*
X156734012Y-142643059D01*
X156803704Y-142648043D01*
X156807822Y-142649664D01*
X156859371Y-142671016D01*
X156893238Y-142685044D01*
X157010639Y-142700500D01*
X157349360Y-142700499D01*
X157349363Y-142700499D01*
X157466755Y-142685045D01*
X157466755Y-142685044D01*
X157466762Y-142685044D01*
X157466767Y-142685041D01*
X157467900Y-142684739D01*
X157469085Y-142684738D01*
X157474821Y-142683984D01*
X157474920Y-142684738D01*
X157525080Y-142684737D01*
X157525180Y-142683983D01*
X157530907Y-142684737D01*
X157532091Y-142684737D01*
X157533234Y-142685043D01*
X157533236Y-142685043D01*
X157533238Y-142685044D01*
X157650639Y-142700500D01*
X157989360Y-142700499D01*
X157989363Y-142700499D01*
X158106753Y-142685046D01*
X158106757Y-142685044D01*
X158106762Y-142685044D01*
X158252841Y-142624536D01*
X158378282Y-142528282D01*
X158474536Y-142402841D01*
X158535044Y-142256762D01*
X158548401Y-142155300D01*
X158576667Y-142091405D01*
X158634992Y-142052934D01*
X158685223Y-142048267D01*
X158749996Y-142055565D01*
X158750000Y-142055565D01*
X158750004Y-142055565D01*
X158929249Y-142035369D01*
X158929252Y-142035368D01*
X158929255Y-142035368D01*
X159099522Y-141975789D01*
X159252262Y-141879816D01*
X159379816Y-141752262D01*
X159475789Y-141599522D01*
X159535368Y-141429255D01*
X159535369Y-141429249D01*
X159555565Y-141250003D01*
X159555565Y-141249996D01*
X159535369Y-141070750D01*
X159535368Y-141070745D01*
X159475788Y-140900475D01*
X159406668Y-140790473D01*
X159387667Y-140723236D01*
X159408034Y-140656401D01*
X159461302Y-140611186D01*
X159511661Y-140600500D01*
X162738787Y-140600500D01*
X162805826Y-140620185D01*
X162809910Y-140622925D01*
X162939158Y-140713425D01*
X162982783Y-140768002D01*
X162989977Y-140837500D01*
X162958454Y-140899855D01*
X162939158Y-140916575D01*
X162753597Y-141046505D01*
X162586505Y-141213597D01*
X162450965Y-141407169D01*
X162450964Y-141407171D01*
X162379671Y-141560060D01*
X162351721Y-141620000D01*
X162351098Y-141621335D01*
X162351094Y-141621344D01*
X162289938Y-141849586D01*
X162289936Y-141849596D01*
X162269341Y-142084999D01*
X162269341Y-142085000D01*
X162289936Y-142320403D01*
X162289938Y-142320413D01*
X162351094Y-142548655D01*
X162351096Y-142548659D01*
X162351097Y-142548663D01*
X162421900Y-142700500D01*
X162450965Y-142762830D01*
X162450967Y-142762834D01*
X162559281Y-142917521D01*
X162586505Y-142956401D01*
X162753599Y-143123495D01*
X162850384Y-143191265D01*
X162947165Y-143259032D01*
X162947167Y-143259033D01*
X162947170Y-143259035D01*
X163161337Y-143358903D01*
X163161343Y-143358904D01*
X163161344Y-143358905D01*
X163216285Y-143373626D01*
X163389592Y-143420063D01*
X163577918Y-143436539D01*
X163624999Y-143440659D01*
X163625000Y-143440659D01*
X163625001Y-143440659D01*
X163664234Y-143437226D01*
X163860408Y-143420063D01*
X164088663Y-143358903D01*
X164302830Y-143259035D01*
X164303767Y-143258378D01*
X164304376Y-143257953D01*
X164305164Y-143257687D01*
X164307522Y-143256326D01*
X164307795Y-143256799D01*
X164370582Y-143235625D01*
X164438349Y-143252635D01*
X164486163Y-143303582D01*
X164499500Y-143359527D01*
X164499500Y-143493038D01*
X164498720Y-143506923D01*
X164488540Y-143597264D01*
X164482362Y-143624333D01*
X164454648Y-143703537D01*
X164442600Y-143728555D01*
X164397957Y-143799604D01*
X164380644Y-143821313D01*
X164321313Y-143880644D01*
X164299604Y-143897957D01*
X164228555Y-143942600D01*
X164203537Y-143954648D01*
X164124333Y-143982362D01*
X164097264Y-143988540D01*
X164017075Y-143997576D01*
X164006921Y-143998720D01*
X163993038Y-143999500D01*
X135006962Y-143999500D01*
X134993078Y-143998720D01*
X134980553Y-143997308D01*
X134902735Y-143988540D01*
X134875666Y-143982362D01*
X134796462Y-143954648D01*
X134771444Y-143942600D01*
X134700395Y-143897957D01*
X134678686Y-143880644D01*
X134619355Y-143821313D01*
X134602042Y-143799604D01*
X134557399Y-143728555D01*
X134545351Y-143703537D01*
X134517637Y-143624333D01*
X134511459Y-143597263D01*
X134501280Y-143506922D01*
X134500500Y-143493038D01*
X134500500Y-141070000D01*
X135680138Y-141070000D01*
X136483012Y-141070000D01*
X136465795Y-141079940D01*
X136409940Y-141135795D01*
X136370444Y-141204204D01*
X136350000Y-141280504D01*
X136350000Y-141359496D01*
X136370444Y-141435796D01*
X136409940Y-141504205D01*
X136465795Y-141560060D01*
X136483012Y-141570000D01*
X135680138Y-141570000D01*
X135688430Y-141611690D01*
X135688430Y-141611692D01*
X135763807Y-141793671D01*
X135763814Y-141793684D01*
X135873248Y-141957462D01*
X135873251Y-141957466D01*
X136012533Y-142096748D01*
X136012537Y-142096751D01*
X136176315Y-142206185D01*
X136176328Y-142206192D01*
X136358306Y-142281569D01*
X136358318Y-142281572D01*
X136551504Y-142319999D01*
X136551508Y-142320000D01*
X136700000Y-142320000D01*
X136700000Y-141620000D01*
X137200000Y-141620000D01*
X137200000Y-142320000D01*
X137348492Y-142320000D01*
X137348495Y-142319999D01*
X137541681Y-142281572D01*
X137541693Y-142281569D01*
X137723671Y-142206192D01*
X137723684Y-142206185D01*
X137887462Y-142096751D01*
X137887466Y-142096748D01*
X138026748Y-141957466D01*
X138026751Y-141957462D01*
X138136185Y-141793684D01*
X138136192Y-141793671D01*
X138211569Y-141611692D01*
X138211569Y-141611690D01*
X138219862Y-141570000D01*
X137416988Y-141570000D01*
X137434205Y-141560060D01*
X137490060Y-141504205D01*
X137529556Y-141435796D01*
X137550000Y-141359496D01*
X137550000Y-141280504D01*
X137529556Y-141204204D01*
X137490060Y-141135795D01*
X137434205Y-141079940D01*
X137416988Y-141070000D01*
X138219862Y-141070000D01*
X138211569Y-141028309D01*
X138211569Y-141028307D01*
X138136192Y-140846328D01*
X138136185Y-140846315D01*
X138026751Y-140682537D01*
X138026748Y-140682533D01*
X137887466Y-140543251D01*
X137887462Y-140543248D01*
X137723684Y-140433814D01*
X137723671Y-140433807D01*
X137541693Y-140358430D01*
X137541681Y-140358427D01*
X137348495Y-140320000D01*
X137200000Y-140320000D01*
X137200000Y-141020000D01*
X136700000Y-141020000D01*
X136700000Y-140320000D01*
X136551504Y-140320000D01*
X136358318Y-140358427D01*
X136358306Y-140358430D01*
X136176328Y-140433807D01*
X136176315Y-140433814D01*
X136012537Y-140543248D01*
X136012533Y-140543251D01*
X135873251Y-140682533D01*
X135873248Y-140682537D01*
X135763814Y-140846315D01*
X135763807Y-140846328D01*
X135688430Y-141028307D01*
X135688430Y-141028309D01*
X135680138Y-141070000D01*
X134500500Y-141070000D01*
X134500500Y-132430000D01*
X135680138Y-132430000D01*
X136483012Y-132430000D01*
X136465795Y-132439940D01*
X136409940Y-132495795D01*
X136370444Y-132564204D01*
X136350000Y-132640504D01*
X136350000Y-132719496D01*
X136370444Y-132795796D01*
X136409940Y-132864205D01*
X136465795Y-132920060D01*
X136483012Y-132930000D01*
X135680138Y-132930000D01*
X135688430Y-132971690D01*
X135688430Y-132971692D01*
X135763807Y-133153671D01*
X135763814Y-133153684D01*
X135873248Y-133317462D01*
X135873251Y-133317466D01*
X136012533Y-133456748D01*
X136012537Y-133456751D01*
X136176315Y-133566185D01*
X136176328Y-133566192D01*
X136358306Y-133641569D01*
X136358318Y-133641572D01*
X136551504Y-133679999D01*
X136551508Y-133680000D01*
X136700000Y-133680000D01*
X136700000Y-132980000D01*
X137200000Y-132980000D01*
X137200000Y-133680000D01*
X137348492Y-133680000D01*
X137348495Y-133679999D01*
X137541681Y-133641572D01*
X137541693Y-133641569D01*
X137723671Y-133566192D01*
X137723684Y-133566185D01*
X137887462Y-133456751D01*
X137887466Y-133456748D01*
X138026748Y-133317466D01*
X138026751Y-133317462D01*
X138136185Y-133153684D01*
X138136192Y-133153671D01*
X138211569Y-132971692D01*
X138211569Y-132971690D01*
X138219862Y-132930000D01*
X137416988Y-132930000D01*
X137434205Y-132920060D01*
X137490060Y-132864205D01*
X137529556Y-132795796D01*
X137550000Y-132719496D01*
X137550000Y-132640504D01*
X137529556Y-132564204D01*
X137490060Y-132495795D01*
X137434205Y-132439940D01*
X137416988Y-132430000D01*
X138219862Y-132430000D01*
X138211569Y-132388309D01*
X138211569Y-132388307D01*
X138136192Y-132206328D01*
X138136185Y-132206315D01*
X138026751Y-132042537D01*
X138026748Y-132042533D01*
X137887466Y-131903251D01*
X137887462Y-131903248D01*
X137723684Y-131793814D01*
X137723671Y-131793807D01*
X137541693Y-131718430D01*
X137541681Y-131718427D01*
X137348495Y-131680000D01*
X137200000Y-131680000D01*
X137200000Y-132380000D01*
X136700000Y-132380000D01*
X136700000Y-131680000D01*
X136551504Y-131680000D01*
X136358318Y-131718427D01*
X136358306Y-131718430D01*
X136176328Y-131793807D01*
X136176315Y-131793814D01*
X136012537Y-131903248D01*
X136012533Y-131903251D01*
X135873251Y-132042533D01*
X135873248Y-132042537D01*
X135763814Y-132206315D01*
X135763807Y-132206328D01*
X135688430Y-132388307D01*
X135688430Y-132388309D01*
X135680138Y-132430000D01*
X134500500Y-132430000D01*
X134500500Y-130506961D01*
X134501280Y-130493077D01*
X134511459Y-130402731D01*
X134517635Y-130375670D01*
X134545353Y-130296456D01*
X134557396Y-130271450D01*
X134602046Y-130200389D01*
X134619351Y-130178690D01*
X134678690Y-130119351D01*
X134700389Y-130102046D01*
X134771450Y-130057396D01*
X134796456Y-130045353D01*
X134875670Y-130017635D01*
X134902733Y-130011459D01*
X134965419Y-130004396D01*
X134993079Y-130001280D01*
X135006962Y-130000500D01*
X135065892Y-130000500D01*
X163934108Y-130000500D01*
X163993038Y-130000500D01*
X164006922Y-130001280D01*
G37*
%TD.AperFunction*%
%TA.AperFunction,Conductor*%
G36*
X154282514Y-134984501D02*
G01*
X154282674Y-134983905D01*
X154290524Y-134986008D01*
X154290526Y-134986008D01*
X154290528Y-134986009D01*
X154400599Y-135000500D01*
X154425498Y-135000499D01*
X154492536Y-135020181D01*
X154538293Y-135072984D01*
X154549500Y-135124495D01*
X154549500Y-135149402D01*
X154563989Y-135259468D01*
X154566094Y-135267322D01*
X154562814Y-135268200D01*
X154568581Y-135322073D01*
X154565517Y-135332522D01*
X154566095Y-135332677D01*
X154563990Y-135340529D01*
X154549500Y-135450598D01*
X154549500Y-135649403D01*
X154563989Y-135759468D01*
X154566094Y-135767322D01*
X154562814Y-135768200D01*
X154568581Y-135822073D01*
X154565517Y-135832522D01*
X154566095Y-135832677D01*
X154563990Y-135840529D01*
X154549500Y-135950598D01*
X154549500Y-136149403D01*
X154563989Y-136259468D01*
X154566094Y-136267322D01*
X154562814Y-136268200D01*
X154568581Y-136322073D01*
X154565517Y-136332522D01*
X154566095Y-136332677D01*
X154563990Y-136340529D01*
X154549500Y-136450598D01*
X154549500Y-136649403D01*
X154563989Y-136759468D01*
X154566094Y-136767322D01*
X154562814Y-136768200D01*
X154568581Y-136822073D01*
X154565517Y-136832522D01*
X154566095Y-136832677D01*
X154563990Y-136840529D01*
X154549500Y-136950598D01*
X154549500Y-137149403D01*
X154563989Y-137259468D01*
X154566094Y-137267322D01*
X154562814Y-137268200D01*
X154568581Y-137322073D01*
X154565517Y-137332522D01*
X154566095Y-137332677D01*
X154563990Y-137340529D01*
X154549500Y-137450598D01*
X154549500Y-137649403D01*
X154563989Y-137759468D01*
X154566094Y-137767322D01*
X154562814Y-137768200D01*
X154568581Y-137822073D01*
X154565517Y-137832522D01*
X154566095Y-137832677D01*
X154563990Y-137840529D01*
X154549501Y-137950589D01*
X154549500Y-137950605D01*
X154549500Y-137975500D01*
X154529815Y-138042539D01*
X154477011Y-138088294D01*
X154425504Y-138099500D01*
X154400597Y-138099500D01*
X154290531Y-138113989D01*
X154282678Y-138116094D01*
X154281802Y-138112824D01*
X154227853Y-138118567D01*
X154217477Y-138115518D01*
X154217323Y-138116095D01*
X154209470Y-138113990D01*
X154099401Y-138099500D01*
X153900596Y-138099500D01*
X153790531Y-138113989D01*
X153782678Y-138116094D01*
X153781802Y-138112824D01*
X153727853Y-138118567D01*
X153717477Y-138115518D01*
X153717323Y-138116095D01*
X153709470Y-138113990D01*
X153599401Y-138099500D01*
X153400596Y-138099500D01*
X153290531Y-138113989D01*
X153282678Y-138116094D01*
X153281802Y-138112824D01*
X153227853Y-138118567D01*
X153217477Y-138115518D01*
X153217323Y-138116095D01*
X153209470Y-138113990D01*
X153099401Y-138099500D01*
X152900596Y-138099500D01*
X152790531Y-138113989D01*
X152782678Y-138116094D01*
X152781802Y-138112824D01*
X152727853Y-138118567D01*
X152717477Y-138115518D01*
X152717323Y-138116095D01*
X152709470Y-138113990D01*
X152599401Y-138099500D01*
X152400596Y-138099500D01*
X152290531Y-138113989D01*
X152282678Y-138116094D01*
X152281802Y-138112824D01*
X152227853Y-138118567D01*
X152217477Y-138115518D01*
X152217323Y-138116095D01*
X152209470Y-138113990D01*
X152099401Y-138099500D01*
X151900596Y-138099500D01*
X151790531Y-138113989D01*
X151782678Y-138116094D01*
X151781802Y-138112824D01*
X151727853Y-138118567D01*
X151717477Y-138115518D01*
X151717323Y-138116095D01*
X151709470Y-138113990D01*
X151599410Y-138099501D01*
X151599407Y-138099500D01*
X151599401Y-138099500D01*
X151599394Y-138099500D01*
X151574499Y-138099500D01*
X151507460Y-138079815D01*
X151461705Y-138027011D01*
X151450499Y-137975500D01*
X151450499Y-137950597D01*
X151440731Y-137876401D01*
X151436009Y-137840528D01*
X151436008Y-137840525D01*
X151433905Y-137832674D01*
X151437207Y-137831789D01*
X151431392Y-137778075D01*
X151434501Y-137767485D01*
X151433905Y-137767326D01*
X151436008Y-137759475D01*
X151436008Y-137759474D01*
X151436009Y-137759472D01*
X151450500Y-137649401D01*
X151450499Y-137450600D01*
X151450232Y-137448575D01*
X151445593Y-137413329D01*
X151436009Y-137340528D01*
X151436008Y-137340525D01*
X151433905Y-137332674D01*
X151437207Y-137331789D01*
X151431392Y-137278075D01*
X151434501Y-137267485D01*
X151433905Y-137267326D01*
X151436008Y-137259475D01*
X151436008Y-137259474D01*
X151436009Y-137259472D01*
X151450500Y-137149401D01*
X151450499Y-136950600D01*
X151436009Y-136840528D01*
X151436008Y-136840525D01*
X151433905Y-136832674D01*
X151437207Y-136831789D01*
X151431392Y-136778075D01*
X151434501Y-136767485D01*
X151433905Y-136767326D01*
X151436008Y-136759475D01*
X151436008Y-136759474D01*
X151436009Y-136759472D01*
X151450500Y-136649401D01*
X151450499Y-136450600D01*
X151450499Y-136450598D01*
X151450499Y-136450596D01*
X151436011Y-136340536D01*
X151433906Y-136332682D01*
X151437007Y-136331850D01*
X151431128Y-136277382D01*
X151434147Y-136267389D01*
X151433418Y-136267194D01*
X151435521Y-136259342D01*
X151446626Y-136175000D01*
X151418506Y-136175000D01*
X151351467Y-136155315D01*
X151320115Y-136126466D01*
X151319348Y-136125466D01*
X151294167Y-136060292D01*
X151308219Y-135991850D01*
X151319348Y-135974534D01*
X151320115Y-135973534D01*
X151376534Y-135932319D01*
X151418506Y-135925000D01*
X151446626Y-135925000D01*
X151435521Y-135840659D01*
X151433418Y-135832807D01*
X151437041Y-135831835D01*
X151430919Y-135779884D01*
X151434495Y-135767484D01*
X151433905Y-135767326D01*
X151436008Y-135759475D01*
X151436008Y-135759474D01*
X151436009Y-135759472D01*
X151450500Y-135649401D01*
X151450499Y-135450600D01*
X151436009Y-135340528D01*
X151436008Y-135340525D01*
X151433905Y-135332674D01*
X151437207Y-135331789D01*
X151431392Y-135278075D01*
X151434501Y-135267485D01*
X151433905Y-135267326D01*
X151436008Y-135259475D01*
X151436008Y-135259474D01*
X151436009Y-135259472D01*
X151450500Y-135149401D01*
X151450500Y-135124499D01*
X151470185Y-135057460D01*
X151522989Y-135011705D01*
X151574500Y-135000499D01*
X151599402Y-135000499D01*
X151628382Y-134996683D01*
X151709472Y-134986009D01*
X151709475Y-134986007D01*
X151717326Y-134983905D01*
X151718210Y-134987207D01*
X151771925Y-134981392D01*
X151782514Y-134984501D01*
X151782674Y-134983905D01*
X151790524Y-134986008D01*
X151790526Y-134986008D01*
X151790528Y-134986009D01*
X151900599Y-135000500D01*
X152099400Y-135000499D01*
X152099401Y-135000499D01*
X152116087Y-134998302D01*
X152209472Y-134986009D01*
X152209475Y-134986007D01*
X152217326Y-134983905D01*
X152218210Y-134987207D01*
X152271925Y-134981392D01*
X152282514Y-134984501D01*
X152282674Y-134983905D01*
X152290524Y-134986008D01*
X152290526Y-134986008D01*
X152290528Y-134986009D01*
X152400599Y-135000500D01*
X152599400Y-135000499D01*
X152599401Y-135000499D01*
X152616087Y-134998302D01*
X152709472Y-134986009D01*
X152709475Y-134986007D01*
X152717326Y-134983905D01*
X152718210Y-134987207D01*
X152771925Y-134981392D01*
X152782514Y-134984501D01*
X152782674Y-134983905D01*
X152790524Y-134986008D01*
X152790526Y-134986008D01*
X152790528Y-134986009D01*
X152900599Y-135000500D01*
X153099400Y-135000499D01*
X153099401Y-135000499D01*
X153116087Y-134998302D01*
X153209472Y-134986009D01*
X153209475Y-134986007D01*
X153217326Y-134983905D01*
X153218210Y-134987207D01*
X153271925Y-134981392D01*
X153282514Y-134984501D01*
X153282674Y-134983905D01*
X153290524Y-134986008D01*
X153290526Y-134986008D01*
X153290528Y-134986009D01*
X153400599Y-135000500D01*
X153599400Y-135000499D01*
X153599401Y-135000499D01*
X153616087Y-134998302D01*
X153709472Y-134986009D01*
X153709475Y-134986007D01*
X153717326Y-134983905D01*
X153718210Y-134987207D01*
X153771925Y-134981392D01*
X153782514Y-134984501D01*
X153782674Y-134983905D01*
X153790524Y-134986008D01*
X153790526Y-134986008D01*
X153790528Y-134986009D01*
X153900599Y-135000500D01*
X154099400Y-135000499D01*
X154099401Y-135000499D01*
X154116087Y-134998302D01*
X154209472Y-134986009D01*
X154209475Y-134986007D01*
X154217326Y-134983905D01*
X154218210Y-134987207D01*
X154271925Y-134981392D01*
X154282514Y-134984501D01*
G37*
%TD.AperFunction*%
%TD*%
M02*
